<svg width="46" height="46" viewBox="0 0 46 46" fill="none" xmlns="http://www.w3.org/2000/svg">
<rect width="46" height="46" rx="5" fill="#2E2E2E"/>
<g clip-path="url(#clip0_521_3450)">
<path d="M26.3042 23.8775L17.1067 14.68C16.6842 14.2575 16.0017 14.2575 15.5792 14.68L12.5134 17.7458C12.0909 18.1683 12.0909 18.8508 12.5134 19.2733L21.7109 28.4708C22.1334 28.8933 22.8159 28.8933 23.2384 28.4708L26.3042 25.405C26.7267 24.9825 26.7267 24.3 26.3042 23.8775Z" fill="white" fill-opacity="0.5"/>
<path d="M27.0684 27.7038L25.5364 29.2359L30.1325 33.832L31.6646 32.3L27.0684 27.7038Z" fill="white" fill-opacity="0.5"/>
<path d="M30.0417 19.75C32.1357 19.75 33.8333 18.0524 33.8333 15.9583C33.8333 13.8642 32.1357 12.1667 30.0417 12.1667C27.9476 12.1667 26.25 13.8642 26.25 15.9583C26.25 18.0524 27.9476 19.75 30.0417 19.75Z" fill="white" fill-opacity="0.5"/>
</g>
<defs>
<clipPath id="clip0_521_3450">
<rect width="26" height="26" fill="white" transform="translate(10 10)"/>
</clipPath>
</defs>
</svg>
