<svg width="18" height="18" viewBox="0 0 18 18" fill="none" xmlns="http://www.w3.org/2000/svg">
<path d="M18 8.99998C18 13.9709 13.9704 18 8.99998 18C4.02933 18 0 13.9709 0 8.99998C0 4.02955 4.02933 0 8.99998 0C13.9704 0 18 4.02955 18 8.99998Z" fill="#DBA111"/>
<path d="M17.6995 9C17.6995 13.8049 13.8046 17.6998 8.99969 17.6998C4.19474 17.6998 0.299805 13.8049 0.299805 9C0.299805 4.19505 4.19474 0.30011 8.99969 0.30011C13.8045 0.30011 17.6995 4.19505 17.6995 9Z" fill="#034694"/>
<path d="M15.1996 8.99998C15.1996 12.424 12.4239 15.1993 8.99984 15.1993C5.57563 15.1993 2.7998 12.424 2.7998 8.99998C2.7998 5.57561 5.57563 2.79994 8.99984 2.79994C12.4239 2.7999 15.1996 5.57561 15.1996 8.99998Z" fill="#DBA111"/>
<path d="M15.0126 8.99998C15.0126 12.3204 12.3205 15.0121 9.00046 15.0121C5.68 15.0121 2.98828 12.3204 2.98828 8.99998C2.98828 5.67956 5.68 2.98776 9.00046 2.98776C12.3205 2.98776 15.0126 5.67952 15.0126 8.99998Z" fill="white"/>
<path d="M3.84852 14.1868C3.91505 14.2503 4.07871 14.4062 4.07871 14.4062L4.23559 14.241L3.76763 13.7949L3.70742 13.858L3.0791 14.5167L3.31766 14.7438C3.31766 14.7438 3.51915 14.5325 3.59288 14.4555C3.65449 14.514 3.80232 14.6549 3.80232 14.6549L3.95931 14.4901C3.95931 14.4901 3.81171 14.3493 3.75018 14.2903C3.78922 14.2492 3.80906 14.2284 3.84852 14.1868Z" fill="#DBA111"/>
<path d="M4.97728 14.939C4.95611 14.8127 4.88519 14.7011 4.77787 14.6248C4.67105 14.549 4.54283 14.519 4.41651 14.5397C4.28046 14.5629 4.15822 14.6421 4.07211 14.7626C3.98631 14.8839 3.95166 15.0253 3.97476 15.1619C3.996 15.2878 4.06643 15.3987 4.17341 15.475C4.28045 15.5511 4.40962 15.5815 4.53575 15.5603C4.67173 15.5374 4.79404 15.458 4.87985 15.3371C4.94854 15.2412 4.98436 15.1315 4.98436 15.0217C4.9844 14.9944 4.98209 14.9663 4.97728 14.939H4.97728ZM4.3053 15.2889C4.19594 15.2116 4.28621 15.0498 4.3499 14.9609C4.41344 14.8713 4.53662 14.7327 4.64598 14.81C4.76011 14.8916 4.65348 15.068 4.60228 15.1396C4.55094 15.212 4.41965 15.3705 4.3053 15.2889Z" fill="#DBA111"/>
<path d="M5.71243 15.1889C5.46062 15.0614 5.16935 15.1659 5.03556 15.431C4.96854 15.5636 4.95544 15.709 4.9986 15.8399C5.03848 15.9616 5.12493 16.0609 5.24213 16.1198C5.35932 16.1795 5.49121 16.1899 5.61311 16.1498C5.74394 16.1072 5.85307 16.0105 5.91968 15.878C6.05403 15.6124 5.96474 15.3163 5.71243 15.1889ZM5.43392 15.9257C5.40439 15.9354 5.37636 15.9324 5.34456 15.9165C5.29461 15.8911 5.27704 15.8456 5.27704 15.7948C5.27704 15.7245 5.31085 15.6416 5.33952 15.5851C5.3892 15.4869 5.49008 15.3318 5.60977 15.3922C5.64136 15.4083 5.66025 15.4292 5.66983 15.4584C5.68986 15.5189 5.66975 15.6181 5.61576 15.7244C5.56206 15.8307 5.49413 15.9058 5.43392 15.9257Z" fill="#DBA111"/>
<path d="M6.23225 15.5535L6.18591 15.6863C6.18591 15.6863 6.30443 15.7279 6.3404 15.7398C6.29504 15.8695 6.08594 16.4664 6.08594 16.4664L6.39641 16.5752C6.39641 16.5752 6.60585 15.9789 6.6511 15.8492C6.6873 15.8618 6.80586 15.903 6.80586 15.903L6.8811 15.6886L6.26111 15.4711L6.23225 15.5535Z" fill="#DBA111"/>
<path d="M7.52151 15.8415L7.10195 15.7529L7.084 15.8383L6.89648 16.7287L7.32347 16.8193C7.45994 16.8475 7.5498 16.8139 7.60103 16.7808C7.66609 16.7384 7.71168 16.6688 7.72921 16.5856C7.73403 16.5629 7.73634 16.541 7.73634 16.5195C7.73634 16.4593 7.71729 16.4051 7.68283 16.3585C7.73092 16.3203 7.76523 16.2664 7.77951 16.1991C7.78314 16.1818 7.7853 16.1621 7.7853 16.1417C7.7853 16.0277 7.7202 15.8829 7.52152 15.8415H7.52151ZM7.40602 16.5213C7.40155 16.5417 7.39338 16.5686 7.37796 16.5787C7.36373 16.5879 7.33635 16.5891 7.3009 16.5814C7.3009 16.5814 7.28477 16.5778 7.26569 16.5741C7.27932 16.5098 7.28845 16.4671 7.30174 16.4027C7.31999 16.407 7.34332 16.4116 7.34332 16.4116C7.39837 16.4232 7.40894 16.464 7.40894 16.4935C7.40898 16.5054 7.40746 16.5155 7.40603 16.5213L7.40602 16.5213ZM7.37736 16.0448C7.4142 16.0531 7.44128 16.0666 7.45169 16.0824C7.45646 16.0896 7.4588 16.0998 7.4588 16.1117C7.4588 16.119 7.45782 16.1273 7.45593 16.1374C7.45028 16.1635 7.44263 16.1997 7.37004 16.1848C7.37004 16.1848 7.36099 16.1824 7.34854 16.1798C7.36012 16.1259 7.36561 16.099 7.37735 16.0448L7.37736 16.0448Z" fill="#DBA111"/>
<path d="M8.29655 15.9865L7.84082 16.9198L8.10108 16.9397C8.10108 16.9397 8.17151 16.791 8.19965 16.7318C8.2547 16.7364 8.30988 16.7403 8.36384 16.7446C8.38402 16.807 8.43487 16.9652 8.43487 16.9652L8.78113 16.9921L8.39424 15.7928L8.29655 15.9865Z" fill="#DBA111"/>
<path d="M9.32368 16.7315C9.31793 16.5951 9.29172 15.9742 9.29172 15.9742L8.96289 15.988L9.00447 16.9844L9.66346 16.9571L9.65358 16.718C9.65358 16.718 9.4182 16.728 9.32368 16.7315Z" fill="#DBA111"/>
<path d="M10.2261 16.636C10.2048 16.5011 10.1086 15.8873 10.1086 15.8873L10.0224 15.9012L9.7832 15.9384L9.93762 16.924L10.5895 16.8216L10.5522 16.5852C10.5522 16.5852 10.3196 16.6219 10.2261 16.636Z" fill="#DBA111"/>
<path d="M12.1125 15.9731C12.1099 16.0585 12.0595 16.1321 11.9809 16.1632C11.9374 16.1805 11.8958 16.1805 11.8542 16.1628C11.7902 16.1355 11.731 16.0662 11.6955 15.9773C11.6536 15.8724 11.6451 15.7832 11.6726 15.7206C11.6914 15.6767 11.7284 15.644 11.7849 15.6213C11.8461 15.597 11.9043 15.6194 11.9839 15.6663L12.057 15.7095L12.1784 15.518L12.1064 15.4707C11.974 15.3837 11.8101 15.366 11.6683 15.4226C11.5367 15.4751 11.4347 15.5732 11.3808 15.6987C11.3261 15.826 11.3261 15.9716 11.3816 16.1098C11.4863 16.3716 11.7823 16.5005 12.041 16.3969C12.2281 16.3222 12.3339 16.1801 12.3474 15.9861L12.3535 15.8995L12.1153 15.8818L12.1125 15.9731" fill="#DBA111"/>
<path d="M12.8802 15.7009C12.8128 15.5812 12.5102 15.0383 12.5102 15.0383L12.4344 15.0811L12.2227 15.1993L12.7093 16.07L13.2847 15.7486L13.1682 15.5396C13.1683 15.5396 12.9623 15.6544 12.8802 15.7009Z" fill="#DBA111"/>
<path d="M13.5204 14.358L13.4499 14.4097L13.3263 14.5005L13.7302 15.051C13.7487 15.0759 13.7487 15.0926 13.747 15.1023C13.7432 15.1307 13.7136 15.1615 13.6874 15.1803C13.6751 15.1891 13.6465 15.2011 13.6173 15.1965C13.5964 15.1935 13.58 15.1822 13.5653 15.1624L13.1662 14.618L12.9001 14.8128L13.2974 15.3544C13.3563 15.4346 13.4295 15.482 13.515 15.495C13.6108 15.51 13.7197 15.4773 13.821 15.4025C14.0293 15.2502 14.0259 15.048 13.935 14.9241L13.5204 14.358Z" fill="#DBA111"/>
<path d="M14.7321 14.1579C14.6709 14.0944 14.5954 14.0658 14.5161 14.0702C14.5114 14.0085 14.4875 13.9497 14.4399 13.9004C14.3567 13.8145 14.1707 13.7476 13.9995 13.9143L13.6914 14.2122L14.3855 14.9288L14.6989 14.625C14.799 14.528 14.8211 14.434 14.822 14.3733C14.8237 14.2954 14.7916 14.2191 14.7321 14.1579ZM14.2077 14.1338C14.2181 14.1448 14.2307 14.1577 14.2307 14.1756C14.2307 14.1903 14.2227 14.2084 14.1987 14.2314C14.1987 14.2314 14.1922 14.238 14.1834 14.2468C14.1445 14.2065 14.126 14.1875 14.0866 14.147C14.1561 14.0833 14.185 14.1105 14.2077 14.1338ZM14.3721 14.3805C14.4283 14.3262 14.4825 14.3739 14.4979 14.3901C14.5129 14.4051 14.5299 14.4263 14.5299 14.4446C14.5299 14.4446 14.5299 14.4446 14.5299 14.4452C14.5296 14.4621 14.5152 14.4856 14.4895 14.5106C14.4895 14.5106 14.4775 14.5222 14.4633 14.5356C14.4179 14.4886 14.3872 14.4571 14.3417 14.4104C14.3551 14.3971 14.3721 14.3805 14.3721 14.3805V14.3805Z" fill="#DBA111"/>
<path d="M3.84627 14.0944C3.87341 14.1205 4.07608 14.3138 4.07608 14.3138L4.14291 14.2434L3.76951 13.8873L3.75448 13.903L3.17163 14.5144L3.31522 14.6515C3.31522 14.6515 3.56355 14.3912 3.59029 14.3627C3.61744 14.3885 3.80014 14.5625 3.80014 14.5625L3.86709 14.4923C3.86709 14.4923 3.68438 14.3184 3.65723 14.2926C3.68147 14.2672 3.82226 14.1195 3.84627 14.0944Z" fill="white"/>
<path d="M4.73973 14.6781C4.64719 14.6122 4.53643 14.5859 4.42771 14.6041C4.30836 14.6245 4.20131 14.6942 4.12553 14.8009C4.04954 14.9078 4.01905 15.0318 4.03931 15.1507C4.05752 15.2598 4.11879 15.356 4.21142 15.4216C4.30453 15.4879 4.41575 15.5138 4.52495 15.4955C4.64367 15.4756 4.75087 15.4056 4.82652 15.2997C4.887 15.2142 4.91896 15.1175 4.91896 15.0217C4.91896 14.9978 4.91688 14.9736 4.91298 14.9497C4.89446 14.8408 4.83308 14.7444 4.73974 14.6781H4.73973ZM4.65548 15.1778C4.59285 15.2654 4.42983 15.4579 4.26758 15.3425C4.10588 15.2277 4.23425 15.0107 4.29662 14.9225C4.35918 14.8344 4.52227 14.6422 4.68373 14.757C4.84603 14.8728 4.71804 15.0899 4.65548 15.1778Z" fill="white"/>
<path d="M5.6829 15.2475C5.4644 15.137 5.21127 15.229 5.09388 15.4611C5.03477 15.5778 5.02311 15.7048 5.06063 15.82C5.09509 15.9246 5.16999 16.0101 5.27159 16.0612C5.37341 16.1133 5.48758 16.1225 5.59274 16.0879C5.70713 16.0501 5.80263 15.9654 5.86174 15.8488C5.97879 15.6166 5.90199 15.3579 5.6829 15.2475ZM5.31506 15.9746C5.13814 15.8856 5.23228 15.6516 5.28117 15.5554C5.3299 15.4588 5.46232 15.2443 5.63897 15.334C5.686 15.3576 5.71739 15.3925 5.73235 15.4383C5.76704 15.5443 5.71077 15.6813 5.67403 15.7541C5.63749 15.8263 5.56032 15.953 5.45422 15.9878C5.40882 16.0031 5.36186 15.9985 5.31506 15.9746Z" fill="white"/>
<path d="M6.2941 15.5749L6.26903 15.6458C6.26903 15.6458 6.39266 15.6893 6.42364 15.7002C6.40993 15.739 6.16895 16.4262 6.16895 16.4262L6.35623 16.492C6.35623 16.492 6.59741 15.8049 6.61089 15.7659C6.64186 15.7767 6.7655 15.8199 6.7655 15.8199L6.7978 15.7287L6.30099 15.5543L6.2941 15.5749" fill="white"/>
<path d="M7.50879 15.9053L7.15319 15.8302L7.14842 15.8518L6.97461 16.6787L7.33745 16.7549C7.42969 16.7742 7.50645 16.7646 7.56582 16.7257C7.61717 16.6922 7.65163 16.6388 7.66572 16.5722C7.66932 16.554 7.67147 16.5367 7.67147 16.5197C7.67147 16.4474 7.63561 16.3862 7.57158 16.3423C7.64572 16.321 7.69881 16.2664 7.71589 16.1854C7.7188 16.1728 7.72055 16.1578 7.72055 16.1409C7.72051 16.0581 7.677 15.9408 7.5088 15.9053H7.50879ZM7.38448 15.9785C7.44427 15.9911 7.48566 16.014 7.50671 16.0465C7.51883 16.065 7.52481 16.0866 7.52481 16.1118C7.52481 16.124 7.52322 16.1368 7.52034 16.1506C7.49725 16.2607 7.4083 16.2595 7.35714 16.2484C7.35714 16.2484 7.30299 16.2372 7.2716 16.2306C7.2789 16.1967 7.32018 16.0004 7.3273 15.9666C7.35002 15.9712 7.38448 15.9785 7.38448 15.9785ZM7.35714 16.3476C7.45817 16.3688 7.47411 16.4486 7.47411 16.497C7.47411 16.5178 7.47085 16.5326 7.47044 16.5351C7.46025 16.5829 7.44204 16.6152 7.41406 16.6332C7.38448 16.653 7.34188 16.6567 7.288 16.6456C7.288 16.6456 7.22332 16.6318 7.18867 16.6249C7.19613 16.5893 7.24449 16.3602 7.2518 16.3253C7.28141 16.3315 7.35714 16.3476 7.35714 16.3476H7.35714Z" fill="white"/>
<path d="M8.35527 16.0152L7.94165 16.8619L8.06078 16.8708C8.06078 16.8708 8.14833 16.6868 8.15992 16.6633C8.1851 16.6652 8.38757 16.6809 8.41241 16.6829C8.42033 16.7072 8.48349 16.9035 8.48349 16.9035L8.68865 16.9193L8.38144 15.9669L8.35527 16.0152ZM8.30987 16.3557C8.32986 16.4196 8.36833 16.5429 8.38106 16.5832C8.3402 16.5801 8.2461 16.5728 8.20566 16.5698C8.22421 16.5317 8.2806 16.4158 8.30987 16.3557Z" fill="white"/>
<path d="M9.2605 16.7996C9.25887 16.7584 9.22847 16.0424 9.22847 16.0424L9.20734 16.0432L9.03027 16.0504L9.06666 16.9166L9.59509 16.8942L9.59044 16.7861C9.59052 16.7861 9.29871 16.7984 9.2605 16.7997" fill="white"/>
<path d="M10.1711 16.7115C10.1645 16.6707 10.0533 15.9619 10.0533 15.9619L10.0321 15.9653L9.85742 15.993L9.99173 16.8492L10.5142 16.7668L10.4973 16.6598C10.4973 16.6598 10.2085 16.7052 10.1711 16.7115" fill="white"/>
<path d="M12.1776 15.9746C12.1745 16.0874 12.1083 16.1829 12.0051 16.2245C11.945 16.2484 11.8857 16.2476 11.8284 16.2229C11.7476 16.1888 11.6771 16.1079 11.6343 16.0017C11.5862 15.8804 11.5784 15.7742 11.6121 15.6947C11.6382 15.6347 11.6879 15.5897 11.7607 15.5609C11.8558 15.5228 11.9431 15.5662 12.017 15.6101L12.0355 15.6209L12.0887 15.5374L12.0709 15.5254C11.9562 15.4502 11.8145 15.4346 11.6926 15.4834C11.577 15.5297 11.4873 15.6151 11.4408 15.7245C11.393 15.8353 11.3934 15.9639 11.4423 16.0851C11.5335 16.3138 11.7909 16.4262 12.0171 16.3361C12.181 16.2703 12.27 16.1513 12.2819 15.9815L12.2834 15.9597L12.1788 15.9524L12.1776 15.9746" fill="white"/>
<path d="M12.8547 15.7899C12.8343 15.7541 12.4847 15.1277 12.4847 15.1277L12.4655 15.1384L12.3115 15.2247L12.7338 15.9809L13.1954 15.7231L13.1429 15.6285C13.143 15.6285 12.8874 15.7709 12.8547 15.7899Z" fill="white"/>
<path d="M13.5066 14.4493L13.4887 14.4624L13.418 14.5144L13.7833 15.0122C13.8078 15.0457 13.8174 15.0791 13.8122 15.1119C13.8034 15.1712 13.7494 15.2167 13.7268 15.2328C13.7009 15.2524 13.6535 15.2686 13.6081 15.2612C13.5695 15.2555 13.538 15.2351 13.5126 15.2012L13.1519 14.7092L12.9922 14.827L13.3505 15.3155C13.3987 15.3814 13.4576 15.4202 13.5253 15.4303C13.632 15.4464 13.7321 15.387 13.7825 15.3503C13.9554 15.2232 13.9577 15.0641 13.883 14.9629L13.5066 14.4493Z" fill="white"/>
<path d="M14.6852 14.2034C14.6182 14.1341 14.5324 14.1182 14.4434 14.1525C14.4504 14.1317 14.4546 14.1105 14.4546 14.0894C14.4546 14.0379 14.4341 13.9877 14.3929 13.9453C14.3372 13.888 14.1927 13.8171 14.045 13.9607L13.7839 14.2136L14.3867 14.8359L14.6536 14.5771C14.7209 14.5125 14.7561 14.4428 14.7569 14.3723C14.7579 14.3108 14.733 14.2526 14.6852 14.2034ZM14.296 14.1764C14.296 14.22 14.2676 14.2558 14.2447 14.2781C14.2447 14.2781 14.2047 14.317 14.1821 14.3393C14.1578 14.3143 14.0181 14.1703 13.9942 14.1448C14.0104 14.1291 14.0359 14.1048 14.0359 14.1048C14.1175 14.0254 14.1891 14.0201 14.2548 14.0882C14.2849 14.1195 14.296 14.149 14.296 14.1764ZM14.462 14.6279C14.4373 14.6025 14.2745 14.434 14.2495 14.4085C14.271 14.3878 14.3268 14.3335 14.3268 14.3335C14.4331 14.231 14.5409 14.3397 14.5455 14.3447C14.579 14.3793 14.5955 14.4121 14.5955 14.4446C14.5955 14.4452 14.5955 14.4456 14.5955 14.4459C14.5951 14.4817 14.5743 14.5191 14.535 14.558C14.5351 14.558 14.4831 14.608 14.462 14.6279V14.6279Z" fill="white"/>
<path d="M5.00136 3.07107L4.63758 3.16919L4.67934 3.29949C4.72959 3.45747 4.68411 3.62287 4.56097 3.73086C4.49247 3.79092 4.41337 3.81849 4.32612 3.8125C4.19355 3.80361 4.0439 3.7178 3.92598 3.58284C3.78701 3.42365 3.71768 3.2704 3.7265 3.14052C3.73264 3.04582 3.77868 2.96262 3.86702 2.88522C3.96461 2.79976 4.08836 2.80309 4.25622 2.83638L4.38073 2.86099L4.46123 2.51258L4.33589 2.48202C4.06639 2.41533 3.78535 2.48084 3.58484 2.65636C3.19216 2.99996 3.16013 3.56111 3.51036 3.96162C3.83582 4.3337 4.40053 4.37426 4.76859 4.05231C5.0337 3.82076 5.12606 3.52449 5.03601 3.19645L5.00136 3.07107Z" fill="#DBA111"/>
<path d="M5.98922 1.2464L5.61764 1.42138C5.61764 1.42138 5.82507 1.86098 5.89637 2.01248C5.79038 2.06231 5.68773 2.11082 5.58162 2.16092C5.51006 2.00953 5.30251 1.56974 5.30251 1.56974L4.81323 1.80073L5.55837 3.38129L6.04807 3.15041C6.04807 3.15041 5.81719 2.66156 5.74294 2.50304C5.849 2.4534 5.95158 2.40493 6.05787 2.35487C6.13236 2.51293 6.36293 3.00186 6.36293 3.00186L6.85251 2.77084L6.10759 1.19066L5.98922 1.2464Z" fill="#DBA111"/>
<path d="M7.64557 2.22557C7.62172 2.10788 7.59748 1.98814 7.57393 1.87061C7.72509 1.8402 8.12678 1.75909 8.12678 1.75909L8.05612 1.40803C8.05612 1.40803 7.65424 1.48925 7.50297 1.51981C7.48119 1.41219 7.46317 1.3218 7.44124 1.21434C7.59824 1.18268 8.0281 1.09581 8.0281 1.09581L7.95725 0.744904L7.82866 0.770728L6.83984 0.970703L7.18553 2.68368L8.31199 2.45595L8.24122 2.10523C8.24122 2.10523 7.80363 2.19342 7.64557 2.22557Z" fill="#DBA111"/>
<path d="M9.2433 0.70427L8.70158 0.693024L8.69889 0.823664L8.66504 2.44004L9.80218 2.4639L9.81032 2.08542C9.81032 2.08542 9.37375 2.07603 9.21422 2.07277C9.21876 1.85883 9.2433 0.70427 9.2433 0.70427" fill="#DBA111"/>
<path d="M10.9987 1.58559C10.8582 1.48236 10.8171 1.44097 10.8313 1.38459C10.8383 1.35536 10.8701 1.26201 10.9711 1.28701C11.0318 1.30261 11.0922 1.3346 11.1192 1.46532L11.1487 1.61043L11.5064 1.48956L11.4842 1.37694C11.4402 1.15576 11.2531 0.967487 11.0183 0.908831C10.8501 0.867064 10.6815 0.889405 10.5432 0.972523C10.4162 1.0486 10.3268 1.16867 10.2915 1.31079C10.2017 1.66901 10.4432 1.84149 10.6028 1.95577C10.7665 2.07282 10.8082 2.11864 10.7832 2.21641C10.7753 2.24697 10.7573 2.27109 10.7292 2.28816C10.6964 2.30744 10.6553 2.31441 10.6219 2.3057C10.5359 2.28453 10.4986 2.2439 10.4624 2.13268L10.4185 1.99936L10.0596 2.14613L10.0943 2.26007C10.1616 2.48147 10.3223 2.62101 10.5851 2.68686C10.8806 2.76078 11.239 2.62491 11.3283 2.27018C11.4214 1.8964 11.167 1.70911 10.9987 1.58559Z" fill="#DBA111"/>
<path d="M12.2915 2.51753C12.4293 2.58721 12.7948 2.772 12.7948 2.772L12.9564 2.45248C12.9564 2.45248 12.5907 2.26769 12.4532 2.19824C12.5024 2.10024 12.5441 2.01784 12.5932 1.92003C12.7358 1.99206 13.1278 2.19014 13.1278 2.19014L13.289 1.87062L12.2718 1.35661L12.213 1.47305L11.4834 2.91612L12.5091 3.43414L12.6708 3.11481C12.6708 3.11481 12.2722 2.91347 12.1282 2.84095C12.1822 2.73371 12.2376 2.62481 12.2915 2.51753Z" fill="#DBA111"/>
<path d="M14.3173 2.68071L12.6875 3.52404L12.9993 3.79521C12.9993 3.79521 13.2683 3.65218 13.3661 3.60084C13.4388 3.66415 13.5459 3.75738 13.6175 3.81952C13.5824 3.9235 13.4828 4.21587 13.4828 4.21587L13.9123 4.58961L14.6092 2.53485L14.3173 2.68071Z" fill="#DBA111"/>
<path d="M4.93996 3.17737L4.74786 3.22959L4.76195 3.27306C4.82299 3.46482 4.76793 3.6654 4.61779 3.79668C4.53157 3.87234 4.43103 3.90699 4.31997 3.89983C4.16252 3.88927 3.99507 3.79475 3.85993 3.64018C3.70539 3.46327 3.62879 3.28836 3.63894 3.13432C3.64689 3.01735 3.70422 2.9114 3.80934 2.81946C3.94736 2.69878 4.12113 2.72085 4.27286 2.75088L4.31455 2.75895L4.35659 2.57685L4.31482 2.56643C4.07262 2.50698 3.8213 2.56511 3.64189 2.72218C3.28693 3.03307 3.25841 3.54082 3.57581 3.90404C3.86958 4.23992 4.37874 4.27672 4.71113 3.98644C4.95216 3.77506 5.03315 3.51734 4.95151 3.2196L4.93996 3.17738" fill="white"/>
<path d="M6.02688 1.32488L5.73455 1.46309C5.73455 1.46309 5.98064 1.98531 6.01302 2.05396C5.95046 2.08361 5.60322 2.24746 5.54021 2.27688C5.50791 2.20812 5.26197 1.68594 5.26197 1.68594L4.92969 1.84248L5.6005 3.26494L5.93255 3.10863C5.93255 3.10863 5.66021 2.53135 5.62742 2.46148C5.69039 2.43184 6.03722 2.2684 6.10019 2.23864C6.1329 2.30831 6.40532 2.88593 6.40532 2.88593L6.73695 2.72924L6.06618 1.30655L6.02688 1.32488Z" fill="white"/>
<path d="M7.57782 2.3283C7.56418 2.25995 7.48557 1.87076 7.47194 1.80241C7.54468 1.78779 8.02472 1.69078 8.02472 1.69078L7.98841 1.51106C7.98841 1.51106 7.50852 1.60766 7.43536 1.62246C7.42207 1.55544 7.35281 1.21301 7.33952 1.14606C7.41283 1.13103 7.92604 1.02769 7.92604 1.02769L7.88965 0.8479L6.94336 1.03886L7.25462 2.58065L8.20996 2.38779L8.17365 2.208C8.17357 2.20804 7.65173 2.31334 7.57782 2.3283Z" fill="white"/>
<path d="M9.155 0.789839L8.78815 0.781891L8.78737 0.825211L8.75488 2.35454L9.71795 2.37495L9.72223 2.17081C9.72223 2.17081 9.20088 2.15979 9.12621 2.1582C9.1281 2.07659 9.15502 0.789844 9.15502 0.789844" fill="white"/>
<path d="M10.9925 1.20259C11.1092 1.23178 11.1765 1.30971 11.2051 1.44774L11.215 1.49598L11.4064 1.4313L11.3991 1.39355C11.3613 1.20509 11.2001 1.04408 10.9976 0.993146C10.852 0.956832 10.707 0.975879 10.5887 1.04688C10.4817 1.11118 10.4063 1.21247 10.3766 1.33194C10.3012 1.63241 10.4971 1.77237 10.6541 1.88464C10.8131 1.99836 10.909 2.07598 10.8682 2.23726C10.8519 2.30439 10.8081 2.34275 10.7743 2.36294C10.7219 2.39433 10.6576 2.40414 10.6011 2.39028C10.4851 2.3612 10.4254 2.29883 10.3801 2.15971L10.3653 2.11525L10.1667 2.19625L10.1783 2.23438C10.236 2.42413 10.3763 2.54443 10.6072 2.60222C10.8608 2.66557 11.1682 2.55079 11.2439 2.24865C11.3228 1.93198 11.1149 1.77873 10.9467 1.65574C10.8039 1.55032 10.7176 1.47985 10.747 1.36337C10.7727 1.25924 10.8589 1.16911 10.9925 1.20259" fill="white"/>
<path d="M12.5545 1.80309C12.6214 1.83675 13.0885 2.07278 13.0885 2.07278L13.1716 1.90893L12.3101 1.47372L12.2904 1.51258L11.6006 2.87771L12.4701 3.31715L12.553 3.15338C12.553 3.15338 12.0782 2.91334 12.011 2.87922C12.0423 2.8169 12.2215 2.46296 12.2526 2.40059C12.3189 2.43406 12.7557 2.65483 12.7557 2.65483L12.839 2.49098C12.839 2.49098 12.4017 2.2704 12.3354 2.23674C12.3663 2.17593 12.5237 1.8639 12.5545 1.80309Z" fill="white"/>
<path d="M14.3574 2.75835L12.8418 3.54272L13.0112 3.68999C13.0112 3.68999 13.3326 3.51959 13.3781 3.4955C13.4158 3.52845 13.6822 3.76019 13.7191 3.79234C13.703 3.84024 13.584 4.18831 13.584 4.18831L13.8716 4.43839L14.4572 2.71155L14.3574 2.75835ZM13.5535 3.40527C13.6252 3.3682 13.8084 3.27304 13.9201 3.21491C13.8785 3.33366 13.81 3.52921 13.7837 3.60532C13.7256 3.55442 13.6117 3.45552 13.5535 3.40527Z" fill="white"/>
<path d="M13.2997 8.76385C13.1754 8.43464 12.7474 8.29161 12.3428 8.44433C12.1741 8.50779 12.0359 8.6139 11.9417 8.73916C12.2088 7.97668 13.2971 7.81487 13.2971 7.10551C13.2971 5.91653 11.6086 6.24957 11.8543 7.10569C11.8543 6.71725 12.4725 6.64606 12.4725 7.10569C12.4725 7.56539 11.3945 7.86684 11.3945 8.64345C11.3945 9.49958 12.2508 9.5788 12.1641 10.3618C12.1494 10.4968 12.0042 10.6742 11.794 10.6742C10.4825 10.6742 10.9507 9.05972 10.4925 8.56844L10.5164 8.23673C10.7813 8.39918 11.4842 8.01861 11.0215 7.4385C11.0215 7.72378 10.4274 7.70799 10.4274 7.169C10.4274 6.43968 11.1093 6.82025 11.1424 6.98129C11.1097 6.7157 11.0974 6.54715 11.1412 6.39409C10.7736 6.51262 10.7393 6.30015 10.7858 6.21794C10.839 6.12285 10.9102 6.01179 11.0534 6.01179C11.1308 6.01179 11.1773 6.02258 11.2047 6.04144C11.2505 6.07276 11.2839 6.00123 11.2774 6.06776C11.3167 6.00789 11.301 6.08264 11.3389 6.02258C11.3776 5.96294 11.4297 5.8955 11.5211 5.80564L11.5172 5.6711L11.6243 5.71037L11.7271 5.5441C11.6161 5.31406 11.4656 5.42486 11.3547 5.13964C11.262 5.11556 9.8177 5.27263 9.85958 4.69649C9.74182 4.69649 9.46285 4.76101 9.63549 4.9956C9.50125 5.01177 9.4045 4.85932 9.20214 5.27165C9.45562 5.22413 9.32441 5.50748 9.32441 5.5881C9.32441 6.11051 8.62895 6.10169 8.62895 5.85699C8.46135 6.01986 8.55644 6.37599 8.80992 6.46373C8.80992 6.46373 8.71351 6.84467 8.47555 7.08618C8.12233 7.0721 7.55566 7.01072 7.22966 6.70256C7.08906 6.56976 6.97743 6.49739 6.88235 6.46021V6.28754C7.02155 6.21941 7.17419 6.09885 7.33281 5.89736C7.45656 5.74623 7.52355 5.55243 7.50552 5.34662C7.50318 5.32205 7.49954 5.29778 7.49522 5.27411C7.4939 5.26657 7.49204 5.25927 7.4903 5.25177C7.48682 5.23518 7.4828 5.21928 7.47799 5.20288C7.47568 5.19497 7.47352 5.18686 7.47102 5.17903C7.46564 5.16259 7.45974 5.14688 7.45334 5.13127C7.45065 5.12473 7.44876 5.11776 7.44561 5.11162C7.43679 5.09061 7.42695 5.07084 7.41631 5.05092C7.41176 5.04285 7.40695 5.03532 7.40252 5.0279C7.39521 5.01593 7.38828 5.00382 7.3806 4.99227C7.37438 4.9831 7.36787 4.97383 7.36132 4.96459C7.35459 4.95576 7.34746 4.94671 7.34053 4.93785C7.33284 4.92839 7.32527 4.91835 7.31706 4.90896C7.3116 4.90275 7.3057 4.89677 7.29994 4.89105C7.27934 4.86829 7.257 4.84712 7.23367 4.8269C7.23174 4.82524 7.22943 4.82308 7.22716 4.82133C7.21413 4.8102 7.20024 4.79956 7.18657 4.78941C7.18309 4.78677 7.17945 4.78419 7.17555 4.78146C7.16093 4.77116 7.14597 4.76109 7.13037 4.75147C7.12943 4.75087 7.12855 4.75049 7.12787 4.74981C6.97944 4.65893 6.80006 4.61137 6.61061 4.6264C6.15447 4.66271 5.81541 5.04384 5.85351 5.47772C5.88316 5.81576 6.13247 6.08574 6.45661 6.17185C6.3429 6.23532 6.24683 6.27194 6.22513 6.27194C6.22873 6.27425 6.23342 6.27694 6.23853 6.28023C6.23986 6.28083 6.24141 6.28178 6.243 6.28257C6.24739 6.28541 6.25262 6.28833 6.25796 6.29121C6.25928 6.29198 6.26092 6.29272 6.26221 6.29352C6.26952 6.2972 6.27705 6.30102 6.28553 6.30507C6.28686 6.30567 6.28844 6.30617 6.28978 6.30681C6.29728 6.31029 6.30492 6.31394 6.31303 6.31704C6.31534 6.31809 6.31784 6.31905 6.32033 6.31988C6.34017 6.32817 6.36251 6.33563 6.38694 6.3426C6.39042 6.34355 6.3941 6.34434 6.39709 6.34529C6.40697 6.34779 6.417 6.3501 6.42738 6.35259C6.43079 6.3532 6.43427 6.35392 6.43794 6.35467C6.45105 6.35702 6.46475 6.35933 6.4785 6.361C6.47968 6.361 6.48085 6.3616 6.48198 6.3616V6.45979C6.47683 6.46092 6.47217 6.46145 6.46736 6.46221C6.319 6.48664 6.22259 6.5323 6.17901 6.66438C6.13569 6.79695 6.18019 6.84486 6.24967 6.93786C6.19097 7.04278 6.03716 7.08201 6.23789 7.31383C6.22327 7.40138 6.24179 7.54081 6.36921 7.5831C6.41079 7.59719 6.44544 7.60469 6.48198 7.61101L6.48181 9.34894C6.35473 9.41627 6.29202 9.50026 6.25734 9.57853C6.25734 9.57853 6.15532 9.35205 6.16206 9.8007C6.27797 9.71076 6.23234 9.90483 6.23234 9.90483C6.07451 10.1093 6.27498 10.0982 6.27498 10.0982C6.41092 9.96242 6.3832 10.1597 6.3832 10.1597C6.3832 10.4004 6.48094 10.4946 6.48177 10.4949V11.819L6.36632 11.8193L6.36742 12.1846L6.56932 12.1843C6.45602 12.2313 6.38127 12.3432 6.39218 12.4669C6.40589 12.6228 6.54989 12.7386 6.7139 12.726C6.87775 12.7128 6.99952 12.5761 6.98555 12.4199C6.97627 12.312 6.90482 12.224 6.80765 12.1836L6.99396 12.1831L6.99318 11.8177L6.88208 11.8182L6.88226 10.6435C6.90516 10.6561 6.92993 10.6648 6.95681 10.6707C6.96753 10.6727 6.97817 10.6742 6.98912 10.6749C6.99393 10.6757 6.99892 10.6757 7.00373 10.6758C6.97385 10.5214 7.0661 10.419 7.0661 10.419C7.11347 10.3477 7.18197 10.2921 7.25994 10.2529C7.49308 10.1359 7.81124 10.1655 7.90632 10.3559C8.50882 10.1971 9.02657 9.59152 9.02657 9.59152L9.32315 10.0963C8.69437 10.3065 7.3248 11.4971 8.27549 11.9095C8.27514 12.0295 8.25905 12.9204 7.68779 12.8496C6.8651 12.7483 6.65994 13.0887 6.81792 13.4713C6.74366 13.794 6.99214 13.906 6.99214 13.906C6.95484 13.7196 7.04448 13.5652 7.38448 13.5671C7.38274 13.9072 7.60233 13.9685 7.60233 13.9685C7.60388 13.6773 7.8062 13.5695 7.98596 13.5703C7.98463 13.8102 8.26337 13.9014 8.26337 13.9014C8.26337 13.9014 8.19271 13.6249 8.5078 13.5703C9.30542 13.4313 8.55631 12.6109 9.76929 12.3849C9.76929 12.3849 9.16528 12.2938 9.16528 11.9636C9.16528 11.6631 9.71204 11.4576 9.90027 11.4576C10.2863 12.1952 10.7057 12.201 10.8157 12.2063C10.9866 12.3972 10.9293 13.0409 10.6825 13.0282C9.77899 12.9797 9.81204 13.5293 9.9133 13.6417C9.90175 13.8551 10.0677 13.9783 10.0677 13.9783C10.0677 13.7496 10.2853 13.6853 10.5643 13.7004C10.5497 13.9798 10.7277 14.0215 10.7277 14.0215C10.7325 13.7404 10.9405 13.6927 11.0883 13.7004C11.0775 13.8975 11.273 13.9555 11.273 13.9555C11.273 13.9555 11.2538 13.7054 11.517 13.7054C12.0164 13.7051 11.2912 12.6348 12.2658 11.5764C11.4096 11.9727 10.9541 10.982 10.9541 10.7919C11.3942 11.3068 12.8209 11.4097 12.8209 10.53C12.8209 9.68967 11.8973 9.37655 12.3295 9.05514C12.5808 8.86826 13.075 9.2458 12.7922 9.63579C13.1977 9.48553 13.4237 9.09285 13.2996 8.76383L13.2997 8.76385ZM7.82711 8.79034C7.50433 8.98012 7.28792 9.22024 6.99366 9.32528C6.94898 9.34096 6.91334 9.34542 6.88237 9.34342V7.70318C6.96034 7.71048 7.16266 7.73817 7.39921 7.83598C7.63349 7.96382 7.63349 8.22805 7.33783 8.29068C7.5247 8.64849 8.17203 8.47332 8.31313 8.18189C8.38223 8.17576 8.44331 8.29913 8.50076 8.41576C8.40991 8.46294 8.22403 8.5567 7.82711 8.79034ZM11.4399 6.07124C11.4044 6.11941 11.3694 6.16731 11.3388 6.20835C11.4206 6.34441 11.5746 6.42946 11.7434 6.41386C11.9765 6.39178 12.1482 6.1848 12.1268 5.95139C12.1255 5.94291 12.1243 5.93526 12.1232 5.92697C12.0982 6.04784 11.9558 6.15019 11.7746 6.16693C11.6374 6.1798 11.5132 6.14042 11.4399 6.07124H11.4399Z" fill="#D1D3D4"/>
<path d="M11.0781 5.94712C11.1594 6.08318 11.3138 6.16822 11.4825 6.15251C11.716 6.1307 11.8872 5.9236 11.8659 5.68993C11.865 5.68167 11.8635 5.67372 11.8624 5.66547C11.8376 5.78619 11.6945 5.88881 11.5137 5.90558C11.3761 5.91846 11.2521 5.879 11.1789 5.80989C11.1436 5.85821 11.1082 5.90607 11.0781 5.94712" fill="#ED1C24"/>
<path d="M9.82843 4.16489C9.82171 4.16489 9.81494 4.16749 9.80695 4.17026C9.66035 4.2012 9.21034 4.51088 9.37462 4.73416C9.23978 4.7501 8.92673 4.65772 8.72479 5.06982C8.97849 5.02207 9.06313 5.24687 9.06313 5.3276C9.06313 5.63342 8.82555 5.75607 8.62812 5.75725C8.49595 5.75758 8.38262 5.70376 8.37033 5.61224C8.3709 5.60954 8.3697 5.60691 8.37033 5.60419C8.37016 5.60393 8.36765 5.60453 8.36765 5.60419H8.36228C8.20483 5.77031 8.30047 6.11655 8.55024 6.203C8.55024 6.203 8.45254 6.58443 8.21459 6.82598C7.97769 6.81678 7.64695 6.78455 7.3553 6.67292C7.27366 6.64187 7.19639 6.60289 7.12437 6.55745C7.06878 6.523 7.01546 6.4861 6.96862 6.44199C6.8281 6.30919 6.71716 6.23708 6.62222 6.20031V6.02577C6.76142 5.9575 6.91472 5.8379 7.07335 5.63641C7.19729 5.48544 7.26331 5.29189 7.24521 5.08593C7.24327 5.06132 7.23935 5.03751 7.23446 5.01343C7.23336 5.00593 7.23068 4.99944 7.22909 4.99195C7.22546 4.97536 7.22312 4.95687 7.21835 4.94093C7.2162 4.93279 7.21313 4.92483 7.2103 4.91676C7.20507 4.90033 7.19763 4.88671 7.1915 4.87111C7.18878 4.86449 7.18885 4.85618 7.18613 4.84963C7.17708 4.82903 7.16704 4.80998 7.15659 4.79055C7.15242 4.78226 7.14752 4.7743 7.14317 4.76639C7.13585 4.7545 7.12661 4.74303 7.119 4.73148C7.11267 4.72224 7.10698 4.71383 7.1002 4.70462C7.0935 4.6958 7.08588 4.68625 7.07872 4.67777C7.07107 4.66774 7.06553 4.65762 7.05724 4.64823C7.05186 4.64202 7.04423 4.63534 7.03844 4.62944C7.01761 4.60691 6.99724 4.58483 6.97399 4.56499C6.97165 4.5631 6.96825 4.56129 6.96594 4.55962C6.95287 4.54864 6.93971 4.53739 6.92566 4.5274C6.92195 4.52497 6.91855 4.52184 6.91492 4.51934C6.90007 4.50878 6.88495 4.49953 6.86927 4.4898C6.86836 4.48937 6.86745 4.49014 6.86658 4.4898C6.71822 4.39847 6.54038 4.35147 6.35101 4.36628C6.31023 4.36954 6.26899 4.37679 6.23018 4.38508C5.83591 4.47244 5.55897 4.82256 5.59377 5.21751C5.62327 5.55206 5.86554 5.81867 6.18453 5.90762C6.18778 5.90853 6.19186 5.90947 6.19527 5.91031C6.08133 5.97377 5.98615 6.00966 5.96433 6.00966C5.96805 6.01201 5.97258 6.01692 5.97776 6.0204C5.97908 6.021 5.98161 6.01957 5.98313 6.0204C5.98771 6.02306 5.9908 6.02808 5.99656 6.03114C5.99796 6.03192 6.00034 6.03062 6.00193 6.03114C6.00874 6.03478 6.01516 6.04052 6.02341 6.04457C6.02492 6.045 6.0276 6.04642 6.02878 6.04726C6.03602 6.05067 6.0445 6.05183 6.05295 6.05531C6.05526 6.0563 6.05582 6.05705 6.05832 6.058C6.07858 6.06599 6.10076 6.07527 6.12545 6.08216C6.12886 6.08294 6.13271 6.08387 6.13619 6.08485C6.14577 6.08735 6.15535 6.08806 6.16573 6.09022C6.16921 6.09116 6.1728 6.09211 6.17647 6.0929C6.18954 6.0954 6.20263 6.09925 6.21675 6.10096C6.21774 6.10096 6.22113 6.10027 6.22212 6.10096V6.19763C6.2175 6.19832 6.21101 6.19937 6.20601 6.20031C6.05799 6.22455 5.96216 6.27209 5.91869 6.40439C5.87537 6.53697 5.91905 6.58529 5.9885 6.67829C5.92939 6.78284 5.77741 6.82226 5.97776 7.05423C5.96352 7.14159 5.98206 7.28038 6.10934 7.32275C6.15103 7.33684 6.18573 7.34309 6.22212 7.34961V9.08697C6.09489 9.15441 6.03098 9.23956 5.99656 9.3179C5.99656 9.3179 5.75333 9.28525 5.76025 9.73412C5.87609 9.64373 5.97239 9.64282 5.97239 9.64282C5.81475 9.84711 5.92674 10.0349 5.92674 10.0349C6.06264 9.89874 6.12277 9.89792 6.12277 9.89792C6.12277 10.1395 6.22212 10.2336 6.22212 10.2336C6.22212 10.1972 6.22403 10.1641 6.23018 10.1315C6.22403 10.1641 6.22212 10.1972 6.22212 10.2336V11.5574H6.10665V11.7266V11.9226H6.30805C6.2834 11.9329 6.26118 11.9468 6.24092 11.9629C6.17117 12.016 6.12828 12.098 6.13082 12.1884V12.2046C6.14468 12.3608 6.28886 12.4785 6.45305 12.465C6.61675 12.4522 6.73778 12.3148 6.72426 12.1589C6.71468 12.0515 6.6442 11.963 6.54704 11.9226H6.73232V11.5574H6.62222V10.3813C6.64532 10.3932 6.66841 10.4029 6.69473 10.4081C6.70601 10.4107 6.71869 10.4122 6.72964 10.4135C6.73445 10.4136 6.73825 10.4133 6.74306 10.4135C6.71318 10.2591 6.80482 10.1584 6.80482 10.1584C6.85257 10.0869 6.92053 10.0312 6.99816 9.9919C7.23161 9.87486 7.55023 9.90359 7.64531 10.0939C8.24785 9.93536 8.76506 9.33133 8.76506 9.33133L9.06313 9.83347C8.4342 10.044 7.06523 11.236 8.01588 11.6487C8.01545 11.7684 7.99876 12.6586 7.4278 12.5886C6.6053 12.4868 6.39991 12.8262 6.55778 13.2088C6.48326 13.5319 6.73232 13.6439 6.73232 13.6439C6.69517 13.4577 6.78444 13.3039 7.12437 13.3055C7.12255 13.6454 7.34187 13.7083 7.34187 13.7083C7.34305 13.4168 7.54589 13.3071 7.72587 13.3082C7.72469 13.5481 8.00245 13.6412 8.00245 13.6412C8.00245 13.6412 7.93138 13.3628 8.24681 13.3082C9.04417 13.1692 8.29582 12.3504 9.50888 12.124C9.50888 12.124 8.9047 12.033 8.9047 11.7024C8.9047 11.4024 9.44984 11.1976 9.63778 11.1976C9.63795 11.198 9.64025 11.1972 9.64046 11.1976C10.0265 11.9319 10.4465 11.9385 10.5561 11.9441C10.727 12.1347 10.6687 12.7787 10.4219 12.7658C9.51833 12.7177 9.54998 13.2683 9.6512 13.3807C9.63995 13.5944 9.80694 13.7164 9.80694 13.7164C9.80694 13.4875 10.0247 13.4251 10.3037 13.4398C10.2887 13.7189 10.4675 13.7593 10.4675 13.7593C10.4717 13.4782 10.6794 13.432 10.8273 13.4398C10.817 13.6373 11.0126 13.6949 11.0126 13.6949C11.0126 13.6949 10.9939 13.4455 11.257 13.4452C11.7566 13.4452 11.031 12.3742 12.0062 11.3157C11.15 11.7122 10.6931 10.7218 10.6931 10.5316C11.1332 11.0468 12.562 11.1479 12.562 10.2685C12.562 9.55894 11.9033 9.22479 11.9578 8.94465C11.9678 8.89319 12.0009 8.84434 12.0679 8.79428C12.3196 8.60722 12.8138 8.98491 12.5325 9.37429C12.9376 9.224 13.1636 8.83053 13.04 8.50158C12.9153 8.17237 12.4857 8.0294 12.0814 8.18204C11.912 8.24596 11.7754 8.35193 11.6813 8.47742C11.948 7.71497 13.0373 7.55444 13.0373 6.84478C13.0373 5.6558 11.347 5.98865 11.5926 6.84478C11.5926 6.8319 11.5938 6.81957 11.5953 6.80718C11.5977 6.78499 11.6024 6.76521 11.6087 6.74542C11.7037 6.44866 12.2129 6.42772 12.2129 6.84478C12.2129 7.30448 11.1335 7.60648 11.1335 8.38343C11.1335 9.23956 11.9907 9.31661 11.9041 10.0993C11.8895 10.2348 11.7437 10.4135 11.5336 10.4135C11.0829 10.4135 10.8412 10.2219 10.7011 9.95163C10.4339 9.43539 10.5321 8.63045 10.2312 8.30825L10.2554 7.97527C10.5204 8.13791 11.2247 7.75787 10.7629 7.17775C10.7629 7.46334 10.1668 7.44531 10.1668 6.90654C10.1668 6.17723 10.8479 6.56036 10.881 6.72126C10.8483 6.45581 10.8363 6.28567 10.881 6.13318C10.5131 6.25137 10.4781 6.03839 10.5239 5.95596C10.5778 5.86068 10.6495 5.74919 10.7924 5.74919C10.9991 5.74919 10.9859 5.82493 10.975 5.93179C11.0539 5.81243 11.076 5.72471 11.2597 5.54511L11.257 5.41085L11.3644 5.44844L11.4664 5.28196C11.3556 5.05191 11.2045 5.16461 11.0932 4.87917C11.0009 4.85493 9.7864 4.74122 9.82843 4.16489ZM9.56259 4.60795C9.56731 4.63843 9.5774 4.66936 9.59481 4.69657C9.5774 4.66936 9.56731 4.63843 9.56259 4.60795ZM6.40203 4.95435C6.51522 4.9453 6.61525 5.02612 6.62491 5.13427C6.6343 5.24188 6.55031 5.33743 6.43694 5.3464C6.32334 5.35553 6.22311 5.27452 6.21406 5.16649C6.21156 5.13782 6.21515 5.11145 6.22481 5.08593C6.22481 5.08533 6.22455 5.08347 6.22481 5.08325C6.22591 5.07939 6.22893 5.0763 6.23018 5.0725C6.25983 5.009 6.32409 4.96066 6.40203 4.95435ZM9.15443 5.06713C9.16797 5.08974 9.17785 5.11567 9.18665 5.14232C9.17785 5.11567 9.16797 5.08974 9.15443 5.06713ZM8.36228 5.74382C8.36932 5.78554 8.38461 5.82261 8.40524 5.8566C8.38465 5.82257 8.36924 5.78559 8.36228 5.74382ZM8.80803 6.30236C8.77874 6.38164 8.73747 6.47688 8.69256 6.57357C8.73747 6.47688 8.77874 6.38163 8.80803 6.30236ZM11.8263 6.4769C11.7773 6.50315 11.7312 6.53795 11.6947 6.57894C11.7315 6.53728 11.7766 6.50345 11.8263 6.4769ZM12.3982 6.54134C12.4168 6.56185 12.4322 6.58546 12.4466 6.61116C12.4322 6.58546 12.4168 6.56185 12.3982 6.54134ZM6.62222 7.44091C6.70019 7.44841 6.90162 7.47774 7.13779 7.57517C7.14052 7.57649 7.1435 7.57631 7.14585 7.57785C7.37298 7.70736 7.36844 7.96756 7.07603 8.02898C7.26257 8.38708 7.91242 8.21299 8.05347 7.92157C8.12224 7.91543 8.18119 8.03875 8.23875 8.15519C8.14806 8.20244 7.96417 8.29476 7.56744 8.52844C7.24462 8.71845 7.02666 8.95795 6.73232 9.0628C6.68749 9.07905 6.65297 9.0833 6.62222 9.0816V7.44091ZM8.45089 7.4597C8.43765 7.49714 8.42031 7.53256 8.39718 7.56443C8.42031 7.53257 8.43765 7.49714 8.45089 7.4597ZM6.80751 9.24272C6.76975 9.25032 6.73755 9.25614 6.70815 9.25614C6.73755 9.25614 6.76975 9.25033 6.80751 9.24272ZM6.10128 9.3367C6.09305 9.34264 6.0857 9.35136 6.0798 9.35818C6.08637 9.3502 6.09159 9.3435 6.10128 9.3367ZM5.86498 9.52735C5.83524 9.56082 5.80827 9.59583 5.78979 9.63208C5.80799 9.59637 5.83581 9.56042 5.86498 9.52735ZM12.2129 10.0617C12.2144 10.0843 12.2156 10.108 12.2156 10.1315C12.2156 10.1432 12.2127 10.16 12.2103 10.1799C12.2127 10.16 12.2129 10.1432 12.2129 10.1315C12.2129 10.107 12.2145 10.0851 12.2129 10.0617H12.2129ZM12.1216 10.4135C12.1113 10.428 12.0995 10.4425 12.0867 10.4565C12.099 10.443 12.1116 10.4275 12.1216 10.4135ZM6.30536 11.9495C6.31802 11.9495 6.33102 11.9524 6.34296 11.9548C6.33102 11.9524 6.31802 11.9521 6.30536 11.9521C6.29402 11.9521 6.28379 11.9528 6.27314 11.9548C6.28379 11.9527 6.29408 11.9495 6.30536 11.9495Z" fill="#034694"/>
<path d="M10.5109 5.15961L10.6576 5.16733L10.5842 5.26798C10.5842 5.26798 10.4862 5.29896 10.5109 5.15961ZM10.1611 5.15961H10.3724C10.3724 5.15961 10.3648 5.33012 10.519 5.34538L10.4863 5.39968C10.4862 5.39968 10.0716 5.29131 10.1611 5.15961Z" fill="white"/>
<path d="M6.53218 6.61638C6.53948 6.58889 6.28317 6.43893 6.14374 6.40243C6.08501 6.38721 6.03976 6.45783 6.03245 6.4854C6.02533 6.51308 6.03014 6.59684 6.08868 6.61221C6.22822 6.64875 6.52506 6.64394 6.53218 6.61638V6.61638ZM6.51116 6.87221C6.51332 6.84623 6.25768 6.75429 6.12579 6.74441C6.07058 6.74035 6.0415 6.81177 6.03976 6.83752C6.0379 6.86376 6.05612 6.93844 6.1114 6.94234C6.24307 6.95211 6.5095 6.8986 6.51116 6.87221ZM6.22091 6.10079V6.19879C6.2584 6.23631 6.3951 6.28035 6.4107 6.28035V6.08628C6.41074 6.08632 6.30793 6.10787 6.22091 6.10079ZM6.16741 7.05681C6.12738 7.0584 6.11235 7.11149 6.11333 7.13057C6.11368 7.14943 6.13276 7.20157 6.17282 7.20002C6.26806 7.19661 6.45478 7.13667 6.45402 7.118C6.45325 7.09926 6.26268 7.05351 6.16741 7.05681ZM5.97126 9.64383C5.81362 9.84812 5.92714 10.0345 5.92714 10.0345C5.92714 9.89219 6.08944 9.70907 6.12564 9.67332C6.12564 9.67336 6.07005 9.64383 5.97126 9.64383ZM6.4742 10.0772C6.44997 10.2033 6.51268 10.326 6.62124 10.3824C6.64434 10.3944 6.66941 10.4038 6.69573 10.409C6.70701 10.4116 6.71757 10.413 6.72852 10.4142C6.73333 10.4143 6.73817 10.4144 6.74298 10.4146C6.74298 10.4146 6.58334 10.2651 6.64752 10.1238C6.60587 10.0952 6.54373 10.0772 6.4742 10.0772V10.0772ZM6.1857 5.9077C5.94664 5.79104 5.77666 5.49867 5.77666 5.15586C5.77666 4.79207 5.96777 4.48463 6.23038 4.38398C5.83611 4.47134 5.55798 4.82172 5.59278 5.21667C5.62228 5.55123 5.86671 5.81875 6.1857 5.9077ZM8.72368 5.06861C8.97739 5.02086 9.06346 5.24644 9.06346 5.32717C9.06346 5.63298 8.82527 5.7562 8.62784 5.75737V5.75754C9.54368 5.75754 9.22094 4.57148 8.72368 5.06863V5.06861ZM8.11152 7.7005C8.54923 7.7005 8.5198 7.12883 8.42514 7.03409C8.56558 6.89375 8.85458 6.2499 8.85458 6.13097C8.85458 6.13097 8.27689 6.00638 8.36913 5.60549C8.36896 5.60523 8.36896 5.60506 8.36896 5.60471L8.36124 5.60331C8.20379 5.76944 8.29951 6.11592 8.54928 6.20237C8.54928 6.20237 8.45287 6.58331 8.21492 6.82486C7.97802 6.81566 7.64597 6.78449 7.35432 6.67286C7.80516 6.91214 8.26941 7.27377 8.11154 7.70053L8.11152 7.7005ZM6.40165 4.95566C6.51484 4.94661 6.6145 5.02685 6.62416 5.13499C6.63355 5.24261 6.54926 5.33773 6.43588 5.34671C6.32228 5.35583 6.22243 5.27559 6.21338 5.16756C6.21338 5.33501 6.34932 5.4711 6.51711 5.4711C6.51961 5.4711 6.52211 5.47093 6.52464 5.47093C6.53968 5.54518 6.54483 5.6241 6.5206 5.68188C6.68445 5.53939 6.82073 5.36115 6.82073 5.16754C6.82073 4.99968 6.68445 4.86362 6.51711 4.86362C6.37738 4.86362 6.26038 4.95772 6.22459 5.08556C6.25114 5.01528 6.31831 4.96238 6.40166 4.95564L6.40165 4.95566ZM9.62725 4.73467C9.42932 4.5364 9.72185 4.16583 9.82931 4.16583C9.71177 4.16583 9.20212 4.49951 9.37514 4.73467C9.4706 4.73467 9.62725 4.73467 9.62725 4.73467ZM7.07712 8.02926C7.23411 8.07747 7.39198 8.0187 7.42875 7.89806C7.46552 7.77719 7.36756 7.64068 7.21026 7.59232C7.18856 7.58584 7.16664 7.58119 7.14505 7.57854C7.37218 7.70804 7.36953 7.96784 7.07712 8.02926ZM6.62166 6.36101C6.62166 6.36101 6.84666 6.4322 7.12347 6.55867C7.06788 6.52421 7.01574 6.48536 6.9689 6.44125C6.82837 6.30845 6.71659 6.23608 6.62166 6.19932V6.36101ZM6.70701 9.25505C7.17743 9.25505 8.80392 8.21659 8.80392 8.21659C8.40219 8.21659 8.23993 8.15445 8.23993 8.15445C8.14924 8.20171 7.96312 8.29509 7.56639 8.52876C7.24358 8.71878 7.02721 8.95904 6.73287 9.0639C6.68804 9.08014 6.65241 9.08393 6.62166 9.08222C6.55391 9.07639 6.47939 9.06719 6.4107 9.0631V7.5696C6.4107 7.41298 6.29635 7.35001 6.22091 7.35001V9.08806C6.09368 9.1555 6.03109 9.2393 5.99667 9.31764C5.99667 9.31764 5.75413 9.2853 5.76106 9.73418C5.76106 9.61512 5.93771 9.40693 6.06021 9.40693C6.06021 9.25505 6.50601 9.25505 6.70701 9.25505ZM10.7641 11.6594C10.645 11.6594 10.0983 11.6825 10.0492 11.2063C9.92833 11.1804 9.78728 11.1752 9.63914 11.1962C10.0256 11.9339 10.4452 11.9398 10.555 11.9454C10.7258 12.136 10.6686 12.7796 10.4218 12.7666C9.51824 12.7185 9.55137 13.2682 9.65259 13.3806C9.65259 12.9661 9.93435 12.8679 10.6461 12.8679C10.6462 12.8679 11.228 12.1233 10.7641 11.6594ZM10.9499 13.4392H10.8276C10.8173 13.6367 11.0128 13.6948 11.0128 13.6948C10.9499 13.6321 10.9042 13.4854 10.9499 13.4392ZM9.80659 13.7173C9.7546 13.6652 9.71177 13.4566 9.78728 13.3806H9.65255C9.6413 13.5943 9.80659 13.7173 9.80659 13.7173ZM12.5037 6.85456C12.5037 6.22355 11.6383 6.32268 11.5956 6.80723C11.6338 6.45208 12.212 6.39967 12.212 6.84453C12.212 7.30423 11.1336 7.60538 11.1336 8.38233C11.1336 9.23846 11.9897 9.31768 11.9031 10.1004C11.8884 10.2359 11.7432 10.4129 11.5331 10.4129C11.0824 10.4129 10.8412 10.2217 10.7012 9.95138C10.8444 10.334 11.0965 10.6273 11.6212 10.6273C12.1649 10.6273 12.2142 10.2255 12.2142 10.1322C12.2142 9.3485 11.3957 9.1622 11.3957 8.41744C11.3958 7.69225 12.5037 7.39352 12.5037 6.85456ZM6.12235 9.89893C6.12235 10.1406 6.22091 10.2343 6.22091 10.2343C6.22091 10.0886 6.28078 9.96547 6.31501 9.9315C6.26442 9.88057 6.12235 9.89893 6.12235 9.89893ZM12.3755 8.56341C12.1558 8.56341 11.9759 8.7315 11.957 8.94594C11.967 8.89448 12.0013 8.84446 12.0683 8.7944C12.32 8.60734 12.8132 8.98411 12.5319 9.3735C12.6865 9.31139 12.7951 9.16049 12.7951 8.98366C12.7952 8.75176 12.6073 8.56341 12.3755 8.56341ZM10.4503 13.4392H10.3036C10.2886 13.7183 10.4672 13.7603 10.4672 13.7603C10.3914 13.6848 10.3788 13.5107 10.4503 13.4392ZM6.30521 11.9508C6.28252 11.9508 6.26136 11.9555 6.24117 11.9632C6.17142 12.0163 6.1289 12.0987 6.13143 12.1892C6.15469 12.2636 6.22322 12.3174 6.30521 12.3174C6.40646 12.3174 6.48844 12.2354 6.48844 12.1342C6.48844 12.0328 6.40646 11.9508 6.30521 11.9508ZM7.33598 13.306H7.12388C7.12206 13.646 7.34192 13.7076 7.34192 13.7076C7.27993 13.6452 7.20125 13.4407 7.33598 13.306H7.33598ZM7.99368 11.1564C7.99368 10.3789 9.85582 10.2876 9.85582 9.64704C9.85582 9.38618 9.63062 9.26838 9.47052 9.26838C9.51585 9.31378 9.75805 9.8346 9.06255 9.8346C8.43362 10.0451 7.06405 11.2356 8.0147 11.6483C8.01427 11.768 7.99815 12.6589 7.4272 12.5889C6.60469 12.4871 6.39949 12.8271 6.55736 13.2097C6.55736 12.6292 6.96507 12.737 7.49751 12.737C7.83048 12.737 8.31725 12.3159 8.31725 11.607C8.31725 11.607 7.99368 11.4828 7.99368 11.1564ZM6.41074 11.6329V10.0716C6.3052 10.0716 6.22095 10.2344 6.22095 10.2344V11.5664V11.5578L6.10561 11.5582L6.1066 11.7263C6.19532 11.7263 6.41074 11.6805 6.41074 11.6329L6.41074 11.6329ZM6.73124 13.6447C6.73124 13.6447 6.56664 13.386 6.74302 13.2097H6.5574C6.48288 13.5328 6.73124 13.6447 6.73124 13.6447ZM7.87917 13.3094C7.87917 13.3094 7.79053 13.3094 7.72525 13.3094C7.72407 13.5493 8.00281 13.6402 8.00281 13.6402C7.90458 13.5424 7.83729 13.3507 7.87917 13.3094Z" fill="#6A7AB5"/>
<path d="M2.70119 10.7174L2.69093 10.6859L2.68654 10.6531C2.6715 10.5408 2.64435 10.3317 2.48289 10.2943C2.43972 10.2842 2.39511 10.2894 2.34752 10.3089C2.36047 10.2593 2.35895 10.2143 2.34335 10.173C2.28382 10.0182 2.07309 10.0202 1.95987 10.0217H1.92659L1.89379 10.0156C1.78258 9.99515 1.57511 9.95641 1.48998 10.0985C1.46711 10.1364 1.45802 10.1804 1.46192 10.2315C1.41883 10.2037 1.3754 10.1913 1.33159 10.1934C1.16588 10.2022 1.10253 10.4033 1.06864 10.5115L1.0583 10.5429L1.04293 10.5721C0.988628 10.6718 0.887939 10.8567 0.996693 10.9818C1.02574 11.0153 1.06482 11.0377 1.11472 11.0495C1.07527 11.0822 1.04978 11.1196 1.03865 11.1623C0.995368 11.3222 1.16721 11.4445 1.25922 11.51L1.28622 11.5299L1.30947 11.5534C1.38744 11.6359 1.53232 11.7886 1.68488 11.724C1.72525 11.7066 1.75872 11.6765 1.78553 11.6327C1.80462 11.6804 1.83207 11.7158 1.86907 11.7402C2.00804 11.8302 2.17727 11.7048 2.2683 11.6378L2.29522 11.6181L2.3251 11.6035C2.42734 11.5545 2.61781 11.4641 2.60342 11.299C2.59959 11.2547 2.58108 11.214 2.54794 11.175C2.59895 11.172 2.64113 11.1566 2.67536 11.1288C2.80441 11.0246 2.73724 10.8248 2.70119 10.7174" fill="white"/>
<path d="M1.97461 10.8513C2.90166 11.3992 2.61615 10.7967 2.59578 10.7076C2.57525 10.6188 2.56745 9.95227 1.97461 10.8513Z" fill="#ED1C24"/>
<path d="M1.91706 10.9884C1.68244 12.039 2.16725 11.5817 2.24545 11.5351C2.3236 11.4881 2.95507 11.2745 1.91706 10.9884Z" fill="#ED1C24"/>
<path d="M1.76776 10.9757C0.695677 11.0769 1.28083 11.3968 1.34956 11.4565C1.41848 11.5161 1.81634 12.051 1.76776 10.9757Z" fill="#ED1C24"/>
<path d="M1.73373 10.8298C1.30583 9.84168 1.18243 10.4969 1.14679 10.5811C1.11116 10.6646 0.725412 11.2086 1.73373 10.8298Z" fill="#ED1C24"/>
<path d="M17.0468 10.5721L17.0315 10.5429L17.021 10.5115C16.9871 10.4033 16.9238 10.2022 16.7585 10.1934C16.7142 10.1913 16.671 10.2036 16.6279 10.2312C16.6318 10.1803 16.6222 10.1364 16.6 10.0985C16.5145 9.95632 16.3073 9.99509 16.1961 10.0156L16.1629 10.0216H16.1298C16.017 10.0202 15.8061 10.0182 15.7468 10.173C15.7307 10.2142 15.7295 10.2593 15.7421 10.3089C15.6952 10.2894 15.6506 10.2843 15.6071 10.2942C15.4458 10.3316 15.4181 10.5408 15.4038 10.653L15.3988 10.6859L15.3888 10.7174C15.3526 10.8248 15.2856 11.0245 15.4147 11.1289C15.4489 11.1566 15.4908 11.1721 15.5421 11.1751C15.5089 11.2141 15.4905 11.2548 15.4866 11.299C15.4723 11.4642 15.6625 11.5546 15.7649 11.6035L15.7945 11.6182L15.8214 11.6379C15.9128 11.7049 16.0821 11.8303 16.2207 11.7403C16.2581 11.7159 16.2854 11.6805 16.3042 11.6328C16.3312 11.6765 16.3644 11.7066 16.4051 11.724C16.5576 11.7886 16.7026 11.636 16.7805 11.5535L16.8039 11.53L16.8306 11.51C16.9229 11.4446 17.0946 11.3222 17.0515 11.1624C17.0399 11.1195 17.0149 11.0822 16.9752 11.0496C17.0249 11.0377 17.0641 11.0153 17.093 10.9819C17.202 10.8567 17.1014 10.6719 17.0468 10.5721" fill="white"/>
<path d="M16.2276 10.7531C15.4203 10.0409 16.0813 10.1259 16.1722 10.1179C16.2627 10.1103 16.8993 9.91152 16.2276 10.7531Z" fill="#ED1C24"/>
<path d="M16.1151 10.8513C15.1881 11.3992 15.473 10.7967 15.4938 10.7076C15.5142 10.6188 15.5219 9.95227 16.1151 10.8513Z" fill="#ED1C24"/>
<path d="M16.1728 10.9884C16.4075 12.039 15.9227 11.5817 15.8443 11.5351C15.7663 11.4881 15.135 11.2745 16.1728 10.9884Z" fill="#ED1C24"/>
<path d="M16.3215 10.9757C17.3936 11.0769 16.8089 11.3968 16.7399 11.4565C16.6714 11.5161 16.2729 12.051 16.3215 10.9757Z" fill="#ED1C24"/>
<path d="M16.3552 10.8298C16.7834 9.84168 16.9065 10.4969 16.9423 10.5811C16.9778 10.6646 17.3635 11.2086 16.3552 10.8298Z" fill="#ED1C24"/>
<path d="M16.5636 10.8606C16.5626 10.852 16.5598 10.8443 16.5587 10.836C16.6447 10.7728 16.7377 10.705 16.7377 10.705L16.7288 10.685C16.7288 10.685 16.6203 10.7039 16.5162 10.7221C16.464 10.6365 16.375 10.5784 16.2731 10.5685C16.2407 10.4712 16.2084 10.3721 16.2084 10.3721L16.1865 10.3739C16.1865 10.3739 16.1719 10.4772 16.1571 10.5784C16.0945 10.5953 16.0383 10.6308 15.9955 10.6815C15.9727 10.7089 15.9562 10.7398 15.9431 10.7721C15.8383 10.7721 15.7276 10.7724 15.7276 10.7724L15.7229 10.794C15.7229 10.794 15.8262 10.8443 15.9215 10.891C15.9219 10.8997 15.9208 10.9083 15.9215 10.9171C15.9289 11.0012 15.9682 11.0766 16.0317 11.1316C15.9982 11.2363 15.9604 11.3534 15.9604 11.3534L15.9789 11.3646C15.9789 11.3646 16.0659 11.2745 16.1433 11.195C16.1838 11.2083 16.2268 11.2135 16.2703 11.2096C16.3142 11.2063 16.3558 11.1931 16.3935 11.1736C16.4833 11.2382 16.5845 11.3114 16.5845 11.3114L16.6011 11.2972C16.6011 11.2972 16.5437 11.1887 16.4925 11.0915C16.5456 11.026 16.5706 10.9444 16.5636 10.8606" fill="white"/>
<path d="M16.2257 10.6994C16.1749 10.7033 16.1291 10.7273 16.0964 10.7666C16.0637 10.8055 16.0479 10.8547 16.0526 10.9052C16.0614 11.0099 16.1541 11.0877 16.2585 11.0785C16.3097 11.0738 16.3551 11.0499 16.3882 11.0112C16.4206 10.9719 16.4363 10.923 16.4321 10.8721C16.4229 10.7674 16.3301 10.6899 16.2257 10.6994Z" fill="#ED1C24"/>
<path d="M1.86232 10.7531C2.66991 10.0409 2.00849 10.1259 1.91787 10.1179C1.82696 10.1103 1.19042 9.91152 1.86232 10.7531Z" fill="#ED1C24"/>
<path d="M2.1683 10.8911C2.26437 10.8444 2.36714 10.794 2.36714 10.794L2.36233 10.7724C2.36233 10.7724 2.2518 10.7721 2.14672 10.7721C2.13399 10.7398 2.11744 10.7088 2.09454 10.6815C2.05182 10.6308 1.99563 10.5954 1.93284 10.5784C1.91846 10.4771 1.9038 10.374 1.9038 10.374L1.88161 10.3721C1.88161 10.3721 1.84946 10.4712 1.81758 10.5686C1.715 10.5785 1.62586 10.6365 1.57372 10.7221C1.47007 10.704 1.36094 10.685 1.36094 10.685L1.35254 10.7051C1.35254 10.7051 1.44531 10.7728 1.53135 10.836C1.52995 10.8444 1.52745 10.8521 1.52653 10.8606C1.51942 10.9449 1.54498 11.0261 1.59795 11.0916C1.54638 11.1886 1.48897 11.2972 1.48897 11.2972L1.50597 11.3115C1.50597 11.3115 1.60704 11.2382 1.69675 11.1736C1.73446 11.1933 1.776 11.2059 1.81974 11.2096C1.86359 11.2136 1.90653 11.2083 1.94697 11.195C2.02418 11.2745 2.11105 11.3646 2.11105 11.3646L2.13009 11.3534C2.13009 11.3534 2.0923 11.2363 2.0586 11.1319C2.12195 11.0765 2.16126 11.0011 2.16872 10.9171C2.16963 10.9084 2.16829 10.8998 2.16829 10.8911" fill="white"/>
<path d="M1.99354 10.7666C1.96075 10.7273 1.91519 10.7032 1.86415 10.6994C1.75983 10.6899 1.66702 10.7674 1.65793 10.8721C1.65361 10.923 1.66933 10.9719 1.7017 11.0112C1.73442 11.05 1.78043 11.0739 1.83121 11.0785C1.93553 11.0878 2.0283 11.0099 2.03735 10.9053C2.04163 10.8547 2.02603 10.8055 1.99354 10.7666Z" fill="#ED1C24"/>
<path d="M1.97988 6.27301C1.52855 6.19331 1.09637 6.49628 1.01663 6.94761C0.936992 7.39925 1.23962 7.83138 1.691 7.91109C2.14275 7.99076 2.57511 7.68794 2.65459 7.23638C2.73449 6.78497 2.43167 6.35284 1.97988 6.27301Z" fill="white"/>
<path d="M2.16888 6.90204C2.16158 6.89757 2.14885 6.88932 2.13344 6.87913C2.06524 6.83392 1.93153 6.7455 1.92786 6.74285C1.90934 6.73013 1.89132 6.71801 1.87356 6.70604C1.81411 6.66621 1.76094 6.63156 1.71096 6.6027C1.69169 6.59176 1.67306 6.58154 1.65431 6.57237C1.57483 6.53227 1.49864 6.50804 1.40871 6.50012C1.33937 6.55018 1.2792 6.61217 1.23047 6.68381C1.43726 6.75849 1.63917 6.87807 2.05956 7.1392C2.08361 7.08361 2.16407 6.91245 2.16888 6.90204Z" fill="#ED1C24"/>
<path d="M1.97482 7.34782C1.98323 7.32688 2.02019 7.23335 2.0353 7.19734C1.60449 6.92973 1.40444 6.81132 1.19719 6.73805C1.16504 6.79576 1.14096 6.85873 1.12524 6.92576C1.24354 7.08817 1.56056 7.24774 1.97482 7.34782Z" fill="#ED1C24"/>
<path d="M1.9278 6.66776C2.08911 6.57233 2.27238 6.59831 2.41385 6.64659C2.36111 6.57847 2.29722 6.51894 2.22293 6.47259C2.0893 6.44601 1.90474 6.44184 1.75781 6.55862C1.81124 6.59002 1.86641 6.62663 1.9278 6.66776Z" fill="#ED1C24"/>
<path d="M1.28436 7.43852C1.30595 7.45333 1.32806 7.46741 1.35158 7.48063C1.39906 7.50687 1.45048 7.52955 1.50361 7.54898C1.52614 7.5575 1.54905 7.56541 1.57215 7.57287C1.65296 7.59945 1.83839 7.64762 1.85221 7.65084C1.85506 7.64372 1.92454 7.47188 1.95089 7.4066C1.62971 7.32693 1.278 7.1875 1.1109 7.0062C1.10086 7.08992 1.10476 7.17273 1.12244 7.25127C1.1577 7.32806 1.21431 7.38925 1.28436 7.43852Z" fill="#ED1C24"/>
<path d="M1.86268 7.718L1.79566 7.70073C1.73352 7.68494 1.66616 7.66726 1.59766 7.64624C1.63105 7.71743 1.68361 7.7729 1.73966 7.81584C1.81475 7.8258 1.88885 7.82391 1.96008 7.8116C1.90862 7.77158 1.86268 7.71799 1.86268 7.71799" fill="#ED1C24"/>
<path d="M2.53496 6.88001C2.5197 6.83014 2.49967 6.78182 2.47449 6.7368C2.34786 6.68034 2.155 6.62517 1.98657 6.70757L2.21888 6.86096C2.26732 6.85665 2.31189 6.85532 2.35267 6.8563C2.37493 6.85665 2.39561 6.85786 2.41538 6.85978C2.46085 6.8638 2.49967 6.87111 2.53496 6.88001" fill="#ED1C24"/>
<path d="M2.41584 6.92244C2.40906 7.30421 2.22908 7.59866 2.07397 7.78289C2.31674 7.69852 2.50819 7.4893 2.55594 7.21905C2.5723 7.12669 2.56942 7.03585 2.55231 6.9494C2.51459 6.93766 2.46949 6.92785 2.41584 6.92244" fill="#ED1C24"/>
<path d="M1.69969 6.52632C1.80841 6.43048 1.93681 6.39811 2.05522 6.39546C2.02516 6.38584 1.99452 6.37754 1.9626 6.37213C1.79375 6.34233 1.62858 6.37372 1.48828 6.44972C1.56299 6.46434 1.63051 6.49054 1.69969 6.52632Z" fill="#ED1C24"/>
<path d="M2.22719 6.92283C2.17194 7.03791 2.13945 7.10838 2.11249 7.17249C2.10419 7.19191 2.09613 7.21077 2.08799 7.23039C2.07511 7.26254 2.03543 7.36247 2.03543 7.36247L2.01176 7.42112L1.90918 7.67525C1.93747 7.71277 1.97174 7.74337 2.00544 7.76726C2.15785 7.59342 2.34753 7.30124 2.35332 6.91878C2.31496 6.91742 2.27278 6.91882 2.22719 6.92283" fill="#ED1C24"/>
<path d="M1.52158 7.62092C1.47042 7.60331 1.41934 7.58324 1.37109 7.55972C1.38912 7.61539 1.41509 7.6648 1.44126 7.70721C1.49598 7.74232 1.55603 7.77 1.62014 7.78976C1.5786 7.74296 1.54274 7.6876 1.52158 7.62092Z" fill="#ED1C24"/>
<path d="M1.29507 7.51861C1.26038 7.49782 1.22812 7.47469 1.19824 7.44928C1.23206 7.50975 1.27466 7.56519 1.32407 7.61381C1.31234 7.58348 1.30204 7.55209 1.29507 7.51861Z" fill="#ED1C24"/>
<path d="M15.3447 7.2364C15.4245 7.68796 15.8565 7.99078 16.308 7.91111C16.7596 7.83144 17.0622 7.39926 16.9829 6.94763C16.9032 6.49629 16.4709 6.19332 16.0193 6.27303C15.5677 6.35282 15.2651 6.78495 15.3447 7.2364Z" fill="white"/>
<path d="M15.8311 6.90206C15.8382 6.89759 15.851 6.88933 15.8668 6.87915C15.935 6.83393 16.0685 6.74551 16.0719 6.74286C16.0909 6.73014 16.1089 6.71802 16.1266 6.70606C16.1854 6.66622 16.2391 6.63157 16.2891 6.60272C16.3084 6.59178 16.3272 6.58155 16.3456 6.57239C16.4249 6.53229 16.5015 6.50805 16.5913 6.50014C16.6606 6.5502 16.721 6.61219 16.7691 6.68383C16.5625 6.7585 16.3612 6.87809 15.9402 7.13922C15.9161 7.08363 15.836 6.91247 15.8311 6.90206Z" fill="#ED1C24"/>
<path d="M16.0249 7.34782C16.0164 7.32688 15.9791 7.23335 15.9648 7.19734C16.3948 6.92973 16.5955 6.81132 16.8026 6.73805C16.8345 6.79576 16.8588 6.85873 16.8745 6.92576C16.756 7.08817 16.4391 7.24774 16.0249 7.34782Z" fill="#ED1C24"/>
<path d="M16.0712 6.66776C15.9098 6.57233 15.7267 6.59831 15.585 6.64659C15.6378 6.57847 15.702 6.51894 15.7763 6.47259C15.9098 6.44601 16.0942 6.44184 16.241 6.55862C16.188 6.59002 16.1324 6.62663 16.0712 6.66776Z" fill="#ED1C24"/>
<path d="M16.7149 7.43852C16.6938 7.45333 16.6718 7.46741 16.6478 7.48063C16.6006 7.50687 16.5492 7.52955 16.4962 7.54898C16.4735 7.5575 16.4504 7.56541 16.4274 7.57287C16.347 7.59945 16.1614 7.64762 16.1474 7.65084C16.1443 7.64372 16.0747 7.47188 16.0488 7.4066C16.3699 7.32693 16.7213 7.1875 16.8889 7.0062C16.8989 7.08992 16.8946 7.17273 16.8772 7.25127C16.8419 7.32806 16.7854 7.38925 16.7149 7.43852Z" fill="#ED1C24"/>
<path d="M16.1371 7.718L16.2037 7.70073C16.266 7.68494 16.3338 7.66726 16.4023 7.64624C16.3685 7.71743 16.3161 7.7729 16.2602 7.81584C16.1852 7.8258 16.1109 7.82391 16.04 7.8116C16.0909 7.77158 16.1371 7.71799 16.1371 7.71799" fill="#ED1C24"/>
<path d="M15.4648 6.88001C15.4802 6.83014 15.4999 6.78182 15.5257 6.7368C15.6519 6.68034 15.8444 6.62517 16.0129 6.70757L15.7808 6.86096C15.7323 6.85665 15.6878 6.85532 15.6469 6.8563C15.6249 6.85665 15.6042 6.85786 15.5841 6.85978C15.5387 6.8638 15.5003 6.87111 15.4648 6.88001" fill="#ED1C24"/>
<path d="M15.5838 6.92244C15.5904 7.30421 15.7709 7.59866 15.9261 7.78289C15.6827 7.69852 15.491 7.4893 15.4438 7.21905C15.4276 7.12669 15.4299 7.03585 15.4476 6.9494C15.485 6.93766 15.5304 6.92785 15.5839 6.92244" fill="#ED1C24"/>
<path d="M16.2998 6.52631C16.191 6.43047 16.0623 6.39809 15.9441 6.39544C15.974 6.38582 16.0045 6.37753 16.0368 6.37211C16.2054 6.34231 16.3706 6.3737 16.5108 6.4497C16.4364 6.46432 16.3688 6.49052 16.2998 6.52631Z" fill="#ED1C24"/>
<path d="M15.7724 6.92283C15.8278 7.03791 15.8597 7.10838 15.8876 7.17249C15.8956 7.19191 15.9033 7.21077 15.9114 7.23039C15.9245 7.26254 15.9641 7.36247 15.9641 7.36247L15.9877 7.42112L16.0905 7.67525C16.062 7.71277 16.028 7.74337 15.9942 7.76726C15.8418 7.59342 15.6518 7.30124 15.6465 6.91878C15.6847 6.91742 15.727 6.91882 15.7724 6.92283" fill="#ED1C24"/>
<path d="M16.4786 7.62092C16.5298 7.60331 16.5805 7.58324 16.6292 7.55972C16.6107 7.61539 16.5852 7.6648 16.5587 7.70721C16.504 7.74232 16.444 7.77 16.3801 7.78976C16.4216 7.74296 16.4574 7.6876 16.4786 7.62092Z" fill="#ED1C24"/>
<path d="M16.705 7.51861C16.7392 7.49782 16.7715 7.47469 16.8016 7.44928C16.7677 7.50975 16.7254 7.56519 16.6758 7.61381C16.6873 7.58348 16.6977 7.55209 16.705 7.51861Z" fill="#ED1C24"/>
</svg>
