<svg width="50" height="50" viewBox="0 0 50 50" fill="none" xmlns="http://www.w3.org/2000/svg">
<path d="M25 0C11.1937 0 0 11.1937 0 25C0 38.8063 11.1937 50 25 50C38.8063 50 50 38.8063 50 25C50 11.1937 38.8063 0 25 0ZM37.2625 14.8906L33.6312 20.7094L31.2094 24.5906C31.2188 24.7281 31.25 24.8594 31.25 25C31.25 28.4531 28.4531 31.25 25 31.25C24.8594 31.25 24.7281 31.2188 24.5906 31.2094L20.7062 33.6312L14.8906 37.2625C14.5905 37.4486 14.2364 37.5283 13.8855 37.4886C13.5346 37.4489 13.2072 37.2922 12.9562 37.0438C12.706 36.7944 12.5481 36.4674 12.5083 36.1165C12.4686 35.7655 12.5494 35.4115 12.7375 35.1125L16.3687 29.2937L18.7906 25.4125C18.7812 25.2719 18.75 25.1406 18.75 25C18.75 21.5469 21.5469 18.75 25 18.75C25.1406 18.75 25.2719 18.7812 25.4094 18.7906L29.2937 16.3687L35.1094 12.7375C35.409 12.5509 35.763 12.4712 36.1137 12.5115C36.4644 12.5518 36.7911 12.7097 37.0406 12.9594C37.5594 13.4719 37.65 14.2719 37.2625 14.8906ZM21.875 25C21.875 25.4104 21.9558 25.8167 22.1129 26.1959C22.2699 26.575 22.5001 26.9195 22.7903 27.2097C23.0805 27.4999 23.425 27.7301 23.8041 27.8871C24.1833 28.0442 24.5896 28.125 25 28.125C25.8288 28.125 26.6237 27.7958 27.2097 27.2097C27.4999 26.9195 27.7301 26.575 27.8871 26.1959C28.0442 25.8167 28.125 25.4104 28.125 25C28.125 24.1712 27.7958 23.3763 27.2097 22.7903C26.6237 22.2042 25.8288 21.875 25 21.875C24.1712 21.875 23.3763 22.2042 22.7903 22.7903C22.2042 23.3763 21.875 24.1712 21.875 25Z" fill="white"/>
</svg>
