<svg width="32" height="32" viewBox="0 0 32 32" fill="none" xmlns="http://www.w3.org/2000/svg">
<path d="M27.0671 16.9333C26.6671 16.4 26.6671 15.7333 27.0671 15.2L28.8005 13.3333C29.2005 12.9333 29.2005 12.2667 28.9338 11.7333L26.2671 7.06666C26.0005 6.53332 25.4671 6.26666 24.8005 6.39999L22.2671 6.93332C21.6005 7.06666 20.9338 6.66666 20.8005 5.99999L20.0005 3.59999C19.7338 3.06666 19.2005 2.66666 18.6671 2.66666H13.3338C12.8005 2.66666 12.2671 3.06666 12.1338 3.59999L11.2005 5.99999C11.0671 6.66666 10.4005 7.06666 9.73381 6.93332L7.20048 6.39999C6.66714 6.26666 6.13381 6.53332 5.73381 7.06666L3.06714 11.7333C2.80047 12.1333 2.93381 12.8 3.33381 13.2L5.06714 15.0667C5.46714 15.6 5.46714 16.2667 5.06714 16.8L3.33381 18.6667C2.93381 19.0667 2.93381 19.7333 3.20048 20.2667L5.86714 24.9333C6.13381 25.4667 6.66714 25.7333 7.33381 25.6L9.86714 25.0667C10.5338 24.9333 11.2005 25.3333 11.3338 26L12.1338 28.4C12.2671 28.9333 12.8005 29.3333 13.3338 29.3333H18.6671C19.2005 29.3333 19.7338 28.9333 19.8671 28.4L20.6671 26C20.9338 25.3333 21.6005 24.9333 22.1338 25.0667L24.6671 25.6C25.2005 25.7333 25.8671 25.4667 26.1338 24.9333L28.8005 20.2667C29.0671 19.7333 29.0671 19.2 28.6671 18.6667L27.0671 16.9333ZM16.0005 20C13.7338 20 12.0005 18.2667 12.0005 16C12.0005 13.7333 13.7338 12 16.0005 12C18.2671 12 20.0005 13.7333 20.0005 16C20.0005 18.2667 18.2671 20 16.0005 20Z" fill="#BAC1CE"/>
</svg>
