<svg width="20" height="20" viewBox="0 0 20 20" fill="none" xmlns="http://www.w3.org/2000/svg">
<path d="M16.9502 7.76658L5.28354 1.93325C4.82312 1.70409 4.30322 1.62251 3.79473 1.69962C3.28625 1.77674 2.81392 2.00881 2.44215 2.36418C2.07038 2.71955 1.81725 3.18093 1.71728 3.68542C1.61732 4.18991 1.67537 4.71296 1.88354 5.18325L3.88354 9.65825C3.92892 9.76644 3.95229 9.88259 3.95229 9.99991C3.95229 10.1172 3.92892 10.2334 3.88354 10.3416L1.88354 14.8166C1.71412 15.1972 1.6425 15.6141 1.67519 16.0294C1.70787 16.4447 1.84382 16.8453 2.07069 17.1947C2.29756 17.5441 2.60814 17.8313 2.97423 18.0301C3.34031 18.2289 3.75027 18.3331 4.16687 18.3332C4.55707 18.3294 4.94145 18.2382 5.29187 18.0666L16.9585 12.2332C17.3724 12.0251 17.7202 11.706 17.9633 11.3116C18.2063 10.9173 18.3351 10.4632 18.3351 9.99991C18.3351 9.53667 18.2063 9.08254 17.9633 8.68818C17.7202 8.29383 17.3724 7.97476 16.9585 7.76658H16.9502ZM16.2085 10.7416L4.54187 16.5749C4.38867 16.6485 4.21665 16.6734 4.04886 16.6465C3.88107 16.6195 3.72555 16.5418 3.60313 16.424C3.48072 16.3061 3.39727 16.1536 3.36398 15.9869C3.33069 15.8203 3.34915 15.6474 3.41687 15.4916L5.40854 11.0166C5.43432 10.9568 5.45658 10.8956 5.47521 10.8332H11.2169C11.4379 10.8332 11.6498 10.7455 11.8061 10.5892C11.9624 10.4329 12.0502 10.2209 12.0502 9.99991C12.0502 9.7789 11.9624 9.56694 11.8061 9.41066C11.6498 9.25438 11.4379 9.16658 11.2169 9.16658H5.47521C5.45658 9.10422 5.43432 9.043 5.40854 8.98325L3.41687 4.50825C3.34915 4.35238 3.33069 4.17954 3.36398 4.01289C3.39727 3.84624 3.48072 3.69375 3.60313 3.57587C3.72555 3.45799 3.88107 3.38036 4.04886 3.35337C4.21665 3.32639 4.38867 3.35135 4.54187 3.42491L16.2085 9.25825C16.345 9.32818 16.4596 9.43442 16.5396 9.56528C16.6196 9.69614 16.6619 9.84654 16.6619 9.99991C16.6619 10.1533 16.6196 10.3037 16.5396 10.4345C16.4596 10.5654 16.345 10.6716 16.2085 10.7416Z" fill="#0061FF"/>
</svg>
