<svg width="46" height="46" viewBox="0 0 46 46" fill="none" xmlns="http://www.w3.org/2000/svg">
<rect width="46" height="46" rx="5" fill="#2E2E2E"/>
<g clip-path="url(#clip0_521_3429)">
<path d="M14.1278 16.8033C12.8928 18.5583 12.167 20.6925 12.167 23C12.167 25.3075 12.8928 27.4417 14.1278 29.1967C16.7495 28.3625 18.667 25.9033 18.667 23C18.667 20.0967 16.7495 17.6375 14.1278 16.8033Z" fill="white" fill-opacity="0.5"/>
<path d="M31.8732 16.8033C29.2515 17.6375 27.334 20.0967 27.334 23C27.334 25.9033 29.2515 28.3625 31.8732 29.1967C33.1082 27.4417 33.834 25.3075 33.834 23C33.834 20.6925 33.1082 18.5583 31.8732 16.8033Z" fill="white" fill-opacity="0.5"/>
<path d="M25.167 23C25.167 19.4467 27.3012 16.4025 30.3562 15.0592C28.4279 13.2717 25.8495 12.1667 23.0004 12.1667C20.1512 12.1667 17.5729 13.2717 15.6445 15.0592C18.6995 16.4025 20.8337 19.4467 20.8337 23C20.8337 26.5534 18.6995 29.5975 15.6445 30.9409C17.5729 32.7284 20.1512 33.8334 23.0004 33.8334C25.8495 33.8334 28.4279 32.7284 30.3562 30.9409C27.3012 29.5975 25.167 26.5534 25.167 23Z" fill="white" fill-opacity="0.5"/>
</g>
<defs>
<clipPath id="clip0_521_3429">
<rect width="26" height="26" fill="white" transform="translate(10 10)"/>
</clipPath>
</defs>
</svg>
