<svg width="18" height="18" viewBox="0 0 18 18" fill="none" xmlns="http://www.w3.org/2000/svg">
<g clip-path="url(#clip0_521_4897)">
<path d="M17.7518 8.99993C17.7518 13.8336 13.8337 17.7518 9.00017 17.7518C4.16669 17.7518 0.248291 13.8336 0.248291 8.99993C0.248291 4.16645 4.16669 0.24826 9.00017 0.24826C13.8337 0.248196 17.7518 4.16645 17.7518 8.99993Z" fill="white" stroke="#0053A0" stroke-width="0.627368"/>
<path fill-rule="evenodd" clip-rule="evenodd" d="M0.907006 9.10336C0.850455 4.63484 4.42837 0.965099 8.8971 0.908441C13.3656 0.851868 17.0354 4.43002 17.092 8.89854C17.1485 13.3671 13.5704 17.0368 9.10193 17.0932C4.63341 17.1499 0.963664 13.5719 0.907006 9.10336H0.906985H0.907006ZM8.89582 0.807525C4.3715 0.864803 0.748791 4.58032 0.80609 9.10464C0.863411 13.629 4.57889 17.2515 9.10321 17.1944C13.6275 17.1371 17.25 13.4216 17.1929 8.89725C17.1356 4.37293 13.4201 0.750225 8.89582 0.807525Z" fill="#0053A0"/>
<path fill-rule="evenodd" clip-rule="evenodd" d="M8.70281 3.62187C7.70925 3.61952 6.55492 4.01334 5.77903 4.65561C5.77646 4.65732 5.77646 4.66417 5.78181 4.66694C6.22545 4.84291 6.52969 5.07638 7.00391 5.34193C7.02102 5.35133 7.027 5.34727 7.03064 5.33188C7.26005 4.16664 8.68249 4.48991 8.81527 3.64025C8.80949 3.63448 8.81035 3.62401 8.79816 3.62336C8.76673 3.62251 8.73466 3.62208 8.70281 3.62187ZM9.2944 3.62336C9.28457 3.62336 9.28136 3.62743 9.28179 3.64303C9.22214 3.7927 9.39746 3.94856 9.49966 4.04948C9.50949 4.05867 9.52574 4.06936 9.53793 4.07471C10.1729 4.3332 10.8757 4.52412 11.0296 5.25448C11.0328 5.26581 11.035 5.27308 11.0467 5.26303C11.3852 5.03854 11.7209 4.81084 12.0634 4.59489C12.0809 4.58762 12.0745 4.5795 12.0634 4.57244C11.2894 4.02211 10.3224 3.66399 9.2944 3.62336ZM5.33453 5.0255C4.71533 5.57455 4.18402 6.29272 3.90732 7.09961C3.90422 7.10753 3.90894 7.11116 3.91997 7.11223C4.5259 7.16696 4.72388 6.37674 5.18828 6.08297C5.19448 6.07934 5.20004 6.07613 5.19962 6.06865C5.16669 5.7086 5.15087 5.40521 5.33453 5.0255ZM12.8089 5.19825C12.8431 5.47769 12.817 5.74281 12.7429 6.00109C12.7397 6.01327 12.7401 6.02268 12.754 6.03209C13.2017 6.27155 13.4444 6.9709 13.9618 6.99827C13.9682 7.00105 13.978 7.00148 13.9744 6.99293C13.7948 6.36883 13.2782 5.63035 12.8089 5.19825ZM14.1405 7.40193C13.5055 8.03864 14.536 9.10553 13.138 9.70098C13.0146 9.73732 12.8962 9.78051 12.7846 9.78094C12.4737 9.78244 12.0313 9.54533 12.0341 10.0172C12.0341 10.0257 12.0418 10.0317 12.0521 10.0358C12.4839 10.2207 13.0676 10.6216 13.077 11.2395C13.0982 11.9761 12.3229 12.4721 12.4459 13.1717C14.1027 11.739 14.7841 9.62358 14.1405 7.40193ZM3.78337 7.50713C3.77803 7.50862 3.77412 7.5144 3.76928 7.52573C3.14187 9.24023 3.75836 11.9055 5.68301 13.3134C5.68343 13.2771 5.7046 13.2014 5.72662 13.1505C5.73475 13.1308 5.73346 13.1056 5.72662 13.0817C5.65607 12.7716 5.47113 12.4591 5.29516 12.1548C4.68813 11.1472 5.02513 10.4561 6.00521 10.0078C6.01782 10.0037 6.0206 9.99667 6.01376 9.98363C5.99858 9.95027 5.98362 9.91735 5.96886 9.88356C5.96437 9.87459 5.96886 9.85663 5.94641 9.85983C5.72662 9.8872 5.47925 9.90666 5.25561 9.89661C4.91908 9.82156 4.59769 9.68751 4.35569 9.33109C3.92243 8.72624 4.51578 7.91271 3.80024 7.51162C3.79432 7.50819 3.78874 7.50584 3.78337 7.50713ZM12.8566 9.98534C12.8729 9.98534 12.8895 9.98769 12.9058 9.99218C13.123 10.0317 13.4516 10.1596 13.6468 10.4012C13.6594 10.4168 13.6537 10.4298 13.6342 10.4281C13.3206 10.4187 12.9682 10.3841 12.7243 10.1919C12.6896 10.1645 12.6578 10.1374 12.6821 10.0721C12.7001 10.0309 12.7576 9.99923 12.8057 9.99068C12.8233 9.98769 12.8399 9.98491 12.8566 9.98534ZM5.09827 10.1132C5.1158 10.1128 5.13291 10.1132 5.15044 10.1145C5.16498 10.1162 5.17973 10.1162 5.18957 10.1258C5.24986 10.1976 5.23789 10.2981 5.12521 10.376C4.88725 10.5284 4.6114 10.537 4.35731 10.5479C4.34737 10.5483 4.32996 10.5374 4.34748 10.5209C4.57898 10.3088 4.83508 10.1158 5.09827 10.1132ZM9.40024 13.003C9.39703 13.0025 9.39339 13.0034 9.3904 13.0058C9.19541 13.0983 8.88903 13.1434 8.7167 13.0466C8.69596 13.0363 8.68378 13.044 8.67565 13.056C8.36606 13.5802 7.63036 13.5678 7.10804 13.4346C6.71998 13.3472 6.34026 13.2365 6.02661 13.5471C7.65965 14.7247 10.177 14.7615 12.0664 13.4656C11.71 13.2974 11.3865 13.4184 10.9946 13.5093C10.5509 13.6123 9.92812 13.7055 9.42547 13.0143C9.41691 13.012 9.40922 13.0034 9.40024 13.003ZM9.07397 13.121C9.07846 13.1214 9.08338 13.1219 9.08937 13.1223C9.14602 13.1289 9.17831 13.1578 9.21294 13.1969C9.22962 13.2189 9.23561 13.2446 9.23283 13.2717C9.22342 13.5138 9.18194 13.7586 9.10048 13.9704C9.09877 13.9805 9.0915 13.9826 9.08787 13.9704C8.99337 13.6722 8.83194 13.3703 9.0357 13.1353C9.04874 13.124 9.05965 13.1204 9.07397 13.121Z" fill="#0053A0"/>
<path fill-rule="evenodd" clip-rule="evenodd" d="M9.59697 1.36627C9.64551 1.43035 9.69404 1.50167 9.67694 1.57858C9.61451 1.9304 9.54737 2.28148 9.47596 2.63191C9.46335 2.71016 9.40647 2.74373 9.34939 2.79633C9.73424 2.86624 10.4541 3.00222 10.8402 3.07491C10.83 2.92247 10.9465 2.83331 10.9933 2.6952C10.865 2.78499 10.7013 2.81792 10.549 2.78521C10.3906 2.75528 9.99829 2.67724 9.84028 2.64453C9.86594 2.52201 9.88219 2.39715 9.91063 2.27464C10.0646 2.3018 10.3124 2.36016 10.4659 2.37877C10.5967 2.40977 10.6957 2.22803 10.7669 2.14251C10.7169 2.15384 10.6228 2.15962 10.5717 2.14807C10.4105 2.11679 10.1208 2.05577 9.95959 2.02299C9.97391 1.90619 9.99871 1.791 10.0231 1.67704C10.2993 1.74967 10.8768 1.77676 11.0818 2.00893C11.0887 1.88075 11.0162 1.72151 11.0891 1.63629C10.7075 1.5622 9.97862 1.43747 9.59697 1.36627ZM9.41289 1.3719C9.04514 1.37361 8.34044 1.4123 7.97291 1.4169C8.05159 1.54632 7.93464 1.65995 7.93186 1.78954C8.05651 1.67646 8.3676 1.64261 8.52945 1.64753C8.52902 2.00226 8.56558 2.35845 8.5705 2.71209C8.57264 2.77901 8.52047 2.82156 8.47771 2.84849C8.63763 2.84678 8.89035 2.82711 9.04023 2.82455C8.96646 2.75677 8.92905 2.75121 8.92777 2.65586C8.90168 2.32938 8.88864 1.94876 8.87966 1.62359C9.04514 1.61153 9.34939 1.64122 9.48451 1.72343C9.48387 1.58061 9.34575 1.43856 9.41289 1.3719ZM7.80422 1.46753C7.56925 1.51878 7.04586 1.5556 6.84338 1.70941C6.60136 1.87744 6.54555 2.25027 6.8592 2.41383C7.05676 2.49465 7.43156 2.40677 7.62676 2.42238C7.76103 2.42794 7.81769 2.61395 7.72939 2.70503C7.53868 2.87458 7.02063 2.87458 6.79442 2.80616C6.8498 2.93594 6.9118 3.04797 6.97038 3.17604C7.04735 3.12772 7.18397 3.11575 7.27099 3.10014C7.45636 3.0732 7.89552 2.95433 8.01931 2.80488C8.16726 2.63106 8.17453 2.37919 8.03043 2.21991C7.90086 2.07794 7.49955 2.10302 7.32893 2.1144C7.23165 2.1144 7.15126 2.14871 7.0589 2.10315C6.98022 2.04901 6.98471 1.91387 7.0728 1.86829C7.24213 1.77857 7.62591 1.7647 7.80272 1.83733C7.79246 1.71345 7.80828 1.59141 7.80422 1.46753ZM11.5894 1.78392C11.6211 1.86226 11.6395 1.93623 11.602 2.01032C11.4626 2.31078 11.3042 2.60903 11.1567 2.91178C11.1152 3.00008 11.0622 3.0561 10.964 3.09309C11.0949 3.16001 11.3196 3.27226 11.4517 3.33918C11.3964 3.13692 11.5336 2.9554 11.6121 2.79226C11.6876 2.83353 11.89 2.92803 11.9396 3.01013C12.0061 3.12259 12.0224 3.23805 12.0367 3.35457C12.0431 3.45998 12.0517 3.53951 11.9428 3.57693C12.0957 3.63914 12.336 3.76721 12.4782 3.83563C12.3653 3.60301 12.435 3.28658 12.2843 3.05802C12.3824 3.0623 12.5471 3.07876 12.6514 3.01441C12.84 2.90387 12.8859 2.72898 12.8216 2.49828C12.7861 2.37684 12.6668 2.30757 12.5654 2.25925C12.3234 2.13952 11.8317 1.90213 11.5894 1.78392ZM6.07561 1.93858C5.73823 2.12804 5.08976 2.4521 4.75678 2.6473C4.84367 2.67018 4.90396 2.70268 4.94522 2.77815C5.11178 3.07727 5.2779 3.37616 5.44296 3.67528C5.48572 3.74947 5.47268 3.83884 5.4389 3.92137C5.78505 3.72916 6.43309 3.3922 6.78031 3.20149C6.67191 3.13991 6.74076 2.93444 6.69714 2.79932C6.66293 2.91734 6.54106 3.02467 6.44164 3.09736C6.28043 3.20555 5.902 3.3984 5.73416 3.49397C5.67302 3.38557 5.6108 3.27461 5.55286 3.16343C5.68371 3.08218 5.98709 2.94791 6.11538 2.86261C6.19042 2.76853 6.14638 2.63277 6.16306 2.52223C6.13013 2.562 6.08737 2.59792 6.04055 2.62208C5.89986 2.70033 5.59113 2.87137 5.44852 2.94834C5.39443 2.84572 5.32965 2.74843 5.28282 2.64175C5.54345 2.52351 6.01083 2.20708 6.3078 2.22397C6.23361 2.11583 6.11431 2.06678 6.07561 1.93858ZM11.8945 2.21136C12.0232 2.27571 12.2122 2.35974 12.3292 2.42366C12.6394 2.58487 12.4188 2.92204 12.1943 2.79504C12.066 2.75228 11.8415 2.6255 11.7164 2.57418C11.7703 2.44889 11.8391 2.33665 11.8945 2.21136ZM4.45176 2.87372C4.41612 2.92504 4.36945 2.97186 4.31392 3.00179C4.1284 3.08817 3.79602 3.38792 3.7163 3.57693C3.60518 3.7933 3.60636 3.99235 3.73736 4.24485C3.88666 4.54268 4.09834 4.6808 4.42219 4.6808C4.74391 4.66092 5.03361 4.37912 5.16596 4.20551C5.23886 4.12149 5.30963 4.02891 5.41654 3.98187C5.32674 3.88224 5.23224 3.78774 5.14073 3.68939C5.10802 3.80891 5.05029 3.91175 4.97204 4.01138C4.85637 4.14265 4.67686 4.34898 4.47282 4.33914C4.26875 4.32909 4.20381 4.23181 4.11282 4.13239C4.02184 4.03297 3.95924 3.91688 3.97504 3.73856C3.99082 3.56025 4.3443 3.23099 4.59946 3.22116C4.54094 3.10998 4.51035 2.98619 4.45176 2.87372ZM3.21005 4.07317C3.11694 4.19333 2.95147 4.40221 2.85285 4.51788C2.94442 4.50441 3.0278 4.51211 3.09755 4.56684C3.36534 4.7753 3.63276 4.9859 3.89908 5.19564C3.96747 5.24738 3.99839 5.32478 4.00735 5.4133C4.10589 5.29592 4.26456 5.09024 4.36032 4.97585C4.27738 4.98676 4.19661 4.99125 4.13253 4.93951C3.86051 4.72976 3.59308 4.5166 3.32255 4.30536C3.24856 4.24913 3.20729 4.17302 3.21005 4.07317ZM2.57443 4.8805C2.40473 5.22921 2.0536 5.87725 1.88679 6.22597C1.97935 6.18919 2.04888 6.19582 2.13286 6.23858C2.43471 6.38974 2.73805 6.53663 3.03986 6.68586C3.11392 6.72328 3.17877 6.79747 3.2086 6.87444C3.37686 6.51995 3.6873 5.89265 3.88082 5.54115C3.84094 5.54115 3.80098 5.5078 3.77255 5.47958C3.6928 5.40389 3.65256 5.31751 3.57144 5.24332C3.59402 5.38401 3.57369 5.55248 3.51235 5.6891C3.44107 5.84133 3.25181 6.21036 3.18052 6.3628C3.06231 6.32282 2.97097 6.25483 2.85708 6.20352C2.91412 6.06711 3.08264 5.75795 3.1411 5.62304C3.14174 5.54393 3.04769 5.4103 2.98083 5.31473C2.97794 5.36605 2.95584 5.41821 2.93159 5.46547C2.85888 5.61363 2.69497 5.94161 2.62082 6.08828C2.51687 6.03568 2.38164 5.9848 2.27771 5.93348C2.35043 5.78553 2.53402 5.41522 2.60958 5.26855C2.66803 5.15331 2.76275 5.05688 2.87957 4.99852C2.75852 4.94977 2.67833 4.96473 2.57443 4.8805ZM2.79236 6.81949C2.84083 6.89796 2.85139 7.03073 2.85428 7.12459C2.86706 7.30162 2.7632 7.63729 2.73611 7.80962C2.40999 7.74569 2.08215 7.66701 1.75738 7.59582C1.66769 7.57871 1.63151 7.50666 1.57881 7.42969C1.54462 7.57657 1.48638 7.85409 1.45508 8.00226C1.52059 7.95394 1.56942 7.91631 1.64633 7.93341C1.9938 8.00632 2.33944 8.08265 2.68555 8.16112C2.76527 8.17822 2.84528 8.23894 2.88659 8.31441C2.96067 7.97831 3.09943 7.36405 3.17206 7.02624C3.13648 7.02923 3.09934 7.03522 3.06802 7.01534C2.96687 6.95953 2.89492 6.8723 2.79236 6.81949H2.79236Z" fill="#0053A0"/>
<path fill-rule="evenodd" clip-rule="evenodd" d="M2.79655 9.69974C2.74767 9.76987 2.67761 9.82738 2.59405 9.8432C2.27616 9.93321 1.93715 10.0021 1.57454 10.0893C1.50176 10.1154 1.45772 10.0848 1.38892 10.0318C1.42107 10.1789 1.47063 10.4188 1.50563 10.5659C1.63475 10.385 1.87513 10.3918 2.06529 10.3283C2.11046 10.4808 2.16362 10.8004 2.21437 10.9496C2.29417 11.0326 2.42664 11.0441 2.53076 11.0807C2.50372 11.0401 2.45287 10.9537 2.445 10.9047C2.40806 10.7435 2.3384 10.4359 2.30154 10.2762C2.42317 10.249 2.54237 10.2131 2.66576 10.196C2.73106 10.451 2.88401 10.9259 2.76562 11.1692C2.88978 11.1297 2.99219 10.9928 3.10311 11.0217C3.02999 10.6792 2.86403 10.0452 2.79654 9.69974H2.79653H2.79655ZM2.81342 11.2592C2.77283 11.2579 2.73193 11.2616 2.69107 11.2661C2.41577 11.3251 2.16 11.4608 2.04281 11.7484C1.88838 12.1495 2.19341 12.7663 2.60251 12.9171C2.86557 13.0111 3.12577 12.9406 3.32106 12.7948C3.50245 12.6706 3.62548 12.4629 3.62062 12.1846C3.60925 11.8705 3.43365 11.559 3.17764 11.3817C3.05588 11.2962 2.93527 11.2624 2.81343 11.2592H2.81342H2.81342ZM2.80217 11.6094C2.954 11.6086 3.10821 11.6473 3.21278 11.8034C3.3428 11.965 3.38224 12.1921 3.29014 12.328C3.15929 12.4999 2.94837 12.6026 2.72625 12.5936C2.48473 12.585 2.24003 12.2759 2.3114 11.9793C2.37926 11.7377 2.65336 11.6216 2.80217 11.6094ZM3.75422 12.7781C3.69487 12.7798 3.63708 12.7916 3.5798 12.8132C3.30508 12.9145 3.10348 13.0917 3.02299 13.3954C2.91012 13.8108 3.36443 14.3562 3.79354 14.4332C4.06903 14.4796 4.31293 14.3801 4.4797 14.2023C4.63674 14.0483 4.73439 13.818 4.68085 13.5444C4.6147 13.2371 4.36634 12.9737 4.08324 12.8442C3.95838 12.7978 3.85308 12.7745 3.75422 12.7781ZM3.89061 13.1142C4.01072 13.1146 4.11993 13.1627 4.20137 13.2478C4.3518 13.3868 4.42272 13.5574 4.35326 13.7383C4.25762 13.9508 4.07993 14.0881 3.85965 14.1182C3.62034 14.1514 3.31102 13.8347 3.34354 13.5737C3.38252 13.3342 3.53871 13.2365 3.66701 13.1687C3.74302 13.1317 3.81851 13.1138 3.89061 13.1142ZM4.95946 13.7342C4.95711 13.8711 4.81685 13.8307 4.70604 14.003C4.87244 13.9863 5.15146 14.1347 5.28166 14.232C5.08817 14.5257 4.88698 14.8129 4.69075 15.1037C4.6543 15.1648 4.59039 15.1716 4.52334 15.177C4.64574 15.2617 4.86795 15.41 4.99046 15.4947C4.96609 15.397 4.97507 15.316 5.0283 15.236C5.20149 14.9799 5.37702 14.7244 5.54977 14.4669C5.55961 14.4565 5.56773 14.4323 5.58676 14.4385C5.72851 14.5155 5.9498 14.7081 5.99983 14.8633C6.05927 14.7489 6.04794 14.5664 6.15719 14.5217C5.85616 14.3143 5.26178 13.9371 4.95946 13.7342ZM6.23202 14.5847C6.27607 14.6649 6.26474 14.7566 6.23908 14.8409C6.14073 15.1701 6.01544 15.4663 5.91688 15.7945C5.89485 15.874 5.84504 15.9212 5.74412 15.9448C6.05649 16.0438 6.4191 16.1759 6.74943 16.2768C7.09152 16.3875 7.39876 16.305 7.43574 15.946C7.45734 15.7399 7.23776 15.6446 7.15181 15.5986C7.37802 15.6266 7.53025 15.5058 7.54243 15.2935C7.56168 15.1423 7.42399 14.9771 7.11226 14.8759C6.88862 14.803 6.45737 14.6478 6.23202 14.5847ZM10.9654 14.8435C10.8205 14.8809 10.578 14.9822 10.4354 15.0307C10.515 15.065 10.5699 15.0883 10.5968 15.1684C10.6986 15.4776 10.8216 15.766 10.9272 16.0743C10.956 16.1714 10.9915 16.2813 10.9385 16.3766C11.2669 16.2755 11.8367 16.0698 12.1621 15.9619C12.1435 15.9347 12.1153 15.9127 12.117 15.8785C12.1089 15.7624 12.1382 15.6683 12.1283 15.5509C12.0531 15.7074 11.8876 15.7876 11.7191 15.8533C11.6242 15.8838 11.3573 16.0027 11.2633 16.0121C11.1594 15.6993 11.0356 15.3701 10.9304 15.0573C10.9015 14.9762 10.9227 14.9196 10.9654 14.8435ZM6.54161 14.9461C6.66177 14.9884 7.00407 15.0667 7.12081 15.1154C7.28352 15.1828 7.1779 15.4744 7.00813 15.437C6.88905 15.4177 6.55466 15.3241 6.44305 15.2822C6.47448 15.1701 6.50698 15.0573 6.54161 14.9461ZM8.13446 15.1154C8.14493 15.137 8.13852 15.1896 8.12056 15.2133L7.50908 16.2484C7.45456 16.3371 7.40325 16.3775 7.32735 16.4357C7.46675 16.4572 7.70792 16.5265 7.84796 16.5535C7.80285 16.4553 7.80691 16.3339 7.87982 16.2402C8.09576 16.2593 8.49942 16.2886 8.71408 16.3146C8.7577 16.4166 8.8135 16.5391 8.71408 16.6324C8.85626 16.6313 9.10428 16.6259 9.24282 16.6353C9.18039 16.5612 9.11967 16.4865 9.09359 16.3905C9.02859 16.199 8.78699 15.4874 8.71109 15.267C8.69805 15.227 8.71558 15.1774 8.71686 15.1729L8.13446 15.1154ZM9.75039 15.1233C9.59432 15.149 9.32877 15.1798 9.17954 15.1982C9.25052 15.248 9.30311 15.2788 9.31316 15.3628C9.34994 15.6858 9.41515 15.9954 9.45663 16.3187C9.46518 16.4198 9.46689 16.5498 9.39591 16.6324C9.73799 16.5999 10.3674 16.4977 10.708 16.4581C10.695 16.428 10.673 16.3995 10.6815 16.3668C10.6969 16.2511 10.7401 16.1517 10.7544 16.0348C10.6415 16.1639 10.4782 16.2332 10.3003 16.2642C10.1983 16.2813 9.9007 16.3294 9.80812 16.3273C9.76942 15.9995 9.71276 15.6536 9.673 15.326C9.66188 15.2405 9.69331 15.1892 9.75039 15.1233ZM8.38482 15.3641L8.63412 16.0431C8.47826 16.0341 8.18043 16.0157 8.02478 15.9982L8.38482 15.3641ZM6.3881 15.4979C6.53114 15.5537 6.76846 15.6341 6.89567 15.6833C7.17426 15.7803 7.10093 16.1539 6.76333 16.0378C6.61174 15.9897 6.4097 15.9266 6.26581 15.8719C6.30044 15.7493 6.35347 15.6215 6.3881 15.4979Z" fill="#0053A0"/>
<path fill-rule="evenodd" clip-rule="evenodd" d="M13.8623 3.34476C13.6419 3.33535 13.4961 3.39607 13.3421 3.52628C13.1698 3.683 13.0524 3.86494 13.0537 4.13797C13.0595 4.35306 13.2945 4.69109 13.5771 4.8694C13.6567 4.9282 13.7828 5.00153 13.7948 5.09967C13.8884 5.00388 13.9861 4.90938 14.0819 4.8198C13.8525 4.75095 13.464 4.52817 13.4082 4.2716C13.3727 4.06742 13.4227 4.00071 13.5096 3.8891C13.6716 3.69347 13.8358 3.6227 14.0819 3.69069C14.3019 3.77835 14.499 4.05395 14.5161 4.25471C14.6305 4.19485 14.7389 4.14717 14.855 4.0888C14.7629 4.03171 14.7223 3.96329 14.6598 3.88055C14.5247 3.68364 14.2705 3.40248 13.9622 3.35331C13.9275 3.34925 13.8938 3.34625 13.8623 3.34476ZM15.0759 4.39539C15.0714 4.5395 14.9955 4.58397 14.892 4.66094C14.6408 4.83284 14.4028 5.00794 14.1522 5.1745C14.0811 5.21983 13.9889 5.27798 13.8876 5.22923C13.969 5.3558 14.13 5.56961 14.2125 5.69469C14.2211 5.56555 14.2904 5.50696 14.3686 5.45565C14.6395 5.27477 14.8942 5.07957 15.1659 4.9004C15.2444 4.84738 15.2893 4.82429 15.3936 4.85935C15.3128 4.73577 15.1573 4.51919 15.0759 4.39539ZM15.5569 5.07316C15.4819 5.18647 15.3153 5.11763 15.1971 5.16317C15.341 5.2442 15.4999 5.50418 15.5597 5.65684C15.2379 5.80757 14.972 5.94291 14.6498 6.09557C14.5886 6.12657 14.492 6.1069 14.4293 6.08295C14.4958 6.21787 14.607 6.45519 14.6737 6.58924C14.7092 6.48534 14.8131 6.39703 14.91 6.35427C15.198 6.22342 15.4351 6.09685 15.7259 5.97327C15.7996 6.11845 15.9234 6.39169 15.8819 6.55546C15.9931 6.48833 16.0476 6.34209 16.1744 6.35577C16.0205 6.02223 15.7124 5.40626 15.5569 5.07316ZM16.2559 6.51591C16.2253 6.65574 16.0983 6.73634 16.0196 6.84068C15.862 7.02476 15.6726 7.23216 15.4881 7.41859C15.4441 7.45986 15.3348 7.4729 15.2685 7.48787C15.1313 7.50775 15.0673 7.52378 14.9621 7.4357C14.9951 7.58365 15.0489 7.84748 15.0787 7.99544C15.1372 7.90671 15.1997 7.85454 15.3149 7.82525C15.4175 7.80686 15.5084 7.76731 15.5822 7.79959C15.9189 7.98282 16.5507 8.24388 16.6298 8.32577L16.5146 7.77308C16.4772 7.82717 16.4331 7.85326 16.3882 7.83615C16.1862 7.7579 15.9463 7.64629 15.7748 7.58066C15.9003 7.43484 16.047 7.29394 16.1798 7.15583C16.2375 7.08548 16.3166 7.05769 16.3867 7.12611L16.2559 6.51591Z" fill="#0053A0"/>
<path fill-rule="evenodd" clip-rule="evenodd" d="M15.457 9.77708C15.3931 9.77879 15.3206 9.80167 15.2432 9.85298C15.1331 9.94984 15.0924 10.1014 15.0561 10.237C15.0065 10.466 14.8833 10.9365 14.8382 11.1662C14.9143 11.105 14.98 11.0982 15.0659 11.117C15.402 11.1895 15.7369 11.2656 16.0717 11.3381C16.1527 11.3537 16.2126 11.4172 16.2585 11.4884C16.3079 11.1698 16.5059 10.5222 16.5006 10.1972C16.4941 9.93081 16.2472 9.76083 16.0109 9.81621C15.8769 9.85384 15.8016 10.0086 15.7719 10.1172C15.7715 9.95561 15.6488 9.77195 15.457 9.77708ZM15.4583 10.1634C15.5568 10.1641 15.6479 10.2549 15.6216 10.3691C15.5955 10.488 15.5483 10.7381 15.5192 10.8557C15.4048 10.8326 15.2859 10.807 15.173 10.7809C15.2055 10.6582 15.2361 10.4839 15.2684 10.3593C15.3009 10.2179 15.3819 10.1634 15.4583 10.1634ZM16.0744 10.1846C16.1771 10.1882 16.2711 10.2913 16.2485 10.4168C16.2166 10.5677 16.1585 10.8461 16.1307 10.9947C16.006 10.9695 15.8769 10.9393 15.751 10.9145C15.7828 10.7634 15.8318 10.5455 15.872 10.3943C15.9092 10.2395 15.9943 10.182 16.0744 10.1846ZM14.8145 11.2322C14.72 11.402 14.6336 11.5638 14.5346 11.7357C14.6097 11.6998 14.6839 11.6958 14.7457 11.7287C14.9652 11.8448 15.1523 11.9536 15.3697 12.0746C15.4538 12.1232 15.5449 12.2136 15.5543 12.3333C15.5506 12.4937 15.4399 12.6876 15.2923 12.7528C15.1857 12.8028 15.0642 12.7515 14.9832 12.7047C14.7839 12.585 14.6268 12.4999 14.4275 12.3784C14.3587 12.3389 14.2973 12.3096 14.2911 12.1817C14.1957 12.3434 14.1098 12.5202 14.0097 12.6867C14.1425 12.6273 14.234 12.6669 14.3294 12.7259C14.5066 12.8279 14.6541 12.9134 14.8297 13.0156C14.9637 13.0917 15.098 13.1419 15.281 13.1011C15.439 13.0645 15.5731 12.9117 15.6695 12.7541C15.7715 12.589 15.8611 12.3968 15.8508 12.2142C15.8418 12.0257 15.727 11.897 15.5992 11.8119C15.3905 11.6855 15.2248 11.5985 15.0142 11.4758C14.9332 11.427 14.8171 11.3537 14.8145 11.2322ZM14.9295 13.1757C14.925 13.3346 14.8361 13.5214 14.723 13.651C14.6659 13.7276 14.4822 13.9358 14.4081 14.0155C14.1566 13.8022 13.9278 13.6087 13.6756 13.3968C13.6089 13.3418 13.5563 13.2653 13.553 13.1785C13.4487 13.286 13.3078 13.4458 13.2112 13.561C13.2976 13.5488 13.3786 13.5907 13.4434 13.6457C13.6907 13.8567 13.9306 14.0731 14.1816 14.2809C14.2569 14.3493 14.2956 14.4156 14.2997 14.5244C14.5274 14.2674 14.9498 13.7819 15.1718 13.5206C15.1416 13.5075 15.1014 13.5028 15.0843 13.4669C15.0187 13.3472 14.999 13.2707 14.9295 13.1757ZM13.1872 13.5907C13.1167 13.6833 12.9753 13.737 12.8736 13.7819C12.6536 13.8868 12.3448 14.1378 12.2805 14.4318C12.2292 14.6852 12.285 14.8898 12.425 15.0743C12.5636 15.2616 12.7382 15.3704 12.9794 15.3766C13.2492 15.3741 13.5368 15.2007 13.7497 14.9843C13.8199 14.9142 13.9058 14.8177 14.0085 14.8098C13.9229 14.7081 13.8515 14.5932 13.7583 14.4962C13.698 14.682 13.4077 14.9871 13.2112 15.0405C13.0378 15.0797 12.9217 15.0328 12.7949 14.9236C12.654 14.7778 12.5663 14.5982 12.6247 14.388C12.7115 14.1171 13.0711 13.9187 13.2971 13.9578C13.2561 13.8368 13.2251 13.7072 13.1872 13.5907Z" fill="#0053A0"/>
<path fill-rule="evenodd" clip-rule="evenodd" d="M9.04018 3.66977C9.01153 3.7523 8.99208 3.86112 8.97283 3.9567C8.96877 3.97765 8.9583 3.99197 8.94568 4.00715C8.30576 4.65113 7.51511 4.46363 7.22049 5.408C7.18714 5.48775 7.22947 5.5722 7.37208 5.6511C7.3864 5.65965 7.39902 5.65602 7.39902 5.64105C7.3631 4.61564 8.74855 4.68491 9.05151 3.97337C9.05472 3.9661 9.06498 3.96803 9.06819 3.97337C9.32283 4.44845 9.7436 4.51066 10.1282 4.73302C10.4162 4.89915 10.6238 5.04988 10.6826 5.52175C10.6846 5.54398 10.6908 5.53992 10.7021 5.52859C10.7457 5.48048 10.8515 5.45568 10.8483 5.38363C10.7551 4.68748 9.98841 4.53718 9.37329 4.25046C9.34763 4.23079 9.32155 4.21112 9.29589 4.19145C9.16718 4.03922 9.06905 3.86754 9.04018 3.66977ZM9.02906 4.54038C9.02222 4.54081 9.01645 4.54231 9.01046 4.54573C9.00384 4.54893 8.99742 4.55578 8.99379 4.56283C8.99037 4.56925 8.99165 4.58956 8.99379 4.60345C8.99614 4.61243 9.00426 4.61735 9.00918 4.62312C9.01944 4.63574 9.02842 4.64301 9.04168 4.65284C9.05814 4.66375 9.07845 4.65028 9.08209 4.63724C9.08701 4.61457 9.08701 4.58956 9.08209 4.56967C9.08081 4.5624 9.07525 4.55791 9.07076 4.55129C9.06456 4.54444 9.05771 4.54081 9.04702 4.54038C9.04253 4.53995 9.03526 4.53953 9.02906 4.54038ZM9.23817 4.7343C9.23603 4.73473 9.23517 4.73516 9.23282 4.73708C9.22876 4.74029 9.22555 4.74563 9.22555 4.75098C9.22512 4.77899 9.21251 4.81982 9.23817 4.83436C9.25078 4.84014 9.2666 4.84227 9.27644 4.83116C9.28135 4.82303 9.29098 4.82025 9.29033 4.80593C9.29033 4.79909 9.28093 4.79695 9.27793 4.78925C9.27387 4.77792 9.27601 4.75782 9.27195 4.7497C9.26831 4.74371 9.26468 4.73794 9.25805 4.73708C9.25121 4.7358 9.24501 4.73259 9.23817 4.7343ZM8.8531 4.73837C8.8345 4.74478 8.81483 4.75825 8.80799 4.78198C8.79987 4.79609 8.80029 4.80721 8.80799 4.81576C8.81783 4.8303 8.83001 4.84741 8.84712 4.85532C8.86166 4.86216 8.88047 4.86216 8.88688 4.83116C8.89394 4.8055 8.89437 4.76937 8.88282 4.75953C8.86786 4.74884 8.87149 4.73388 8.8531 4.73837ZM9.05686 5.07725C8.97497 5.32376 8.95381 5.44798 8.89544 5.64426C9.00234 5.64511 9.06135 5.64554 9.13832 5.64704C9.07567 5.4234 9.07268 5.33467 9.05686 5.07725Z" fill="#0053A0"/>
<path fill-rule="evenodd" clip-rule="evenodd" d="M5.2766 6.29528C5.27296 6.29528 5.26847 6.2972 5.26398 6.30084C4.69377 6.703 4.53897 7.41583 3.80566 7.29802C4.32617 7.54133 4.31362 8.13956 4.36671 8.69438C4.41154 9.16176 4.76892 9.79141 5.73243 9.66035C5.74312 9.65949 5.75039 9.65094 5.74355 9.64068C5.68197 9.5528 5.47544 9.58167 5.42412 9.57312C4.66137 9.43008 4.53222 8.72859 4.37379 7.93473C4.33693 7.70532 4.18808 7.56036 4.09672 7.38803C4.09011 7.3705 4.08417 7.36494 4.10657 7.36088C4.59253 7.26787 4.95888 6.84625 5.34844 6.3979C5.35656 6.39299 5.35806 6.38187 5.34844 6.37374C5.32641 6.35172 5.30632 6.32735 5.28643 6.30084C5.2828 6.2972 5.28066 6.29485 5.2766 6.29528ZM5.20369 7.21784C5.19685 7.21827 5.18958 7.21977 5.18381 7.22319C5.17696 7.2264 5.17076 7.23324 5.1667 7.24029C5.1635 7.24671 5.16499 7.26702 5.1667 7.28092C5.16948 7.2899 5.17889 7.29481 5.18381 7.30059C5.19407 7.3132 5.20326 7.32047 5.21631 7.33031C5.23277 7.34121 5.2518 7.32774 5.25543 7.3147C5.26035 7.29203 5.26035 7.26702 5.25543 7.24714C5.25393 7.23987 5.24859 7.23538 5.2441 7.22875C5.2379 7.22191 5.23106 7.21827 5.22037 7.21784C5.21566 7.21742 5.20989 7.21699 5.20369 7.21784ZM5.42284 7.41711C5.42049 7.41775 5.41835 7.41861 5.416 7.42032C5.41194 7.4231 5.40873 7.42844 5.40873 7.43421C5.40745 7.4618 5.39312 7.5022 5.41878 7.51717C5.43096 7.5238 5.44657 7.5253 5.45641 7.51439C5.46197 7.50627 5.4718 7.50456 5.4718 7.49066C5.47223 7.48339 5.46368 7.48147 5.46111 7.47355C5.45748 7.46222 5.45919 7.44191 5.45512 7.43421C5.45192 7.42801 5.44807 7.42117 5.44123 7.42032C5.43439 7.41861 5.42947 7.41583 5.42284 7.41711ZM5.03478 7.44683C5.0164 7.45324 4.99651 7.468 4.98989 7.49194C4.98176 7.50584 4.98219 7.51567 4.98989 7.52423C4.99929 7.53877 5.01319 7.55587 5.03029 7.56357C5.04483 7.57062 5.06365 7.57212 5.07006 7.5409C5.07712 7.51525 5.07626 7.47804 5.06408 7.468C5.04932 7.45731 5.05339 7.44234 5.03478 7.44683ZM5.25992 7.78165C5.22977 8.03052 5.13891 8.31488 5.05018 8.50174C5.15366 8.48784 5.2364 8.5507 5.24282 8.63088C5.2689 8.54001 5.3386 8.4701 5.42134 8.49447C5.36704 8.26869 5.2999 8.02603 5.25992 7.78165Z" fill="#0053A0"/>
<path fill-rule="evenodd" clip-rule="evenodd" d="M6.07425 10.2058C6.07018 10.2068 6.06569 10.2081 6.06035 10.2103C5.17734 10.5515 5.00095 11.3443 5.49462 12.0423C5.86557 12.6656 6.02977 12.9224 5.85339 13.4233C6.54355 12.6017 7.7663 13.9309 8.46779 12.9059C8.4772 12.8933 8.46244 12.8847 8.44791 12.8706C8.4137 12.8469 8.37778 12.8311 8.34271 12.8172C8.31663 12.8073 8.3023 12.8131 8.28648 12.8356C7.99934 13.1381 7.06822 13.071 6.36416 13.0731C6.34257 13.0731 6.27822 13.0844 6.25705 13.0958C6.18949 13.1304 6.12107 13.161 6.04902 13.1546C6.02977 13.1546 6.00048 13.1443 6.0054 13.1043C6.04046 12.5922 5.73579 12.2668 5.54273 11.8444C5.48243 11.7003 5.03516 10.8921 6.11081 10.4012C6.11572 10.3918 6.12599 10.3862 6.1247 10.3719C6.1215 10.3219 6.11123 10.2725 6.0967 10.2212C6.09413 10.2085 6.08686 10.2041 6.07425 10.2058ZM6.87302 11.1818C6.86618 11.1828 6.85912 11.1841 6.85314 11.1873C6.84651 11.191 6.84009 11.1976 6.83667 11.2044C6.83347 11.2111 6.83432 11.2314 6.83667 11.2453C6.83881 11.2543 6.84822 11.2588 6.85314 11.2647C6.86404 11.2774 6.87259 11.2844 6.88563 11.2945C6.90231 11.3051 6.92305 11.2917 6.92647 11.2786C6.93096 11.2562 6.9316 11.231 6.92647 11.2111C6.92476 11.204 6.91792 11.2 6.91407 11.1931C6.90723 11.1858 6.90188 11.1828 6.89141 11.1818C6.88649 11.1814 6.87986 11.1809 6.87302 11.1818ZM7.09538 11.3704C7.09302 11.3708 7.09046 11.3712 7.08811 11.3731C7.08447 11.3763 7.08084 11.3817 7.08127 11.387C7.07998 11.415 7.06566 11.455 7.09089 11.4704C7.1035 11.4766 7.1174 11.4779 7.12766 11.4672C7.13258 11.4591 7.14434 11.4578 7.14434 11.4433C7.14477 11.4366 7.13493 11.4347 7.13172 11.4266C7.12809 11.4155 7.1313 11.3952 7.12766 11.387C7.12403 11.3808 7.12061 11.374 7.11334 11.3731C7.10692 11.3712 7.102 11.3691 7.09538 11.3704ZM6.69877 11.3943C6.68038 11.4005 6.66071 11.4155 6.65387 11.4392C6.64532 11.4527 6.64617 11.4631 6.65387 11.4717C6.66328 11.486 6.67589 11.5027 6.693 11.5108C6.70732 11.5181 6.72635 11.5194 6.73212 11.4884C6.73939 11.4627 6.74025 11.4253 6.72806 11.4155C6.71331 11.4046 6.71737 11.3898 6.69877 11.3943ZM6.90146 11.7146C6.87131 11.9635 6.78023 12.2478 6.69171 12.4347C6.79519 12.4208 6.87794 12.4824 6.88435 12.563C6.91044 12.4721 6.98014 12.4032 7.06288 12.4278C7.00836 12.2021 6.94101 11.9594 6.90146 11.7146Z" fill="#0053A0"/>
<path fill-rule="evenodd" clip-rule="evenodd" d="M11.9176 10.2045C11.9131 10.2049 11.9079 10.2094 11.9062 10.2143C11.8868 10.2558 11.8671 10.2953 11.8472 10.3368C11.8297 10.3837 11.8288 10.4236 11.8994 10.4461C13.1645 10.9633 12.5417 11.9419 12.2118 12.5161C12.1775 12.5751 12.0957 12.7492 12.0895 12.8257C12.0768 12.9072 12.0895 12.9782 12.0875 13.0633C12.0875 13.0831 12.0597 13.0885 12.0443 13.0857C11.2344 12.9301 10.5338 13.6457 9.86995 12.8734C9.8088 12.8073 9.73546 12.8009 9.70853 12.8217C9.67923 12.8437 9.65764 12.8681 9.6369 12.9003C9.623 12.9198 9.62343 12.9309 9.63968 12.9508C10.3298 13.9187 11.3501 12.7757 12.2256 13.2572C12.0206 12.765 12.4247 12.2876 12.6533 11.8583C13.1613 10.9951 12.5669 10.4647 11.922 10.2045C11.9201 10.2036 11.9193 10.2045 11.9176 10.2045ZM11.2471 11.1634C11.2402 11.1643 11.2344 11.1657 11.2285 11.1692C11.2218 11.1724 11.2154 11.1792 11.2118 11.1858C11.2088 11.1927 11.2096 11.2143 11.2118 11.2282C11.2141 11.2372 11.2223 11.2408 11.2272 11.2466C11.2374 11.2588 11.2464 11.2665 11.2595 11.2759C11.2761 11.2872 11.2965 11.2737 11.3001 11.2607C11.305 11.2382 11.305 11.2126 11.3001 11.1931C11.2988 11.1854 11.2932 11.1814 11.2892 11.1747C11.2826 11.1679 11.2757 11.1643 11.265 11.1634C11.2605 11.163 11.2533 11.1625 11.2471 11.1634ZM11.4594 11.3577C11.457 11.3577 11.4545 11.3588 11.4521 11.3605C11.448 11.3633 11.445 11.3691 11.445 11.3744C11.444 11.402 11.4297 11.4424 11.4549 11.4572C11.4675 11.464 11.4827 11.4653 11.4932 11.4546C11.4981 11.4465 11.5083 11.4452 11.5083 11.4307C11.5083 11.424 11.5004 11.4217 11.4972 11.4135C11.4936 11.4024 11.4953 11.3825 11.4919 11.3744C11.4882 11.3682 11.4859 11.3614 11.4786 11.3605C11.4724 11.3588 11.4656 11.3565 11.4594 11.3577ZM11.067 11.387C11.0484 11.3935 11.0301 11.4086 11.0234 11.4321C11.0153 11.446 11.0157 11.4559 11.0234 11.4644C11.0333 11.479 11.0454 11.4959 11.0626 11.5036C11.0769 11.5108 11.0957 11.5121 11.1021 11.4811C11.1094 11.4555 11.1083 11.418 11.0961 11.4082C11.0818 11.3975 11.0854 11.3825 11.067 11.387ZM11.2821 11.708C11.2524 11.9568 11.1611 12.2412 11.0724 12.4278C11.1763 12.4139 11.259 12.477 11.265 12.557C11.2911 12.4661 11.3608 12.3964 11.4436 12.4208C11.3892 12.1948 11.3221 11.9523 11.2821 11.708Z" fill="#0053A0"/>
<path fill-rule="evenodd" clip-rule="evenodd" d="M12.6851 6.28223C12.6825 6.2833 12.6802 6.28544 12.678 6.28822C12.6684 6.29934 12.6605 6.36113 12.6581 6.40196C12.6577 6.41051 12.6577 6.41736 12.6667 6.42313C12.848 6.53345 13.3913 7.14942 13.8646 7.25697C13.8854 7.26146 13.888 7.27899 13.8777 7.28947C13.3147 7.95098 13.9861 8.98408 12.8764 9.37791C12.6703 9.43457 12.4629 9.40763 12.4247 9.54489C12.4236 9.54981 12.4304 9.55601 12.4345 9.55601C13.1018 9.59834 13.5181 9.37342 13.6427 8.89685C13.8033 8.36576 13.501 7.61124 14.0703 7.19945C14.0847 7.18855 14.077 7.16973 14.0643 7.17102C13.4888 7.2296 13.1208 6.61897 12.6932 6.28373C12.6911 6.28223 12.6874 6.2818 12.6851 6.28223ZM12.8679 7.17102C12.861 7.17251 12.854 7.17465 12.848 7.17829C12.8414 7.18149 12.835 7.18812 12.8313 7.19539C12.8283 7.20159 12.8292 7.2219 12.8313 7.2358C12.8337 7.24478 12.8418 7.24991 12.8467 7.25568C12.857 7.2683 12.866 7.27407 12.879 7.28348C12.8957 7.29481 12.916 7.28262 12.9196 7.26958C12.9245 7.24713 12.9245 7.2219 12.9196 7.20202C12.9183 7.19496 12.9128 7.18898 12.9087 7.18235C12.9021 7.17551 12.8953 7.17187 12.8846 7.17102C12.8801 7.17102 12.8741 7.17016 12.8679 7.17102ZM13.0631 7.38803C13.061 7.38846 13.0586 7.38888 13.0565 7.39059C13.0524 7.3938 13.0505 7.39915 13.0505 7.40471C13.0492 7.4325 13.0353 7.47248 13.0605 7.48788C13.0725 7.49408 13.087 7.49557 13.0969 7.48467C13.1022 7.47654 13.1127 7.47526 13.1127 7.46094C13.1127 7.45409 13.1041 7.45238 13.1014 7.44426C13.0977 7.43293 13.0997 7.41262 13.0956 7.40471C13.0924 7.39829 13.0896 7.39166 13.083 7.39059C13.0761 7.38888 13.0699 7.38653 13.0631 7.38803ZM12.6614 7.39059C12.6428 7.39701 12.6244 7.41176 12.6177 7.43571C12.6096 7.4496 12.61 7.45944 12.6177 7.46799C12.6271 7.48253 12.6398 7.49963 12.6569 7.50712C12.6712 7.51439 12.69 7.51567 12.6964 7.48467C12.703 7.45901 12.7026 7.42309 12.6906 7.41326C12.6757 7.40235 12.6797 7.38611 12.6614 7.39059ZM12.8777 7.70831C12.848 7.95718 12.7567 8.24154 12.668 8.4284C12.7715 8.4145 12.8548 8.47736 12.8606 8.55797C12.8867 8.4671 12.9564 8.39676 13.0394 8.42113C12.9848 8.19578 12.9177 7.95269 12.8777 7.70831Z" fill="#0053A0"/>
<path fill-rule="evenodd" clip-rule="evenodd" d="M12.3027 4.7411C12.3006 4.74152 12.2982 4.74152 12.2957 4.74281C11.7845 4.88734 11.0941 5.47723 10.5254 5.9942C10.5087 6.01323 10.4858 6.0173 10.4672 6.01088C10.0892 5.88666 9.64961 5.87063 9.28337 5.86058C8.76083 5.81247 8.13267 5.8764 7.57057 6.05856C7.54641 6.06711 7.52824 6.04509 7.51028 6.0235C7.06535 5.52854 6.43848 5.12316 5.762 4.84094C5.74319 4.83196 5.72736 4.82384 5.70577 4.84372C5.35855 5.164 5.43488 6.11265 5.73292 6.62707C5.76799 6.70168 5.77568 6.83253 5.77654 6.87722C5.79771 7.15388 5.85158 7.39292 5.92406 7.65076C5.94202 7.8109 6.00339 7.97382 6.09554 8.11194C6.1135 8.13396 6.1058 8.15385 6.09276 8.16817C5.97495 8.28619 5.86741 8.3978 5.7496 8.5156C5.74105 8.52373 5.7248 8.5295 5.70898 8.53228C5.61127 8.54361 5.58069 8.57547 5.53451 8.68836C5.52767 8.70461 5.52853 8.71594 5.53708 8.72941C5.55375 8.76041 5.66707 8.95668 5.76072 9.06102C5.85116 9.1506 5.81738 9.2357 5.74105 9.31716C5.88537 9.42513 6.14364 9.63167 6.15904 9.66309C6.17529 9.74626 6.32196 9.77427 6.23451 9.89358C6.2576 9.89892 6.2715 9.90747 6.28946 9.9218C6.3025 9.93591 6.30528 9.94938 6.30656 9.96413C6.31832 10.0937 6.34269 10.2113 6.41453 10.3353C6.70702 10.8313 7.03478 10.7548 7.42433 11.1777C7.65738 11.431 7.88743 11.4411 8.04586 11.8879C8.03132 12.0575 8.02234 12.1614 8.09226 12.3081C8.175 12.4872 8.37876 12.4941 8.64067 12.6132C8.67573 12.6269 8.69519 12.6375 8.72084 12.6641C8.78926 12.7308 8.86794 12.7735 8.9571 12.8159C9.02915 12.8464 9.11446 12.8464 9.18074 12.8131C9.30667 12.741 9.33318 12.7932 9.56601 12.6258C9.78559 12.561 10.1441 12.2905 10.1059 11.8302C10.1072 11.8167 10.1104 11.8078 10.1144 11.796C10.1213 11.7748 10.1409 11.7537 10.1595 11.7332C10.2481 11.6273 10.3494 11.5337 10.4114 11.4054C10.424 11.3744 10.4349 11.3442 10.4631 11.3209C11.3397 10.6053 11.0297 10.9198 11.3466 10.677C11.9963 10.1829 11.5698 9.60601 12.3307 9.28338C12.2277 9.06508 12.2627 9.0452 12.598 8.58039C12.4207 8.48674 12.2974 8.3792 12.1744 8.29325C11.7889 7.99093 12.1389 7.73436 12.1706 7.58598C12.1926 7.50174 12.2257 7.39548 12.2339 7.28794C12.2749 7.04014 12.2518 6.74808 12.3784 6.61852C12.4716 6.5285 12.4986 6.03568 12.5133 5.9957C12.6155 5.67393 12.5781 5.63074 12.5967 5.42869C12.5997 5.40175 12.6093 5.38016 12.5967 5.35044C12.5255 5.15417 12.4383 4.96431 12.3378 4.77616C12.3288 4.75991 12.3222 4.7443 12.3096 4.7411C12.3076 4.74067 12.3051 4.7411 12.3027 4.7411ZM11.9991 5.49796C11.9581 5.90163 11.811 6.16888 11.8569 6.50734C11.6855 6.71793 11.743 7.11069 11.5854 7.34567C11.5751 7.35913 11.5612 7.36683 11.5446 7.36533C11.3352 7.3307 11.1886 7.06708 11.0105 6.91806C10.9923 6.90373 10.9833 6.89026 10.9893 6.87594C11.0618 6.71473 11.2281 6.55309 11.099 6.38932C11.1054 5.92001 11.666 5.84454 11.9991 5.49796ZM5.97046 5.57536C6.29929 5.75945 6.50903 6.06861 6.67067 6.0731C6.6959 6.11223 6.73182 6.15263 6.76197 6.18428C7.00399 6.45966 6.812 6.56228 7.02473 6.91549C7.04782 6.96488 7.05808 7.01299 7.02473 7.04313C6.88255 7.16692 6.75619 7.29243 6.63817 7.42841C6.4821 7.61784 6.40598 7.54814 6.3598 7.42841C6.33093 7.33968 6.30036 7.2394 6.34034 7.13721C6.36514 7.08097 6.35018 7.03479 6.30784 6.98113C6.25119 6.90159 6.205 6.81735 6.16032 6.73354C6.1445 6.70211 6.13423 6.67517 6.12803 6.63562C6.0718 6.28733 6.08207 5.7665 5.97046 5.57536ZM10.0554 9.02318C10.0794 9.02061 10.1005 9.03707 10.1033 9.06102C10.1059 9.08539 10.0879 9.10784 10.064 9.11041C10.0398 9.11276 10.0186 9.09523 10.0159 9.07086C10.0137 9.04712 10.0317 9.02596 10.0554 9.02318ZM7.80961 9.02724C7.83398 9.0251 7.85494 9.04114 7.85729 9.06551C7.86007 9.08946 7.84189 9.11041 7.81816 9.11319C7.79421 9.11597 7.77262 9.09929 7.77048 9.07535C7.7677 9.05119 7.78566 9.03002 7.80961 9.02724ZM11.428 10.0048C11.4635 10.0052 11.4744 10.0383 11.4704 10.0721C11.4325 10.5491 11.2102 10.4178 10.7022 10.8696C10.5694 10.9756 10.613 11.0787 10.4338 11.2296C10.2838 11.3699 10.1437 11.5166 10.0159 11.6981C9.99512 11.7291 9.97994 11.6962 9.97802 11.6823C9.97182 11.6444 9.94937 11.6017 9.91772 11.567C9.8337 11.4725 9.96775 11.4843 9.81659 11.2579C9.75395 11.1661 9.68147 11.2844 9.63785 11.1356C9.61091 11.0396 9.63657 11.0868 9.60279 10.864L9.69152 10.7907C9.73321 10.9096 9.79179 11.009 9.85572 11.0917C9.86513 11.1031 9.84759 11.2033 9.88672 11.2916C9.89485 11.1522 10.0195 11.0721 9.84182 10.8219C9.81873 10.7894 9.80676 10.7576 9.79821 10.7193C9.79714 10.7152 9.79628 10.712 9.79543 10.708C10.132 10.4892 10.5087 10.3107 10.8642 10.1634C10.8461 10.1837 10.8285 10.204 10.8106 10.2256C10.8024 10.2354 10.8183 10.2391 10.8232 10.2369C10.8448 10.231 10.855 10.2337 10.8721 10.2369C10.8835 10.2436 10.8822 10.2553 10.8822 10.266C10.8848 10.3075 10.8516 10.3099 10.8615 10.356C10.92 10.281 10.9758 10.2081 11.0355 10.1397C11.0496 10.1221 11.068 10.1014 11.0958 10.1046L11.1608 10.1132C11.1828 10.114 11.204 10.1099 11.2281 10.1031C11.2854 10.0807 11.3282 10.0529 11.3829 10.0159C11.4009 10.0073 11.4159 10.0048 11.428 10.0048ZM6.6495 10.0807C6.65164 10.0807 6.65528 10.0822 6.65806 10.0834C6.82675 10.1681 7.0568 10.2211 7.17418 10.2705C7.23576 10.2994 7.30204 10.3421 7.34971 10.3494C7.36938 10.3507 7.36938 10.34 7.35955 10.3282C7.34694 10.3084 7.33432 10.2895 7.32171 10.272C7.61163 10.4065 7.88016 10.5626 8.1641 10.7503C8.16324 10.7526 8.16196 10.7548 8.16153 10.7571C8.15341 10.7813 8.14528 10.8033 8.13716 10.8232C8.13267 10.8345 8.12775 10.8471 8.12326 10.857C8.11963 10.8655 8.11556 10.8745 8.11193 10.8822C8.1053 10.8965 8.09846 10.9124 8.09226 10.9245C8.08413 10.9401 8.07515 10.9585 8.06831 10.9722C8.06617 10.9776 8.06382 10.9825 8.06147 10.9878C8.05698 10.9979 8.05206 11.0077 8.04907 11.0171C8.04672 11.024 8.04501 11.0302 8.04308 11.037C8.04223 11.04 8.04095 11.0432 8.04052 11.0468C8.03859 11.0558 8.03817 11.0648 8.03731 11.0746C8.03688 11.0838 8.03688 11.0932 8.03731 11.1031C8.03817 11.1135 8.03859 11.1238 8.04052 11.1356C8.04394 11.1638 8.05206 11.1747 8.06147 11.1792C8.06425 11.1805 8.06831 11.1809 8.07152 11.1817C8.07815 11.1832 8.09119 11.1854 8.09525 11.1747C8.09846 11.1646 8.10338 11.1548 8.10787 11.1454C8.11236 11.1356 8.11642 11.1266 8.12198 11.117C8.13224 11.0982 8.14443 11.0793 8.15704 11.0607C8.15961 11.0567 8.16239 11.0522 8.16559 11.0481C8.18847 11.0158 8.2137 10.9848 8.237 10.9528C8.23936 10.9496 8.24064 10.947 8.24299 10.9442C8.2524 10.9303 8.26095 10.916 8.2695 10.9019C8.27271 10.897 8.27613 10.8916 8.27934 10.8867C8.28746 10.8726 8.29559 10.8587 8.30179 10.8444L8.48331 10.9793C8.45316 11.053 8.41446 11.1531 8.40313 11.2241C8.38196 11.3838 8.28383 11.3479 8.21049 11.2872C8.21498 11.4518 8.2276 11.5226 8.13587 11.6669C8.12369 11.6876 8.11236 11.6803 8.10487 11.6669C7.88294 11.239 7.66871 11.341 7.38799 10.8852C7.36276 10.8191 7.31508 10.7561 7.22314 10.7219C6.87721 10.5857 6.63005 10.492 6.63817 10.0946C6.6386 10.0875 6.64223 10.0807 6.6495 10.0807ZM9.70093 11.5095C9.71525 11.5104 9.72786 11.5226 9.73321 11.5377C9.80312 11.6953 9.88993 11.9724 9.86149 12.062C9.75887 12.4554 9.48178 12.5206 9.22435 12.4868C9.03129 12.4616 9.03043 12.4163 9.02723 12.2871C9.02765 12.273 9.04711 12.2677 9.06272 12.2632C9.29598 12.1898 9.43624 12.0628 9.44222 11.8204C9.4435 11.7875 9.44757 11.7528 9.43089 11.7231C9.4961 11.6814 9.55639 11.6382 9.6154 11.5841C9.61711 11.5824 9.61947 11.5805 9.62075 11.5784C9.63871 11.5499 9.65902 11.527 9.68703 11.5121C9.69195 11.5104 9.69644 11.5091 9.70093 11.5095ZM8.40441 11.5392C8.41211 11.5369 8.41895 11.5409 8.42708 11.5503C8.43285 11.5568 8.44097 11.5769 8.45936 11.5769C8.49079 11.6166 8.53462 11.6508 8.57588 11.681C8.56327 11.6934 8.55557 11.7079 8.55066 11.7231C8.53761 11.7605 8.53997 11.824 8.55066 11.882C8.55515 11.9162 8.56691 11.9463 8.58444 11.976C8.66868 12.1071 8.72854 12.1659 8.82347 12.2307C8.86302 12.2546 8.90664 12.2754 8.9571 12.2704C8.971 12.2685 8.97912 12.2779 8.97677 12.2897C8.96159 12.4828 8.87371 12.4958 8.652 12.4684C8.16068 12.3703 8.11727 12.0502 8.38325 11.567C8.38923 11.5499 8.39736 11.5414 8.40441 11.5392ZM9.04177 12.5837C9.10954 12.5822 9.18159 12.5845 9.25236 12.5935C9.26305 12.5956 9.26391 12.6046 9.26092 12.6119C9.25087 12.6384 9.22115 12.6722 9.20597 12.6852C9.19656 12.6925 9.18202 12.6953 9.16941 12.6991C9.11638 12.7132 9.03364 12.7194 9.0191 12.7173C9.00606 12.7145 8.99302 12.7096 8.98083 12.7019C8.93465 12.6758 8.89146 12.6457 8.84592 12.6179C8.83608 12.6102 8.83566 12.5984 8.8472 12.5967C8.90856 12.5907 8.97335 12.5854 9.04177 12.5837Z" fill="#0053A0"/>
<path fill-rule="evenodd" clip-rule="evenodd" d="M12.2476 5.09839C12.2448 5.09839 12.2421 5.09882 12.2391 5.09967C11.6806 5.30279 10.9879 5.70688 10.6276 6.2431C10.4822 6.36026 10.3332 6.47444 10.1788 6.57471C10.4998 6.14817 9.85942 6.11995 9.08758 6.03614C8.55713 5.99081 7.92405 6.15672 7.71795 6.26982C7.69935 6.28051 7.6878 6.30168 7.70255 6.3205C7.76007 6.40238 7.77781 6.49881 7.81181 6.58925C7.81651 6.59908 7.80689 6.59994 7.79941 6.59331C7.12785 5.99209 6.12446 5.18113 5.79007 5.10117C5.77425 5.09839 5.75992 5.10373 5.7518 5.11827C5.72807 5.16809 5.72251 5.18263 5.70412 5.23202C5.69108 5.27563 5.66713 5.30279 5.65516 5.31476C5.4638 5.50248 5.79905 5.8544 5.84908 6.49795C5.88243 6.7697 5.94807 6.89157 6.0105 7.07843C6.02012 7.10366 6.02632 7.12526 6.03039 7.15027C6.11719 7.45003 6.17385 7.75555 6.28909 8.03329C6.42635 8.47928 5.88821 8.40595 5.86618 8.77583C5.85357 9.02684 6.14819 9.16453 6.09795 9.34819C6.09474 9.35973 6.07315 9.37234 6.08533 9.38731C6.31218 9.62271 6.39984 9.56776 6.49156 9.76297C6.70451 10.1361 6.93585 9.7279 7.32134 10.272C7.61126 10.4065 7.8798 10.5626 8.16373 10.7503C8.18404 10.6868 8.20286 10.6081 8.21996 10.5055C8.25374 10.3026 8.24711 10.0978 8.11883 9.81471C8.09531 9.77344 8.10942 9.70353 8.15112 9.67039C8.17228 9.65457 8.18126 9.64837 8.18361 9.68108C8.21953 10.0574 8.52784 10.3112 8.33798 10.6671C8.33114 10.6802 8.32301 10.6909 8.32537 10.712C8.32943 10.7602 8.31959 10.8033 8.30142 10.8444L8.48294 10.9793C8.49491 10.95 8.50582 10.9254 8.51266 10.9079C8.59348 10.4897 8.65698 9.81471 8.7177 9.73068C8.72326 9.72256 8.72988 9.70994 8.7177 9.70096C8.64714 9.62806 8.56782 9.50704 8.60395 9.47048C8.64265 9.44119 8.868 9.53227 8.86672 9.69562C8.85731 9.84186 8.7147 11.1959 8.53639 11.387C8.52784 11.3969 8.53105 11.4037 8.53639 11.411C8.61422 11.5207 8.59754 11.5478 8.57017 11.5617C8.54537 11.5711 8.49363 11.567 8.47033 11.5756C8.46626 11.5769 8.4622 11.5769 8.45899 11.5769C8.49042 11.6167 8.53425 11.6509 8.57552 11.681C8.60032 11.6566 8.64222 11.6387 8.70658 11.6291C8.95801 11.5854 9.1979 11.5927 9.38156 11.6795C9.40615 11.6921 9.42154 11.7071 9.43052 11.7231C9.49573 11.6814 9.55603 11.6382 9.61504 11.5842C9.59793 11.5968 9.56159 11.5846 9.55603 11.5557C9.45532 11.0069 9.34778 10.9222 9.28428 10.5083C9.25862 10.3678 9.24644 10.2207 9.27295 10.086C9.2815 10.0424 9.28428 10.0029 9.27295 9.9556C9.2366 9.82027 9.23874 9.67894 9.2691 9.54489C9.28963 9.49977 9.34244 9.43948 9.38006 9.38859C9.41128 9.34776 9.4333 9.30008 9.45041 9.24834C9.46794 9.19467 9.64198 8.93469 9.79057 8.89364C9.80318 8.89043 9.80489 8.88295 9.80639 8.87119C9.80767 8.85814 9.7833 8.85772 9.78523 8.83783C9.79057 8.73435 10.4412 8.79015 10.7837 8.82201C10.9141 8.81047 11.0443 8.79015 11.1675 8.76728C11.1891 8.76322 11.1906 8.7707 11.1775 8.78438C11.0753 8.89684 10.9282 8.95842 10.795 8.97552C10.7698 8.97916 10.763 8.99306 10.758 9.01208C10.6819 9.39394 10.1295 9.57845 9.88913 9.53355C9.87374 9.53077 9.87331 9.54168 9.87374 9.54938C9.89127 9.74501 9.80725 9.76489 9.73434 10.3368C9.72985 10.3687 9.73113 10.3971 9.73605 10.4294C9.74738 10.5222 9.77432 10.6103 9.79506 10.708C10.1316 10.4893 10.5083 10.3107 10.8639 10.1634C10.9357 10.0822 11.0069 10.0086 11.0815 9.92589C11.1023 9.89852 11.1422 9.88184 11.1801 9.86837C11.4632 9.7495 11.7499 9.56456 11.965 9.33108C11.9712 9.32338 11.9842 9.31077 11.9801 9.29602C11.9145 8.98899 12.117 8.89813 12.2444 8.67042C12.2637 8.6407 12.2429 8.63301 12.222 8.62232C12.0819 8.53402 11.9545 8.41215 11.8566 8.29776C11.8335 8.26355 11.8236 8.22037 11.8155 8.18209C11.7142 7.70531 11.9239 7.67046 11.9618 7.39465C11.959 7.25739 11.996 7.09597 12.0392 6.95336C12.09 6.78723 12.1129 6.65232 12.1715 6.55953C12.2004 5.7289 12.4582 5.91641 12.3879 5.47362C12.3695 5.3851 12.3227 5.22432 12.2669 5.11378C12.2624 5.10331 12.2555 5.09882 12.2476 5.09839ZM12.0888 5.26045C12.0932 5.25938 12.0982 5.26002 12.1027 5.26045C12.1324 5.26259 12.1557 5.28461 12.1589 5.31219C12.1642 5.36607 12.176 5.41567 12.1867 5.46549C11.9947 5.92453 12.1063 6.55461 11.8551 6.94074C11.8425 7.27898 11.8001 7.49471 11.5991 7.62962C11.591 7.63582 11.582 7.63497 11.5724 7.62962C11.2517 7.4729 10.965 7.14621 10.6851 6.88986C11.1206 6.60635 10.7262 6.30852 11.0366 5.98311C11.398 5.60147 11.7161 5.56363 12.0464 5.27969C12.0603 5.26794 12.0746 5.26174 12.0888 5.26045ZM5.84502 5.28418C5.88457 5.28461 5.93011 5.30578 5.96282 5.33742C6.2846 5.47811 6.25574 5.60682 6.50696 5.73296C6.56041 5.76076 6.65192 5.81079 6.72247 5.82682C6.75497 5.9395 6.80799 5.93629 6.92623 6.13791C6.95466 6.1873 7.05857 6.26833 7.06798 6.33589C7.07525 6.37822 7.07439 6.415 7.07119 6.45562C7.06798 6.57022 7.02073 6.67969 7.0838 6.731C7.13554 6.75751 7.10133 6.7836 7.19498 6.83085C7.24223 6.85372 7.2666 6.87724 7.24138 6.92663C7.16654 7.05769 7.07482 7.16567 6.99122 7.2854C6.96942 7.31319 6.93756 7.33521 6.90527 7.35424C6.72375 7.46307 6.57302 7.61615 6.4101 7.76047C6.39984 7.76817 6.39492 7.76047 6.38765 7.75791C6.23158 7.66918 6.1901 7.51438 6.16936 7.30336C6.11548 6.73998 6.00238 7.22724 5.81252 5.54973C5.78686 5.47404 5.75907 5.33913 5.7828 5.30813C5.79905 5.29145 5.82064 5.28376 5.84502 5.28418ZM9.51925 6.37673C9.37472 6.64462 9.30139 6.6194 9.21415 6.72416C9.20774 6.73143 9.20111 6.74041 9.19427 6.74939C9.18807 6.75837 9.18123 6.76778 9.17503 6.77868C9.16818 6.78937 9.16327 6.79899 9.16049 6.8084C9.16049 6.80883 9.16092 6.80925 9.16049 6.80968C9.15835 6.81866 9.15685 6.82871 9.15643 6.83662C9.16049 6.92407 9.14616 6.95956 9.16904 6.98842C9.17054 6.99056 9.17139 6.99291 9.17182 6.99548C9.1731 6.99826 9.1731 7.00104 9.17353 7.0036C9.17396 7.00959 9.17267 7.01536 9.17054 7.01942C9.15429 7.00916 9.12906 6.9897 9.10746 6.97046C9.09079 6.9555 9.07689 6.9416 9.07048 6.92941C9.07048 6.92898 9.0709 6.92856 9.07048 6.92813C9.06877 6.92407 9.06791 6.92 9.06791 6.9168C9.06791 6.90782 9.06705 6.90204 9.06641 6.89691C9.06428 6.87682 9.0585 6.87981 9.0538 6.85779C9.05166 6.84667 9.04888 6.82914 9.04803 6.79856C9.0476 6.7836 9.04803 6.76478 9.04803 6.74212C9.04632 6.72779 9.0476 6.72053 9.05123 6.71432C9.05252 6.71155 9.05444 6.70855 9.05658 6.70577C9.05893 6.70299 9.06107 6.70043 9.06385 6.69722C9.19427 6.56316 9.36745 6.47444 9.51925 6.37673ZM8.47888 6.40922C8.6155 6.50202 8.76901 6.62602 8.91889 6.75067C8.92209 6.75431 8.92423 6.75794 8.92744 6.762C8.93599 6.77504 8.94241 6.79044 8.93877 6.80968C8.92979 6.86634 8.90264 6.92086 8.88104 6.97837C8.88019 6.98115 8.87848 6.98244 8.87655 6.98436C8.87484 6.98564 8.87335 6.98757 8.87121 6.98842C8.86672 6.99013 8.86137 6.98971 8.8586 6.98693C8.83166 6.95272 8.80236 6.91808 8.77799 6.88302C8.76987 6.87233 8.76131 6.86057 8.76131 6.84624C8.76238 6.83491 8.76281 6.82358 8.76281 6.81417C8.76281 6.80434 8.76238 6.79578 8.76131 6.78723C8.75918 6.77141 8.75426 6.75751 8.74742 6.74661C8.74699 6.74618 8.74742 6.74533 8.74742 6.74533C8.73309 6.72245 8.70829 6.70898 8.66874 6.6985C8.63624 6.6891 8.60802 6.67477 8.58407 6.65809C8.58364 6.65767 8.58321 6.65809 8.58279 6.65809C8.54772 6.63287 8.52249 6.59908 8.50539 6.55825C8.50539 6.55782 8.50411 6.55718 8.50411 6.55675C8.487 6.51506 8.47931 6.46631 8.47888 6.40922ZM10.2887 7.72541C10.3255 7.7237 10.3642 7.72819 10.4025 7.73674C10.4403 7.74529 10.4782 7.75833 10.5105 7.77587C10.5205 7.78207 10.5231 7.79425 10.5119 7.79831C10.4579 7.81285 10.4029 7.83124 10.3475 7.85326C10.3197 7.86395 10.2928 7.87614 10.2644 7.88833C10.125 7.9499 9.98278 8.02687 9.84146 8.09807C9.82649 8.10427 9.81665 8.10213 9.81024 8.09358C9.8081 8.09037 9.80639 8.08716 9.80489 8.08225C9.80169 8.06707 9.80233 8.0521 9.80361 8.03735C9.80447 8.02281 9.80725 8.00806 9.80767 7.99224C9.80896 7.97064 9.82243 7.96936 9.83012 7.95845C9.85664 7.94819 9.87909 7.93921 9.89769 7.93066C9.95306 7.905 9.97551 7.88704 9.99433 7.87037C10.0074 7.85903 10.0191 7.84877 10.0354 7.83616C10.0521 7.82397 10.0741 7.81007 10.11 7.79297C10.1316 7.78313 10.1532 7.77415 10.1743 7.76453C10.1959 7.75555 10.2171 7.74657 10.2378 7.7393C10.2541 7.73075 10.2729 7.72583 10.2887 7.72541ZM7.54498 7.7547C7.54776 7.7547 7.55139 7.75555 7.55353 7.7547C7.56251 7.75791 7.56978 7.76154 7.57619 7.76453C7.58239 7.76817 7.58688 7.7718 7.59137 7.77587C7.60805 7.79019 7.61489 7.80644 7.65765 7.82675C7.66792 7.83167 7.68139 7.83787 7.69678 7.84343C7.71239 7.84877 7.73099 7.85412 7.75301 7.86053C7.80603 7.87764 7.84388 7.88747 7.87937 7.90094C7.88022 7.90137 7.88022 7.90222 7.88129 7.90222C7.91636 7.91633 7.95014 7.93344 7.99183 7.96294C8.00637 7.97299 8.02155 7.98475 8.03865 7.99822C8.05533 8.01169 8.07436 8.02687 8.09488 8.0444C8.10344 8.05125 8.11113 8.05574 8.11306 8.06835C8.11349 8.07241 8.11306 8.07647 8.11156 8.08096V8.08225C8.11028 8.08674 8.10835 8.0908 8.10622 8.09529C8.10087 8.1047 8.0936 8.11282 8.08633 8.11924C8.08377 8.12095 8.08141 8.12244 8.07928 8.1233C8.07735 8.12373 8.07372 8.12373 8.06923 8.1233C8.05576 8.12052 8.04507 8.11881 8.03416 8.11475C8.02433 8.11111 8.01578 8.10662 8.00765 8.10213C7.9991 8.09764 7.99183 8.09358 7.9852 8.08823C7.97836 8.08267 7.97302 8.0769 7.96682 8.07113C7.9542 8.05937 7.94116 8.04718 7.92448 8.03457C7.91679 8.02837 7.90823 8.02238 7.89776 8.01618C7.88749 8.01019 7.87573 8.00399 7.86269 7.99822C7.84922 7.99224 7.83853 7.99095 7.82763 7.99373C7.82399 7.99501 7.81993 7.99587 7.81651 7.99822C7.80197 8.00399 7.7885 7.99715 7.77418 7.99373C7.76327 7.99138 7.75109 7.98732 7.73911 7.98283C7.73847 7.9824 7.73804 7.98283 7.73762 7.98283C7.64996 7.94819 7.54092 7.86267 7.54049 7.76047C7.54049 7.75876 7.54156 7.75705 7.54199 7.75598C7.54284 7.75555 7.5437 7.7547 7.54498 7.7547ZM7.73184 8.7335C7.75515 8.7335 7.77952 8.73478 7.8039 8.73606C7.82848 8.73841 7.85371 8.74055 7.87937 8.74461C7.89883 8.74782 7.91764 8.75188 7.93752 8.75595C7.94372 8.75766 7.95014 8.75872 7.95677 8.76044C7.96853 8.76321 7.98029 8.76664 7.99183 8.77027C8.00722 8.77433 8.02198 8.77882 8.03694 8.78438C8.05897 8.79186 8.08013 8.79999 8.10173 8.8094C8.12054 8.81752 8.13957 8.8265 8.15796 8.83612C8.17634 8.84596 8.19495 8.85729 8.2129 8.86841C8.22809 8.87781 8.24305 8.88786 8.2578 8.89813C8.26465 8.90262 8.27127 8.90582 8.27769 8.91074C8.28838 8.91886 8.29928 8.92742 8.30997 8.93597C8.31232 8.93768 8.31446 8.9396 8.31681 8.94174C8.31852 8.94324 8.32088 8.94452 8.32259 8.9458C8.32579 8.94858 8.32943 8.95179 8.33264 8.95436C8.34653 8.96654 8.36043 8.98044 8.37433 8.99348C8.3925 9.01059 8.40961 9.02812 8.42671 9.04715C8.42799 9.04843 8.42928 9.04971 8.4312 9.05121C8.44638 9.06874 8.4607 9.08713 8.4761 9.10594C8.48465 9.1177 8.49363 9.12946 8.50261 9.14122C8.50988 9.15148 8.51651 9.16046 8.52378 9.17094C8.5396 9.19425 8.55392 9.21862 8.56889 9.24428C8.57466 9.25411 8.57915 9.26715 8.57873 9.27784C8.5783 9.28148 8.57744 9.28426 8.57552 9.28789C8.56162 9.31761 8.55307 9.34776 8.54623 9.38197C8.54537 9.38688 8.54088 9.39095 8.53639 9.3918C8.53468 9.3918 8.5319 9.39137 8.53062 9.39052C8.50625 9.37555 8.4838 9.36123 8.46177 9.34541C8.44061 9.33023 8.42072 9.31355 8.40148 9.2973C8.40105 9.2973 8.39998 9.29773 8.39998 9.2973C8.38031 9.28105 8.36235 9.26395 8.34375 9.24684C8.1787 9.0944 8.0626 8.9287 7.84024 8.88423C7.83982 8.8838 7.83939 8.88423 7.83896 8.88423C7.73954 8.86434 7.62024 8.86926 7.46502 8.90946C7.41328 8.9148 7.35598 8.9148 7.29761 8.91074C7.23902 8.90668 7.17959 8.89855 7.12293 8.88829C7.09556 8.88337 7.06713 8.87739 7.04147 8.87119C7.04104 8.87119 7.04061 8.87161 7.04019 8.87119C7.01453 8.8652 6.99058 8.85814 6.96856 8.85173C6.96771 8.8513 6.96728 8.85173 6.96685 8.85173C6.92131 8.83826 6.88454 8.82394 6.85888 8.81089C6.97497 8.81303 7.10262 8.81175 7.21294 8.80683C7.32326 8.80191 7.41499 8.79464 7.45903 8.78566C7.474 8.7784 7.49196 8.77219 7.51141 8.76578C7.52937 8.76001 7.55011 8.75359 7.5717 8.7491C7.57341 8.74868 7.57577 8.7491 7.57748 8.7491C7.59672 8.74504 7.61703 8.74162 7.63905 8.73927C7.64269 8.73884 7.64547 8.73799 7.6491 8.73799C7.67561 8.73521 7.70298 8.73392 7.73184 8.7335ZM10.1829 8.92207C10.0848 8.92784 9.97722 8.96526 9.85535 9.07088C9.67084 9.25219 9.51562 9.47775 9.39674 9.69113C9.38284 9.71721 9.37835 9.74094 9.38413 9.76853C9.51925 10.3903 9.57719 10.6999 9.60242 10.8641L9.69115 10.7907C9.63791 10.6411 9.61055 10.46 9.62893 10.2423C9.69286 10.0758 9.72621 9.87906 9.75551 9.69113C9.85257 9.48502 9.86262 9.39757 9.95648 9.40313C10.0407 9.40762 10.128 9.41168 10.2068 9.39458C10.2374 9.38859 10.2627 9.37641 10.29 9.3593C10.4228 9.27934 10.5361 9.17094 10.633 9.04843C10.6447 9.03582 10.6518 9.00888 10.6456 8.99669C10.6419 8.98728 10.6362 8.98236 10.6244 8.98236C10.4848 8.99092 10.3471 8.91245 10.1829 8.92207ZM10.138 8.93725C10.1641 8.93682 10.191 8.9426 10.2167 8.95307C10.2684 8.97339 10.3063 9.01294 10.3266 9.05976C10.3368 9.08349 10.3426 9.1083 10.3437 9.13438C10.3441 9.16046 10.3396 9.1874 10.3291 9.21306C10.3189 9.23872 10.3039 9.26074 10.2855 9.27934C10.2306 9.33472 10.1446 9.35481 10.0677 9.32424C10.0546 9.31889 10.0424 9.31355 10.0313 9.30585C10.02 9.29858 10.011 9.2896 10.0016 9.28062C9.94622 9.22567 9.92591 9.14122 9.95648 9.06425C9.96055 9.05378 9.96503 9.0448 9.97059 9.03582C9.97145 9.03496 9.97273 9.03411 9.97359 9.03304C9.97594 9.02919 9.97765 9.02555 9.98043 9.02192C9.98577 9.01465 9.99176 9.00845 9.99753 9.00204L10.0029 8.99669C10.0114 8.98814 10.02 8.97959 10.03 8.97274C10.0375 8.96697 10.0465 8.96291 10.055 8.95842C10.0565 8.95799 10.0578 8.95799 10.0591 8.95714C10.0619 8.95628 10.0636 8.95393 10.0664 8.95307C10.0773 8.94858 10.0884 8.94538 10.1002 8.94324C10.1123 8.94046 10.1254 8.93768 10.138 8.93725ZM7.89391 8.94046C7.91999 8.9396 7.94501 8.94409 7.97131 8.95436C7.98371 8.95927 7.99632 8.96526 8.00765 8.97274C8.01898 8.98001 8.02796 8.98857 8.03694 8.99797C8.04678 9.00759 8.0549 9.01657 8.0626 9.02726C8.07693 9.04886 8.08783 9.0728 8.0936 9.09803C8.10173 9.13524 8.09895 9.17586 8.08377 9.21456C8.07821 9.2276 8.07243 9.23829 8.06517 9.24962C8.06517 9.25005 8.06581 9.25048 8.06517 9.2509C8.03609 9.29495 7.99012 9.32467 7.94009 9.33557C7.91486 9.34092 7.88878 9.34134 7.86269 9.33685C7.84965 9.33472 7.83618 9.33065 7.82357 9.32574C7.81052 9.32018 7.79791 9.3144 7.78679 9.30713C7.76477 9.29281 7.7466 9.27378 7.73184 9.25219C7.69571 9.19916 7.68545 9.12989 7.7111 9.06554C7.71602 9.05292 7.72329 9.04116 7.73056 9.03047C7.73719 9.01999 7.7436 9.01059 7.75151 9.00204C7.75344 9.00032 7.75558 8.99947 7.7575 8.99797C7.76605 8.98942 7.77418 8.98044 7.78401 8.97424C7.79214 8.96825 7.80069 8.96419 7.80924 8.9597C7.80967 8.9597 7.8101 8.95885 7.81052 8.95842C7.81865 8.95478 7.82763 8.95307 7.83618 8.95029C7.84431 8.94773 7.85286 8.94452 7.86141 8.94324H7.86419C7.8736 8.94131 7.88386 8.94046 7.89391 8.94046ZM7.25527 9.0386C7.26019 9.0386 7.26554 9.03945 7.27067 9.04031C7.27152 9.04031 7.27281 9.03988 7.27366 9.04031C7.28264 9.04116 7.29162 9.04437 7.30167 9.04843C7.31236 9.05292 7.32369 9.05827 7.33545 9.06554C7.34742 9.0728 7.36004 9.08093 7.37372 9.09076L7.37757 9.09354C7.38933 9.10252 7.40109 9.1115 7.41413 9.12177C7.42803 9.13267 7.44107 9.14208 7.45646 9.15426C7.48469 9.17629 7.5159 9.20045 7.54904 9.22439C7.56572 9.23658 7.58282 9.2477 7.60121 9.25946C7.61532 9.26844 7.62965 9.27891 7.64504 9.28789C7.65124 9.29153 7.65808 9.29495 7.66428 9.29858C7.68181 9.30863 7.70041 9.31804 7.71923 9.32702C7.73762 9.336 7.75707 9.34412 7.77674 9.35225C7.78316 9.35481 7.78893 9.35845 7.79534 9.3608C7.81501 9.36828 7.83575 9.37427 7.85692 9.38047C7.88215 9.38774 7.90781 9.39501 7.93432 9.40035C7.96126 9.40527 7.98884 9.40891 8.01749 9.41104C8.04635 9.41382 8.0765 9.41553 8.1075 9.41553C8.11349 9.41553 8.11798 9.41703 8.12161 9.4196C8.12503 9.42195 8.12781 9.42515 8.12867 9.43093C8.12952 9.47946 8.08505 9.49657 8.03694 9.49977C8.00851 9.5002 7.98029 9.49934 7.95142 9.49849C7.86676 9.49614 7.78273 9.48951 7.69806 9.47583C7.68908 9.47497 7.68139 9.47283 7.67283 9.4692C7.66471 9.46556 7.65765 9.46065 7.6491 9.45487C7.62302 9.43713 7.59544 9.41703 7.56764 9.39458C7.53963 9.37192 7.51312 9.34861 7.48747 9.32574C7.46095 9.30222 7.43658 9.28062 7.41541 9.26074C7.39467 9.2415 7.37821 9.22482 7.36645 9.21306C7.35426 9.20237 7.34486 9.19339 7.33673 9.18484C7.32904 9.17671 7.32241 9.16859 7.31685 9.16239C7.30659 9.14977 7.3021 9.14122 7.29632 9.1331C7.29312 9.12903 7.28991 9.1254 7.28628 9.12177C7.27516 9.11001 7.25698 9.09739 7.21615 9.07537C7.21123 9.07323 7.20802 9.07131 7.20759 9.06831C7.20717 9.06639 7.20717 9.06511 7.20888 9.06276C7.21037 9.06062 7.21166 9.05784 7.21422 9.0557C7.21871 9.05206 7.22427 9.04929 7.22876 9.04715C7.23282 9.0448 7.23689 9.04266 7.24138 9.04159C7.24587 9.04031 7.25036 9.03902 7.25527 9.0386Z" fill="#FDBE11"/>
</g>
<defs>
<clipPath id="clip0_521_4897">
<rect width="18" height="18" fill="white"/>
</clipPath>
</defs>
</svg>
