<svg width="58" height="47" viewBox="0 0 58 47" fill="none" xmlns="http://www.w3.org/2000/svg">
<g filter="url(#filter0_d_521_2740)">
<path d="M37.2563 29.194V25.4354H36.1732C34.2764 22.3103 30.0863 20.1383 25.2234 20.1383C20.3606 20.1383 16.1693 22.3103 14.2725 25.4354H13.1894V29.194C13.1894 34.1967 18.577 38.2508 25.2234 38.2508C31.8698 38.2508 37.2563 34.2024 37.2563 29.194Z" fill="#E86124"/>
<path d="M16.7449 29.194V25.4354H17.828C19.4902 22.6977 22.9139 20.6925 27.0012 20.2361C26.4109 20.1708 25.8174 20.1382 25.2234 20.1383C20.3594 20.1383 16.1693 22.3103 14.2725 25.4354H13.1894V29.194C13.1894 34.1967 18.577 38.2508 25.2234 38.2508C25.8174 38.2512 26.4109 38.2182 27.0012 38.1519C21.1974 37.5058 16.7449 33.7425 16.7449 29.194Z" fill="#DC4A26"/>
<path d="M25.2234 34.4923C31.8696 34.4923 37.2574 30.4374 37.2574 25.4355C37.2574 20.4335 31.8696 16.3786 25.2234 16.3786C18.5772 16.3786 13.1894 20.4335 13.1894 25.4355C13.1894 30.4374 18.5772 34.4923 25.2234 34.4923Z" fill="#F0E92D"/>
<path d="M25.2227 31.9892C30.0322 31.9892 33.9312 29.055 33.9312 25.4355C33.9312 21.816 30.0322 18.8818 25.2227 18.8818C20.4131 18.8818 16.5142 21.816 16.5142 25.4355C16.5142 29.055 20.4131 31.9892 25.2227 31.9892Z" fill="#EF8521"/>
<path d="M19.0694 26.5714C19.0694 22.9208 21.8435 19.8452 25.621 18.8885C25.4892 18.8885 25.3563 18.8805 25.2233 18.8805C20.4125 18.8805 16.5137 21.8147 16.5137 25.4342C16.5137 27.7637 18.1319 29.8034 20.5593 30.9704C19.5974 29.703 19.0746 28.1594 19.0694 26.5714Z" fill="#E86124"/>
<path d="M35.9855 23.7521V19.9923H34.9025C33.0045 16.8672 28.8155 14.6953 23.9515 14.6953C19.0875 14.6953 14.8986 16.8672 13.0006 19.9923H11.9175V23.7521C11.9175 28.7536 17.3051 32.8089 23.9515 32.8089C30.5979 32.8089 35.9855 28.7536 35.9855 23.7521Z" fill="#E86124"/>
<path d="M15.4742 23.7521V19.9923H16.5573C18.2183 17.2558 21.6432 15.2506 25.7293 14.7941C25.139 14.7284 24.5455 14.6954 23.9515 14.6953C19.0875 14.6953 14.8986 16.8672 13.0006 19.9923H11.9175V23.7521C11.9175 28.7536 17.3051 32.8089 23.9515 32.8089C24.5455 32.8087 25.139 32.7757 25.7293 32.71C19.9267 32.0638 15.4742 28.2994 15.4742 23.7521Z" fill="#DC4A26"/>
<path d="M23.9515 29.0492C30.5977 29.0492 35.9855 24.9943 35.9855 19.9924C35.9855 14.9904 30.5977 10.9356 23.9515 10.9356C17.3053 10.9356 11.9175 14.9904 11.9175 19.9924C11.9175 24.9943 17.3053 29.0492 23.9515 29.0492Z" fill="#F0E92D"/>
<path d="M23.9513 26.5461C28.7608 26.5461 32.6598 23.6119 32.6598 19.9924C32.6598 16.3729 28.7608 13.4386 23.9513 13.4386C19.1417 13.4386 15.2428 16.3729 15.2428 19.9924C15.2428 23.6119 19.1417 26.5461 23.9513 26.5461Z" fill="#EF8521"/>
<path d="M17.7985 21.1295C17.7985 17.479 20.5726 14.4033 24.3501 13.4467C24.2171 13.4467 24.0854 13.4386 23.9513 13.4386C19.1416 13.4386 15.2428 16.3729 15.2428 19.9924C15.2428 22.3218 16.861 24.3616 19.2884 25.5286C18.3257 24.2616 17.8028 22.7177 17.7985 21.1295Z" fill="#E86124"/>
<path d="M37.2563 18.2586V14.4988H36.1732C34.2764 11.3737 30.0863 9.20176 25.2234 9.20176C20.3606 9.20176 16.1693 11.3737 14.2725 14.4988H13.1894V18.2586C13.1894 23.2601 18.577 27.3142 25.2234 27.3142C31.8698 27.3142 37.2563 23.2601 37.2563 18.2586Z" fill="#E86124"/>
<path d="M16.7449 18.2586V14.4988H17.828C19.4902 11.7612 22.9139 9.75596 27.0012 9.30064C26.4109 9.2344 25.8174 9.20139 25.2234 9.20176C20.3594 9.20176 16.1693 11.3737 14.2725 14.4988H13.1894V18.2586C13.1894 23.2601 18.577 27.3142 25.2234 27.3142C25.8174 27.3144 26.4109 27.2818 27.0012 27.2165C21.1974 26.5692 16.7449 22.8048 16.7449 18.2586Z" fill="#DC4A26"/>
<path d="M25.2234 23.5555C31.8696 23.5555 37.2574 19.5006 37.2574 14.4987C37.2574 9.49672 31.8696 5.44185 25.2234 5.44185C18.5772 5.44185 13.1894 9.49672 13.1894 14.4987C13.1894 19.5006 18.5772 23.5555 25.2234 23.5555Z" fill="#F0E92D"/>
<path d="M25.2227 21.0524C30.0322 21.0524 33.9312 18.1182 33.9312 14.4987C33.9312 10.8791 30.0322 7.94493 25.2227 7.94493C20.4131 7.94493 16.5142 10.8791 16.5142 14.4987C16.5142 18.1182 20.4131 21.0524 25.2227 21.0524Z" fill="#EF8521"/>
<path d="M19.0694 15.6347C19.0694 11.9853 21.8435 8.90844 25.621 7.95183C25.4892 7.95183 25.3563 7.94493 25.2233 7.94493C20.4125 7.94493 16.5137 10.8792 16.5137 14.4987C16.5137 16.8281 18.1319 18.8678 20.5593 20.0349C19.5972 18.7671 19.0744 17.2231 19.0694 15.6347Z" fill="#E86124"/>
<path d="M35.9855 12.8165V9.05673H34.9025C33.0045 5.93163 28.8155 3.7597 23.9515 3.7597C19.0875 3.7597 14.8986 5.93163 13.0006 9.05673H11.9175V12.8165C11.9175 17.8181 17.3051 21.8722 23.9515 21.8722C30.5979 21.8722 35.9855 17.8181 35.9855 12.8165Z" fill="#E86124"/>
<path d="M15.4742 12.8165V9.05673H16.5573C18.2183 6.31911 21.6432 4.3139 25.7293 3.85744C25.139 3.79212 24.5455 3.75949 23.9515 3.7597C19.0875 3.7597 14.8986 5.93163 13.0006 9.05673H11.9175V12.8165C11.9175 17.8181 17.3051 21.8722 23.9515 21.8722C24.5455 21.8726 25.139 21.8396 25.7293 21.7733C19.9267 21.1271 15.4742 17.3627 15.4742 12.8165Z" fill="#DC4A26"/>
<path d="M23.9515 18.1136C30.5977 18.1136 35.9855 14.0587 35.9855 9.0568C35.9855 4.05487 30.5977 0 23.9515 0C17.3053 0 11.9175 4.05487 11.9175 9.0568C11.9175 14.0587 17.3053 18.1136 23.9515 18.1136Z" fill="#F0E92D"/>
<path d="M23.9513 15.6106C28.7608 15.6106 32.6598 12.6764 32.6598 9.05685C32.6598 5.43732 28.7608 2.50311 23.9513 2.50311C19.1417 2.50311 15.2428 5.43732 15.2428 9.05685C15.2428 12.6764 19.1417 15.6106 23.9513 15.6106Z" fill="#EF8521"/>
<path d="M17.7985 10.1927C17.7985 6.54218 20.5726 3.46652 24.3501 2.50991C24.2171 2.50991 24.0854 2.50186 23.9513 2.50186C19.1416 2.50186 15.2428 5.43609 15.2428 9.0556C15.2428 11.385 16.861 13.4248 19.2884 14.5918C18.3261 13.3246 17.8032 11.7809 17.7985 10.1927Z" fill="#E86124"/>
<path d="M58 30.929V27.1692H56.917C55.019 24.0441 50.83 21.8722 45.966 21.8722C41.102 21.8722 36.9119 24.0441 35.0151 27.1692H33.932V30.929C33.932 35.9305 39.3196 39.9858 45.966 39.9858C52.6124 39.9858 58 35.9271 58 30.929Z" fill="#E86124"/>
<path d="M37.4875 30.929V27.1692H38.5706C40.2328 24.4327 43.6565 22.4264 47.7438 21.971C47.1535 21.9048 46.56 21.8718 45.966 21.8722C41.102 21.8722 36.9119 24.0441 35.0151 27.1692H33.932V30.929C33.932 35.9305 39.3196 39.9858 45.966 39.9858C46.56 39.9856 47.1535 39.9526 47.7438 39.8869C41.9412 39.2396 37.4875 35.4764 37.4875 30.929Z" fill="#DC4A26"/>
<path d="M45.966 36.2261C52.6122 36.2261 58 32.1712 58 27.1693C58 22.1673 52.6122 18.1125 45.966 18.1125C39.3198 18.1125 33.932 22.1673 33.932 27.1693C33.932 32.1712 39.3198 36.2261 45.966 36.2261Z" fill="#F0E92D"/>
<path d="M45.9658 33.7231C50.7753 33.7231 54.6743 30.7888 54.6743 27.1693C54.6743 23.5498 50.7753 20.6156 45.9658 20.6156C41.1562 20.6156 37.2573 23.5498 37.2573 27.1693C37.2573 30.7888 41.1562 33.7231 45.9658 33.7231Z" fill="#EF8521"/>
<path d="M39.8115 28.3053C39.8115 24.6559 42.5856 21.5791 46.3631 20.6225C46.2313 20.6225 46.0984 20.6156 45.9655 20.6156C41.1558 20.6156 37.2558 23.5498 37.2558 27.1693C37.2558 29.4988 38.8741 31.5385 41.3014 32.7055C40.3391 31.4378 39.8163 29.8938 39.8115 28.3053Z" fill="#E86124"/>
<path d="M56.1631 24.6674V20.9076H55.08C53.1832 17.7825 48.9931 15.6106 44.1291 15.6106C39.2651 15.6106 35.0761 17.7825 33.1793 20.9076H32.0962V24.6674C32.0962 29.669 37.4839 33.7231 44.1291 33.7231C50.7743 33.7231 56.1631 29.669 56.1631 24.6674Z" fill="#E86124"/>
<path d="M35.6518 24.6674V20.9076H36.7314C38.3936 18.17 41.8173 16.1648 45.9045 15.7083C45.315 15.6431 44.7223 15.6105 44.1291 15.6106C39.2663 15.6106 35.0761 17.7825 33.1793 20.9076H32.0962V24.6674C32.0962 29.669 37.4839 33.7231 44.1291 33.7231C44.7234 33.7233 45.3173 33.6907 45.908 33.6253C40.1043 32.978 35.6518 29.2136 35.6518 24.6674Z" fill="#DC4A26"/>
<path d="M44.1288 29.9643C50.775 29.9643 56.1628 25.9094 56.1628 20.9075C56.1628 15.9056 50.775 11.8507 44.1288 11.8507C37.4826 11.8507 32.0948 15.9056 32.0948 20.9075C32.0948 25.9094 37.4826 29.9643 44.1288 29.9643Z" fill="#F0E92D"/>
<path d="M44.129 27.4613C48.9386 27.4613 52.8375 24.5271 52.8375 20.9075C52.8375 17.288 48.9386 14.3538 44.129 14.3538C39.3195 14.3538 35.4205 17.288 35.4205 20.9075C35.4205 24.5271 39.3195 27.4613 44.129 27.4613Z" fill="#EF8521"/>
<path d="M37.9762 22.0435C37.9762 18.3941 40.7503 15.3173 44.5278 14.3607C44.396 14.3561 44.2631 14.3538 44.129 14.3538C39.3194 14.3538 35.4205 17.288 35.4205 20.9075C35.4205 23.237 37.0388 25.2767 39.4662 26.4437C38.504 25.1759 37.9812 23.632 37.9762 22.0435Z" fill="#E86124"/>
<path d="M21.3489 23.8418L18.532 21.3353L17.8096 22.1401C14.2032 21.4629 9.78305 23.122 6.54077 26.7277C3.29849 30.3334 2.13219 34.8923 3.21064 38.3773L2.48821 39.1821L5.30512 41.6886C9.05368 45.023 15.6839 43.7318 20.1144 38.8039C24.545 33.8759 25.0975 27.1761 21.3489 23.8418Z" fill="#E86124"/>
<path d="M7.67438 39.0499L4.85747 36.5434L5.57991 35.7385C4.6367 32.6813 5.41346 28.8088 7.79922 25.4721C7.35614 25.8671 6.93588 26.2867 6.54045 26.7289C3.30395 30.3357 2.13188 34.8923 3.20917 38.3796L2.48674 39.1844L5.30365 41.6909C9.05221 45.0253 15.6824 43.7341 20.1129 38.8061C20.509 38.3674 20.8799 37.9067 21.2238 37.4264C16.8707 41.2885 11.082 42.0819 7.67438 39.0499Z" fill="#DC4A26"/>
<path d="M17.2948 36.2961C21.7255 31.3685 22.279 24.6707 18.5309 21.3361C14.7829 18.0014 8.15259 19.2928 3.72182 24.2204C-0.708945 29.148 -1.26238 35.8459 2.48568 39.1805C6.23375 42.5151 12.864 41.2237 17.2948 36.2961Z" fill="#F0E92D"/>
<path d="M15.4191 34.6275C18.6254 31.0616 19.026 26.2147 16.3138 23.8017C13.6016 21.3887 8.80371 22.3233 5.59735 25.8892C2.39099 29.4551 1.99039 34.3019 4.70259 36.715C7.41479 39.128 12.2127 38.1934 15.4191 34.6275Z" fill="#EF8521"/>
<path d="M7.25594 35.5822C4.5211 33.1493 4.06221 29.0446 5.86887 25.6033C5.77717 25.6976 5.68701 25.7941 5.59839 25.893C2.39194 29.4573 1.99085 34.306 4.70373 36.7193C6.44913 38.2727 9.05913 38.4371 11.5524 37.4092C9.95898 37.2797 8.45106 36.6385 7.25594 35.5822Z" fill="#E86124"/>
</g>
<defs>
<filter id="filter0_d_521_2740" x="0" y="0" width="58" height="46.6667" filterUnits="userSpaceOnUse" color-interpolation-filters="sRGB">
<feFlood flood-opacity="0" result="BackgroundImageFix"/>
<feColorMatrix in="SourceAlpha" type="matrix" values="0 0 0 0 0 0 0 0 0 0 0 0 0 0 0 0 0 0 127 0" result="hardAlpha"/>
<feOffset dy="3.10874"/>
<feComposite in2="hardAlpha" operator="out"/>
<feColorMatrix type="matrix" values="0 0 0 0 0 0 0 0 0 0 0 0 0 0 0 0 0 0 0.15 0"/>
<feBlend mode="normal" in2="BackgroundImageFix" result="effect1_dropShadow_521_2740"/>
<feBlend mode="normal" in="SourceGraphic" in2="effect1_dropShadow_521_2740" result="shape"/>
</filter>
</defs>
</svg>
