<svg width="24" height="24" viewBox="0 0 24 24" fill="none" xmlns="http://www.w3.org/2000/svg">
<path d="M17.7452 10.7508C18.336 11.3415 18.8474 12.0581 19.2371 12.82C19.4257 13.1888 19.2797 13.6407 18.9109 13.8293C18.5421 14.0179 18.0903 13.8719 17.9017 13.5031C17.5813 12.8767 17.1611 12.288 16.6845 11.8114C14.1219 9.24875 9.96699 9.24875 7.40433 11.8114C6.90651 12.3092 6.5021 12.869 6.19074 13.4845C6.00378 13.8542 5.55259 14.0022 5.18297 13.8153C4.81335 13.6283 4.66527 13.1771 4.85223 12.8075C5.23503 12.0507 5.73307 11.3613 6.34367 10.7508C9.49211 7.60231 14.5967 7.60231 17.7452 10.7508ZM15.6433 13.8196C16.0909 14.2672 16.4592 14.8169 16.7154 15.4017C16.8817 15.7811 16.7089 16.2235 16.3295 16.3897C15.9501 16.556 15.5078 16.3832 15.3416 16.0038C15.1585 15.586 14.8948 15.1924 14.5827 14.8803C13.1799 13.4775 10.9056 13.4775 9.5029 14.8803C9.19239 15.1908 8.94028 15.5689 8.7557 15.9908C8.58966 16.3703 8.14743 16.5433 7.76795 16.3772C7.38847 16.2112 7.21545 15.769 7.3815 15.3895C7.63895 14.8011 7.99533 14.2665 8.44224 13.8196C10.4308 11.8311 13.6548 11.8311 15.6433 13.8196ZM20.4483 8.27886C20.9574 8.78791 21.438 9.36949 21.8565 9.97574C22.0917 10.3166 22.0061 10.7837 21.6652 11.019C21.3243 11.2543 20.8572 11.1687 20.6219 10.8278C20.2539 10.2946 19.8311 9.78291 19.3877 9.33952C15.3076 5.25947 8.69255 5.25947 4.6125 9.33952C4.19062 9.7614 3.77221 10.273 3.39047 10.8233C3.15437 11.1636 2.68707 11.2481 2.34673 11.012C2.0064 10.7759 1.9219 10.3086 2.15801 9.96828C2.58817 9.34822 3.06258 8.76812 3.55184 8.27886C8.21768 3.61302 15.7825 3.61302 20.4483 8.27886ZM13.0609 16.4393C13.6467 17.0251 13.6467 17.975 13.0609 18.5608C12.475 19.1467 11.5252 19.1467 10.9393 18.5608C10.3534 17.975 10.3534 17.0251 10.9393 16.4393C11.5252 15.8534 12.475 15.8534 13.0609 16.4393Z" fill="white"/>
</svg>
