<svg width="32" height="32" viewBox="0 0 32 32" fill="none" xmlns="http://www.w3.org/2000/svg">
<path d="M24 17.6V13.3333C24 9.46666 21.2 6.13332 17.3333 5.46666V3.99999C17.3333 3.19999 16.8 2.66666 16 2.66666C15.2 2.66666 14.6666 3.19999 14.6666 3.99999V5.46666C10.8 6.13332 7.99998 9.46666 7.99998 13.3333V17.6C6.39998 18.1333 5.33331 19.6 5.33331 21.3333V24C5.33331 24.8 5.86665 25.3333 6.66665 25.3333H10.8C11.4666 28.1333 14.4 29.8667 17.2 29.2C19.0666 28.6667 20.5333 27.2 21.0666 25.3333H25.3333C26.1333 25.3333 26.6666 24.8 26.6666 24V21.3333C26.6666 19.6 25.6 18.1333 24 17.6ZM16 26.6667C15.0666 26.6667 14.1333 26.1333 13.7333 25.3333H18.4C17.8666 26.1333 16.9333 26.6667 16 26.6667Z" fill="#BAC1CE"/>
</svg>
