<svg width="14" height="12" viewBox="0 0 14 12" fill="none" xmlns="http://www.w3.org/2000/svg">
<path d="M0 0.662C0.00122003 0.486919 0.0712669 0.319345 0.195009 0.195478C0.31875 0.071612 0.486253 0.00139643 0.661333 0H12.672C13.0373 0 13.3333 0.296667 13.3333 0.662V11.338C13.3321 11.5131 13.2621 11.6807 13.1383 11.8045C13.0146 11.9284 12.8471 11.9986 12.672 12H0.661333C0.485876 11.9998 0.317665 11.93 0.19366 11.8059C0.0696547 11.6817 -8.89701e-08 11.5135 0 11.338V0.662ZM1.33333 1.33333V10.6667H12V1.33333H1.33333ZM5.748 3.61L9.00067 5.778C9.03724 5.80234 9.06724 5.83535 9.08799 5.87408C9.10874 5.91281 9.11959 5.95606 9.11959 6C9.11959 6.04394 9.10874 6.08719 9.08799 6.12592C9.06724 6.16465 9.03724 6.19766 9.00067 6.222L5.74733 8.39C5.70722 8.41659 5.66066 8.43183 5.61258 8.4341C5.56451 8.43637 5.51672 8.42559 5.47427 8.4029C5.43183 8.38021 5.39632 8.34645 5.37151 8.30522C5.34669 8.26398 5.3335 8.21679 5.33333 8.16867V3.83133C5.33342 3.7831 5.34659 3.73579 5.37144 3.69445C5.39629 3.65311 5.43188 3.61929 5.47443 3.59657C5.51698 3.57386 5.5649 3.56312 5.61307 3.56548C5.66125 3.56784 5.70788 3.58323 5.748 3.61Z" fill="#929393"/>
</svg>
