<svg width="46" height="46" viewBox="0 0 46 46" fill="none" xmlns="http://www.w3.org/2000/svg">
<rect width="46" height="46" rx="5" fill="#2E2E2E"/>
<g clip-path="url(#clip0_521_3417)">
<path d="M16.5003 14.3442C13.8787 16.3267 12.167 19.4575 12.167 23C12.167 24.5817 12.5137 26.0875 13.1312 27.4525L16.5003 25.5025V14.3442Z" fill="white" fill-opacity="0.5"/>
<path d="M21.917 22.3717V12.2208C20.7687 12.34 19.6745 12.6325 18.667 13.0767V24.2567L21.917 22.3717Z" fill="white" fill-opacity="0.5"/>
<path d="M23.0007 24.2458L14.2148 29.3159C14.8757 30.2259 15.6665 31.0384 16.5765 31.6992L26.2507 26.1309L23.0007 24.2458Z" fill="white" fill-opacity="0.5"/>
<path d="M24.084 18.6233V22.3717L32.8698 27.4417C33.3248 26.4342 33.6281 25.3508 33.7581 24.2133L24.084 18.6233Z" fill="white" fill-opacity="0.5"/>
<path d="M18.7432 32.9666C20.054 33.5191 21.484 33.8333 23.0007 33.8333C26.619 33.8333 29.8148 32.0458 31.7865 29.3266L28.4173 27.3766L18.7432 32.9666Z" fill="white" fill-opacity="0.5"/>
<path d="M33.7473 21.7108C33.1515 16.695 29.1323 12.7192 24.084 12.2208V16.1208L33.7473 21.7108Z" fill="white" fill-opacity="0.5"/>
</g>
<defs>
<clipPath id="clip0_521_3417">
<rect width="26" height="26" fill="white" transform="translate(10 10)"/>
</clipPath>
</defs>
</svg>
