<svg width="24" height="24" viewBox="0 0 24 24" fill="none" xmlns="http://www.w3.org/2000/svg">
<path d="M21.9845 10.7531L21.2907 3.42656C21.2556 3.04687 20.9532 2.74687 20.5735 2.70937L13.247 2.01562H13.2376C13.1626 2.01562 13.104 2.03906 13.0595 2.08359L2.08368 13.0594C2.06195 13.0811 2.04471 13.1068 2.03295 13.1352C2.02119 13.1635 2.01514 13.1939 2.01514 13.2246C2.01514 13.2553 2.02119 13.2857 2.03295 13.3141C2.04471 13.3424 2.06195 13.3682 2.08368 13.3898L10.6102 21.9164C10.6548 21.9609 10.7134 21.9844 10.7766 21.9844C10.8399 21.9844 10.8985 21.9609 10.9431 21.9164L21.9188 10.9406C21.9657 10.8914 21.9891 10.8234 21.9845 10.7531ZM10.7743 19.5633L4.4368 13.2258L13.8048 3.85781L19.5938 4.40625L20.1423 10.1953L10.7743 19.5633ZM15.9376 6C14.8009 6 13.8751 6.92578 13.8751 8.0625C13.8751 9.19922 14.8009 10.125 15.9376 10.125C17.0743 10.125 18.0001 9.19922 18.0001 8.0625C18.0001 6.92578 17.0743 6 15.9376 6ZM15.9376 8.8125C15.5227 8.8125 15.1876 8.47734 15.1876 8.0625C15.1876 7.64766 15.5227 7.3125 15.9376 7.3125C16.3524 7.3125 16.6876 7.64766 16.6876 8.0625C16.6876 8.47734 16.3524 8.8125 15.9376 8.8125Z" fill="#75839D"/>
</svg>
