<svg width="22" height="22" viewBox="0 0 22 22" fill="none" xmlns="http://www.w3.org/2000/svg">
<path d="M9.51948 3.49577L1.19252 15.971C1.09647 16.1149 1.04023 16.2834 1.02988 16.4582C1.01953 16.6329 1.05547 16.8073 1.1338 16.9623C1.21213 17.1174 1.32988 17.2473 1.47428 17.338C1.61869 17.4286 1.78425 17.4766 1.95305 17.4766L18.607 17.4766C18.7759 17.4767 18.9415 17.4289 19.0861 17.3383C19.2306 17.2478 19.3485 17.1179 19.4269 16.9628C19.5054 16.8077 19.5414 16.6332 19.5311 16.4584C19.5208 16.2836 19.4645 16.115 19.3684 15.971L11.0415 3.49577C10.9559 3.36868 10.8421 3.26488 10.7096 3.19321C10.5771 3.12154 10.4299 3.08411 10.2805 3.08411C10.131 3.08411 9.98383 3.12154 9.85134 3.19321C9.71885 3.26488 9.605 3.36868 9.51948 3.49577Z" fill="#22CC13"/>
</svg>
