<svg width="46" height="46" viewBox="0 0 46 46" fill="none" xmlns="http://www.w3.org/2000/svg">
<rect width="46" height="46" rx="5" fill="#2E2E2E"/>
<g clip-path="url(#clip0_521_3441)">
<path d="M13.2719 26.9217C13.1853 29.5433 13.6186 31.6233 13.9978 32.0025C14.3769 32.3817 16.4678 32.8258 19.0786 32.7283L13.2719 26.9217Z" fill="white" fill-opacity="0.5"/>
<path d="M24.1704 13.5533C21.6462 14.0083 18.9812 15.005 16.9987 16.9983C15.0162 18.9916 14.0087 21.6458 13.5537 24.17L21.8195 32.4358C24.3545 31.9916 27.0087 30.9841 28.9912 28.9908C30.9737 26.9975 31.9812 24.3433 32.4362 21.8191L24.1704 13.5533ZM20.7254 26.7916L19.2087 25.275L25.2754 19.2083L26.792 20.725L20.7254 26.7916Z" fill="white" fill-opacity="0.5"/>
<path d="M32.7285 19.0783C32.8152 16.4566 32.3819 14.3766 32.0027 13.9975C31.6235 13.6183 29.5327 13.1741 26.9219 13.2716L32.7285 19.0783Z" fill="white" fill-opacity="0.5"/>
</g>
<defs>
<clipPath id="clip0_521_3441">
<rect width="26" height="26" fill="white" transform="translate(10 10)"/>
</clipPath>
</defs>
</svg>
