<svg width="68" height="70" viewBox="0 0 68 70" fill="none" xmlns="http://www.w3.org/2000/svg">
<g filter="url(#filter0_d_521_2713)">
<path d="M28.3776 3.4932C30.675 -1.16441 37.3164 -1.1644 39.6138 3.49321L45.2642 14.9485C46.1764 16.7979 47.9404 18.0799 49.981 18.3766L62.6214 20.2143C67.7585 20.9612 69.8103 27.2737 66.094 30.8981L56.9429 39.8232C55.4675 41.2622 54.7942 43.3348 55.1424 45.3662L57.3021 57.965C58.1794 63.0829 52.807 66.9849 48.2115 64.5676L36.912 58.6238C35.0864 57.6635 32.905 57.6635 31.0794 58.6238L19.78 64.5676C15.1845 66.9849 9.81202 63.0829 10.6893 57.965L12.849 45.3662C13.1972 43.3348 12.524 41.2622 11.0485 39.8232L1.89743 30.8981C-1.81884 27.2737 0.232892 20.9612 5.36998 20.2143L18.0104 18.3766C20.0511 18.0799 21.815 16.7979 22.7272 14.9485L28.3776 3.4932Z" fill="url(#paint0_linear_521_2713)"/>
</g>
<defs>
<filter id="filter0_d_521_2713" x="0" y="0" width="67.9914" height="70" filterUnits="userSpaceOnUse" color-interpolation-filters="sRGB">
<feFlood flood-opacity="0" result="BackgroundImageFix"/>
<feColorMatrix in="SourceAlpha" type="matrix" values="0 0 0 0 0 0 0 0 0 0 0 0 0 0 0 0 0 0 127 0" result="hardAlpha"/>
<feOffset dy="4.66312"/>
<feComposite in2="hardAlpha" operator="out"/>
<feColorMatrix type="matrix" values="0 0 0 0 1 0 0 0 0 0.392 0 0 0 0 0.2 0 0 0 1 0"/>
<feBlend mode="normal" in2="BackgroundImageFix" result="effect1_dropShadow_521_2713"/>
<feBlend mode="normal" in="SourceGraphic" in2="effect1_dropShadow_521_2713" result="shape"/>
</filter>
<linearGradient id="paint0_linear_521_2713" x1="33.9957" y1="-7.89657" x2="33.9957" y2="78.7519" gradientUnits="userSpaceOnUse">
<stop offset="0.25" stop-color="#FFEE37"/>
<stop offset="1" stop-color="#F78A3B"/>
</linearGradient>
</defs>
</svg>
