<svg width="20" height="20" viewBox="0 0 20 20" fill="none" xmlns="http://www.w3.org/2000/svg">
<path d="M11.9665 11.8583C11.4094 12.3075 10.7154 12.5524 9.99984 12.5524C9.28426 12.5524 8.59024 12.3075 8.03317 11.8583C7.86299 11.7169 7.64359 11.6488 7.42324 11.6691C7.20288 11.6895 6.99962 11.7965 6.85817 11.9667C6.71673 12.1368 6.64867 12.3562 6.66899 12.5766C6.68931 12.7969 6.79633 13.0002 6.96651 13.1417C7.81762 13.8522 8.89114 14.2414 9.99984 14.2414C11.1085 14.2414 12.1821 13.8522 13.0332 13.1417C13.2034 13.0002 13.3104 12.7969 13.3307 12.5766C13.351 12.3562 13.283 12.1368 13.1415 11.9667C13.0715 11.8824 12.9855 11.8127 12.8886 11.7617C12.7916 11.7107 12.6856 11.6792 12.5764 11.6691C12.3561 11.6488 12.1367 11.7169 11.9665 11.8583ZM7.49984 9.16666C7.66466 9.16666 7.82578 9.11778 7.96282 9.02621C8.09986 8.93465 8.20667 8.8045 8.26974 8.65223C8.33281 8.49995 8.34932 8.3324 8.31716 8.17075C8.28501 8.0091 8.20564 7.86061 8.0891 7.74407C7.97255 7.62752 7.82407 7.54816 7.66242 7.516C7.50076 7.48385 7.33321 7.50035 7.18094 7.56342C7.02867 7.6265 6.89852 7.73331 6.80695 7.87035C6.71538 8.00739 6.66651 8.16851 6.66651 8.33332C6.66651 8.55434 6.7543 8.7663 6.91059 8.92258C7.06687 9.07886 7.27883 9.16666 7.49984 9.16666ZM12.4998 7.49999C12.335 7.49999 12.1739 7.54886 12.0369 7.64043C11.8998 7.732 11.793 7.86215 11.7299 8.01442C11.6669 8.16669 11.6504 8.33425 11.6825 8.4959C11.7147 8.65755 11.794 8.80604 11.9106 8.92258C12.0271 9.03912 12.1756 9.11849 12.3373 9.15064C12.4989 9.1828 12.6665 9.1663 12.8187 9.10322C12.971 9.04015 13.1012 8.93334 13.1927 8.7963C13.2843 8.65926 13.3332 8.49814 13.3332 8.33332C13.3332 8.11231 13.2454 7.90035 13.0891 7.74407C12.9328 7.58779 12.7209 7.49999 12.4998 7.49999ZM9.99984 1.66666C8.35166 1.66666 6.7405 2.1554 5.37009 3.07108C3.99968 3.98675 2.93158 5.28824 2.30084 6.81096C1.67011 8.33368 1.50509 10.0092 1.82663 11.6257C2.14817 13.2423 2.94185 14.7271 4.10728 15.8925C5.27272 17.058 6.75758 17.8517 8.37409 18.1732C9.9906 18.4947 11.6662 18.3297 13.1889 17.699C14.7116 17.0683 16.0131 16.0002 16.9288 14.6297C17.8444 13.2593 18.3332 11.6482 18.3332 9.99999C18.3332 8.90564 18.1176 7.82201 17.6988 6.81096C17.28 5.79991 16.6662 4.88125 15.8924 4.10743C15.1186 3.33361 14.1999 2.71978 13.1889 2.30099C12.1778 1.8822 11.0942 1.66666 9.99984 1.66666ZM9.99984 16.6667C8.6813 16.6667 7.39237 16.2757 6.29604 15.5431C5.19971 14.8106 4.34523 13.7694 3.84064 12.5512C3.33606 11.333 3.20404 9.99259 3.46127 8.69939C3.71851 7.40618 4.35345 6.2183 5.2858 5.28594C6.21815 4.35359 7.40603 3.71866 8.69924 3.46142C9.99245 3.20419 11.3329 3.33621 12.5511 3.84079C13.7692 4.34538 14.8104 5.19986 15.543 6.29619C16.2755 7.39252 16.6665 8.68145 16.6665 9.99999C16.6665 11.7681 15.9641 13.4638 14.7139 14.714C13.4636 15.9643 11.768 16.6667 9.99984 16.6667Z" fill="#75839D"/>
</svg>
