<svg width="26" height="26" viewBox="0 0 26 26" fill="none" xmlns="http://www.w3.org/2000/svg">
<g clip-path="url(#clip0_521_3403)">
<path d="M13.0003 2.16669C7.02033 2.16669 2.16699 7.02002 2.16699 13C2.16699 18.98 7.02033 23.8334 13.0003 23.8334C18.9803 23.8334 23.8337 18.98 23.8337 13C23.8337 7.02002 18.9803 2.16669 13.0003 2.16669ZM14.0837 5.74169L15.5462 4.71252C17.5178 5.31919 19.197 6.61919 20.2912 8.33085L19.8687 9.78252L18.4062 10.2809L14.0837 7.25835V5.74169ZM10.4545 4.71252L11.917 5.74169V7.25835L7.59449 10.2809L6.13199 9.78252L5.70949 8.33085C6.80366 6.63002 8.48283 5.33002 10.4545 4.71252ZM7.67033 18.5359L6.43533 18.6442C5.12449 17.1275 4.33366 15.1559 4.33366 13C4.33366 12.87 4.34449 12.7509 4.35533 12.6209L5.43866 11.83L6.93366 12.35L8.51533 17.0517L7.67033 18.5359ZM15.7087 21.2225C14.8528 21.5042 13.9428 21.6667 13.0003 21.6667C12.0578 21.6667 11.1478 21.5042 10.292 21.2225L9.54449 19.6084L10.2378 18.4167H15.7737L16.467 19.6192L15.7087 21.2225ZM15.4595 16.25H10.5412L9.07866 11.895L13.0003 9.14335L16.9328 11.895L15.4595 16.25ZM19.5653 18.6442L18.3303 18.5359L17.4745 17.0517L19.0562 12.35L20.562 11.8409L21.6453 12.6317C21.6562 12.7509 21.667 12.87 21.667 13C21.667 15.1559 20.8762 17.1275 19.5653 18.6442Z" fill="white"/>
</g>
<defs>
<clipPath id="clip0_521_3403">
<rect width="26" height="26" fill="white"/>
</clipPath>
</defs>
</svg>
