<svg width="40" height="40" viewBox="0 0 40 40" fill="none" xmlns="http://www.w3.org/2000/svg">
<path d="M19.9999 3.33331C10.8333 3.33331 3.33325 10.8333 3.33325 20C3.33325 29.1666 10.8333 36.6666 19.9999 36.6666C29.1666 36.6666 36.6666 29.1666 36.6666 20C36.6666 10.8333 29.1666 3.33331 19.9999 3.33331ZM26.1666 21.1666L21.1666 26.1666C20.4999 26.8333 19.4999 26.8333 18.8333 26.1666C18.1666 25.5 18.1666 24.5 18.8333 23.8333L20.9999 21.6666H14.9999C13.9999 21.6666 13.3333 21 13.3333 20C13.3333 19 13.9999 18.3333 14.9999 18.3333H20.9999L18.8333 16.1666C18.1666 15.5 18.1666 14.5 18.8333 13.8333C19.4999 13.1666 20.4999 13.1666 21.1666 13.8333L26.1666 18.8333C26.8333 19.5 26.8333 20.5 26.1666 21.1666Z" fill="#0061FF"/>
</svg>
